<?xml version="1.0" encoding="UTF-8" standalone="no"?>
<svg
   xmlns:dc="http://purl.org/dc/elements/1.1/"
   xmlns:cc="http://creativecommons.org/ns#"
   xmlns:rdf="http://www.w3.org/1999/02/22-rdf-syntax-ns#"
   xmlns:svg="http://www.w3.org/2000/svg"
   xmlns="http://www.w3.org/2000/svg"
   xmlns:xlink="http://www.w3.org/1999/xlink"
   version="1.1"
   id="svg5520"
   viewBox="0 0 744.09448819 1052.3622047"
   height="297mm"
   width="210mm">
  <defs
     id="defs5522">
    <linearGradient
       id="linearGradient5211">
      <stop
         id="stop5207"
         offset="0"
         style="stop-color:#ffffff;stop-opacity:1;" />
      <stop
         id="stop5209"
         offset="1"
         style="stop-color:#ffffff;stop-opacity:0;" />
    </linearGradient>
    <radialGradient
       gradientUnits="userSpaceOnUse"
       gradientTransform="matrix(-2.0562085,0.97675215,-0.59126759,-1.2447212,2052.1377,-536.64243)"
       r="339.13525"
       fy="-129.58661"
       fx="687.95563"
       cy="-129.58661"
       cx="687.95563"
       id="radialGradient5213"
       xlink:href="#linearGradient5211" />
         <linearGradient
       id="linearGradient6017">
      <stop
         id="stop6013"
         offset="0"
         style="stop-color:#ffffff;stop-opacity:1;" />
      <stop
         id="stop6015"
         offset="1"
         style="stop-color:#ffffff;stop-opacity:0;" />
    </linearGradient>
    <radialGradient
       gradientUnits="userSpaceOnUse"
       gradientTransform="matrix(4.163324,-0.41458902,0.27334673,2.7449618,-1136.6071,-558.61496)"
       r="53.373405"
       fy="395.332"
       fx="325.71191"
       cy="395.332"
       cx="325.71191"
       id="radialGradient6019"
       xlink:href="#linearGradient6017" />
  </defs>
  <metadata
     id="metadata5525">
    <rdf:RDF>
      <cc:Work
         rdf:about="">
        <dc:format>image/svg+xml</dc:format>
        <dc:type
           rdf:resource="http://purl.org/dc/dcmitype/StillImage" />
        <dc:title></dc:title>
      </cc:Work>
    </rdf:RDF>
  </metadata>
  <style>
 /* <![CDATA[ */
 .manteau_superieur{
   fill: none;
   stroke: #ffffff;
   stroke-width:2px;
   stroke-opacity:0.5;
 }
 .manteau_superieur{
  stroke-dasharray: 15%;
  animation: dash 8s linear;
  animation-iteration-count: infinite;
}

 .point_chaud {
  fill: none;
  fill-opacity:0.3;
  transform: translateY(-3px);
   stroke: #ffffff;
   stroke-width:2px;
   stroke-opacity:0.8;
    stroke-dasharray: 1%;
  animation: dash 8s linear;
  animation-iteration-count: infinite;
 }

@keyframes dash {
  to{
         stroke-dashoffset: 200;
    }

}
@keyframes spirale {
   0%{
        stroke-dashoffset: 0;
    }
    100%{
         stroke-dashoffset: 50%;
    }

}
 /* ]]> */
  </style>
    <!--<g
     style="display:inline"
     id="globe">
   <path
       id="path6068"
       d="m 375.78125,21.345703 c -187.29463,0 -339.136719,153.203957 -339.136719,342.166017 0,188.96206 151.842089,342.16601 339.136719,342.16601 187.29463,0 339.13477,-153.20395 339.13477,-342.16601 0,-188.96206 -151.84014,-342.166017 -339.13477,-342.166017 z m 0,1.3125 c 186.57963,0 337.82422,152.593827 337.82422,340.853517 0,188.25968 -151.24459,340.85547 -337.82422,340.85547 -186.57963,0 -337.824219,-152.59579 -337.824219,-340.85547 0,-188.25969 151.244589,-340.853517 337.824219,-340.853517 z"
       style="stroke:#ffffff;stroke-width:1;stoke-opacity:0.1;" />
  </g>-->
  <g
     id="layer1">
    <path
       id="globe"
       transform="scale(0.9375)"
       d="M 400.83203 23.46875 A 361.04492 364.27754 0 0 0 39.787109 387.74609 A 361.04492 364.27754 0 0 0 400.83203 752.02344 A 361.04492 364.27754 0 0 0 761.87695 387.74609 A 361.04492 364.27754 0 0 0 400.83203 23.46875 z M 405.9043 26.857422 A 125.05553 361.20934 0 0 1 515.48047 206.66406 A 125.05553 361.20934 0 0 1 515.22852 570.67383 A 125.05553 361.20934 0 0 1 407.82031 748.96875 L 407.82031 749.05273 A 295.06289 361.05225 0 0 1 407.22266 749.02734 A 125.05553 361.20934 0 0 1 405.4043 749.20898 L 405.4043 748.95117 A 295.06289 361.05225 0 0 1 148.69336 570.59375 A 295.06289 361.05225 0 0 1 148.09766 206.74414 A 295.06289 361.05225 0 0 1 405.9043 27.03125 L 405.9043 26.857422 z "
       clip-path="none"
       style="opacity:1;fill:url(#radialGradient5213);fill-opacity:1;stroke:#ffffff;stroke-width:1;stroke-opacity:0.3" />
  </g>
  <g
     style="display:inline"
     id="manteau_superieur">
    <g
       transform="translate(-0.74401563,0.72436675)"
       id="g4600">
      <g
         id="g22"
         style="fill:none;stroke-width:9.375;stroke-miterlimit:4;stroke-dasharray:none">
        <path
           id="ms-bords-gauche"
           transform="scale(0.9375)"
           d="M 401.62695,21.996094 C 295.03144,22.697399 196.83119,92.385065 143.58203,204.59961 c -54.094374,113.99573 -53.865249,254.42213 0.60352,368.1543 54.46875,113.73217 155.18759,183.3505 263.73047,181.29882 l -0.18946,-9.99804 C 303.57278,746.02341 206.28979,679.27583 153.20508,568.43359 100.12036,457.59135 106.96389,305.84911 159.6863,194.74458 212.40873,83.640054 302.40915,30.555941 406.56836,32.013672 l 0.14062,-10 c -1.69607,-0.02374 -3.39003,-0.02871 -5.08203,-0.01758 z"
          style="fill:#ffffff;fill-opacity:1;" />
             <path
       id="ms-gauche"
       transform="scale(0.9375)"
       d="M 406.67188 33.035156 A 286.16191 355.78519 0 0 0 155.92969 210.14258 A 286.16191 355.78519 0 0 0 156.50781 568.68555 A 286.16191 355.78519 0 0 0 407.81836 744.54102 L 406.67188 33.035156 z M 405.10742 273.84766 L 405.44336 522.34961 A 83.758048 124.26271 0 0 1 331.88477 460.92969 A 83.758048 124.26271 0 0 1 331.7168 335.70312 A 83.758048 124.26271 0 0 1 405.10742 273.84766 z "
       style="opacity:1;fill:#ffffff;fill-opacity:0.2;stroke:#ffffff;stroke-width:0;stroke-opacity:0" />

         <path
           transform="scale(-1,1)"
           d="M -380.06567,702.3841 A 117.23956,338.63376 0 0 1 -483.02665,535.00592 117.23956,338.63376 0 0 1 -483.26349,193.7483 117.23956,338.63376 0 0 1 -380.53568,25.179129"
           id="ms-droite"
          style="stroke:#ffffff;stroke-width:8;opacity:0.5;fill:#ffffff;fill-opacity:0.1;" />
        </g>
    </g>
  </g>
  <g
     style="display:inline"
     id="manteau_inferieur">
    <g
       style="stroke:#ffffff;stroke-width:3;fill:none;"
       id="g4557">
      <path
         id="path6068-2-7"
         d="M 384.73408,668.88676 A 231.39713,303.56079 0 0 1 181.51878,518.84426 231.39713,303.56079 0 0 1 181.05131,212.93138 231.39713,303.56079 0 0 1 383.80642,61.821244" />
          <path
         id="path6068-2-7-6"
         d="m -382.34194,668.03045 a 85.318268,303.7045 0 0 1 -74.92737,-150.11353 85.318268,303.7045 0 0 1 -0.17236,-306.0577 85.318268,303.7045 0 0 1 74.75769,-151.181673"
         transform="scale(-1,1)" />
    </g>

    <path class="manteau_superieur"
       d="M 383.76684,633.43633 A 201.40942,272.34375 0 0 1 204.23944,499.75919 201.40942,272.34375 0 0 1 204.25959,222.63176 201.40942,272.34375 0 0 1 383.80643,89.00238"
       id="path867" />
    <path class="manteau_superieur"
       d="M 385.22906,600.84513 A 174.86235,239.46284 0 0 1 229.36454,483.30726 174.86235,239.46284 0 0 1 229.38204,239.63828 174.86235,239.46284 0 0 1 385.26344,122.14239"
       id="path867-3"/>
    <path class="manteau_superieur"
       transform="scale(-1,1)"
       d="m -385.9554,600.77682 a 52.546043,239.46286 0 0 1 -46.83721,-117.53788 52.546043,239.46286 0 0 1 0.005,-243.669 52.546043,239.46286 0 0 1 46.84228,-117.4959"
       id="path867-3-6" />
    <path class="manteau_superieur"
       transform="scale(-1,1)"
       d="m -386.31172,634.58 a 64.493225,272.34375 0 0 1 -57.48639,-133.67713 64.493225,272.34375 0 0 1 0.006,-277.12743 64.493225,272.34375 0 0 1 57.49262,-133.629383"
       id="path867-7" />
   </g>
  <g
     style="display:inline"
     id="noyau_externe">
    <g
      style="stroke:#ffffff;stroke-width:3;fill:none;"  id="g4571">
      <path
          id="ne_gauche"
         d="M 379.36459,556.17776 A 138.27931,193.44312 0 0 1 257.92629,460.56367 138.27931,193.44312 0 0 1 257.64694,265.62169 138.27931,193.44312 0 0 1 378.81023,169.32726" />
      <path
         id="ne_droite"
         d="m -379.44233,556.65829 a 47.851948,193.5363 0 0 1 -42.02407,-95.66014 47.851948,193.5363 0 0 1 -0.0967,-195.03589 47.851948,193.5363 0 0 1 41.92891,-96.34082"
         transform="scale(-1,1)" />
    </g>
    <path
       class="manteau_superieur"
       d="m 385.88376,528.88132 a 117.60542,163.79836 0 0 1 -104.82824,-80.39874 117.60542,163.79836 0 0 1 0.0118,-166.67545 117.60542,163.79836 0 0 1 104.83959,-80.37002"
       id="path867-3-5"
      />
    <path
       class="manteau_superieur"
       transform="scale(-1,1)"
       d="m -385.95395,528.98332 a 28.575491,163.90041 0 0 1 -25.47092,-80.44883 28.575491,163.90041 0 0 1 0.003,-166.77929 28.575491,163.90041 0 0 1 25.47368,-80.4201"
       id="path867-3-5-3"
      />
  <!--    <path
       class="spirale"
       transform="matrix(1.119213,0,0,1.0626166,-45.024881,-15.04642)"
       d="m 351.34366,211.78902 c 0.0997,1.4292 -1.87735,0.83953 -2.37544,0.16572 -1.34979,-1.82596 0.24442,-4.20237 2.04399,-4.9166 3.21899,-1.27759 6.5726,1.16102 7.45776,4.2537 1.299,4.53863 -2.07957,8.9841 -6.46341,9.99892 -5.84296,1.35261 -11.41144,-2.99743 -12.54009,-8.67311 -1.42029,-7.14226 3.91466,-13.84662 10.88283,-15.08126 8.43939,-1.4953 16.28628,4.83144 17.62242,13.09254 1.57459,9.73543 -5.74793,18.72873 -15.30225,20.16358 -11.03084,1.65659 -21.17306,-6.66423 -22.70474,-17.51195 -1.74041,-12.32588 7.5804,-23.61869 19.72166,-25.24591 13.62066,-1.8255 26.06528,8.49649 27.78708,21.93138 1.91152,14.91527 -9.41251,28.51257 -24.14109,30.32823"
       id="path4613" />
    <path
       class="spirale"
       transform="matrix(-0.31580835,1.0737331,-1.0194366,-0.29983855,635.52861,-64.716984)"
       d="m 351.34366,211.78902 c 0.0997,1.4292 -1.87735,0.83953 -2.37544,0.16572 -1.34979,-1.82596 0.24442,-4.20237 2.04399,-4.9166 3.21899,-1.27759 6.5726,1.16102 7.45776,4.2537 1.299,4.53863 -2.07957,8.9841 -6.46341,9.99892 -5.84296,1.35261 -11.41144,-2.99743 -12.54009,-8.67311 -1.42029,-7.14226 3.91466,-13.84662 10.88283,-15.08126 8.43939,-1.4953 16.28628,4.83144 17.62242,13.09254 1.57459,9.73543 -5.74793,18.72873 -15.30225,20.16358 -11.03084,1.65659 -21.17306,-6.66423 -22.70474,-17.51195 -1.74041,-12.32588 7.5804,-23.61869 19.72166,-25.24591 13.62066,-1.8255 26.06528,8.49649 27.78708,21.93138 1.91152,14.91527 -9.41251,28.51257 -24.14109,30.32823"
       id="path4613-6"
       style="  animation-direction: reverse;" />
    <path
       class="spirale"
       transform="matrix(1.119213,0,0,1.0626166,-119.1257,92.440713)"
       d="m 351.34366,211.78902 c 0.0997,1.4292 -1.87735,0.83953 -2.37544,0.16572 -1.34979,-1.82596 0.24442,-4.20237 2.04399,-4.9166 3.21899,-1.27759 6.5726,1.16102 7.45776,4.2537 1.299,4.53863 -2.07957,8.9841 -6.46341,9.99892 -5.84296,1.35261 -11.41144,-2.99743 -12.54009,-8.67311 -1.42029,-7.14226 3.91466,-13.84662 10.88283,-15.08126 8.43939,-1.4953 16.28628,4.83144 17.62242,13.09254 1.57459,9.73543 -5.74793,18.72873 -15.30225,20.16358 -11.03084,1.65659 -21.17306,-6.66423 -22.70474,-17.51195 -1.74041,-12.32588 7.5804,-23.61869 19.72166,-25.24591 13.62066,-1.8255 26.06528,8.49649 27.78708,21.93138 1.91152,14.91527 -9.41251,28.51257 -24.14109,30.32823"
       id="path4613-5" />
    <path
       class="spirale"
       transform="matrix(-0.59162248,0.97657763,-0.91401942,-0.50147424,675.78184,156.61474)"
       d="m 351.34366,211.78902 c 0.0997,1.4292 -1.87735,0.83953 -2.37544,0.16572 -1.34979,-1.82596 0.24442,-4.20237 2.04399,-4.9166 3.21899,-1.27759 6.5726,1.16102 7.45776,4.2537 1.299,4.53863 -2.07957,8.9841 -6.46341,9.99892 -5.84296,1.35261 -11.41144,-2.99743 -12.54009,-8.67311 -1.42029,-7.14226 3.91466,-13.84662 10.88283,-15.08126 8.43939,-1.4953 16.28628,4.83144 17.62242,13.09254 1.57459,9.73543 -5.74793,18.72873 -15.30225,20.16358 -11.03084,1.65659 -21.17306,-6.66423 -22.70474,-17.51195 -1.74041,-12.32588 7.5804,-23.61869 19.72166,-25.24591 13.62066,-1.8255 26.06528,8.49649 27.78708,21.93138 1.91152,14.91527 -9.41251,28.51257 -24.14109,30.32823"
       id="path4613-6-7"
       style="animation-direction: reverse;" />
    <path
       class="spirale"
       transform="matrix(-0.59162248,0.97657763,-0.91401942,-0.50147424,697.03029,225.51074)"
       d="m 351.34366,211.78902 c 0.0997,1.4292 -1.87735,0.83953 -2.37544,0.16572 -1.34979,-1.82596 0.24442,-4.20237 2.04399,-4.9166 3.21899,-1.27759 6.5726,1.16102 7.45776,4.2537 1.299,4.53863 -2.07957,8.9841 -6.46341,9.99892 -5.84296,1.35261 -11.41144,-2.99743 -12.54009,-8.67311 -1.42029,-7.14226 3.91466,-13.84662 10.88283,-15.08126 8.43939,-1.4953 16.28628,4.83144 17.62242,13.09254 1.57459,9.73543 -5.74793,18.72873 -15.30225,20.16358 -11.03084,1.65659 -21.17306,-6.66423 -22.70474,-17.51195 -1.74041,-12.32588 7.5804,-23.61869 19.72166,-25.24591 13.62066,-1.8255 26.06528,8.49649 27.78708,21.93138 1.91152,14.91527 -9.41251,28.51257 -24.14109,30.32823"
       id="path4613-6-7-3"
       style="animation-direction: reverse;" />
    <path
       class="spirale"
       transform="matrix(1.119213,0,0,1.0626166,-45.869868,289.26755)"
       d="m 351.34366,211.78902 c 0.0997,1.4292 -1.87735,0.83953 -2.37544,0.16572 -1.34979,-1.82596 0.24442,-4.20237 2.04399,-4.9166 3.21899,-1.27759 6.5726,1.16102 7.45776,4.2537 1.299,4.53863 -2.07957,8.9841 -6.46341,9.99892 -5.84296,1.35261 -11.41144,-2.99743 -12.54009,-8.67311 -1.42029,-7.14226 3.91466,-13.84662 10.88283,-15.08126 8.43939,-1.4953 16.28628,4.83144 17.62242,13.09254 1.57459,9.73543 -5.74793,18.72873 -15.30225,20.16358 -11.03084,1.65659 -21.17306,-6.66423 -22.70474,-17.51195 -1.74041,-12.32588 7.5804,-23.61869 19.72166,-25.24591 13.62066,-1.8255 26.06528,8.49649 27.78708,21.93138 1.91152,14.91527 -9.41251,28.51257 -24.14109,30.32823"
       id="path4613-5-5" />
    <path
       class="spirale"
       transform="matrix(0.2403769,0,0,1.080118,312.28403,-4.8553103)"
       d="m 351.34366,211.78902 c 0.0997,1.4292 -1.87735,0.83953 -2.37544,0.16572 -1.34979,-1.82596 0.24442,-4.20237 2.04399,-4.9166 3.21899,-1.27759 6.5726,1.16102 7.45776,4.2537 1.299,4.53863 -2.07957,8.9841 -6.46341,9.99892 -5.84296,1.35261 -11.41144,-2.99743 -12.54009,-8.67311 -1.42029,-7.14226 3.91466,-13.84662 10.88283,-15.08126 8.43939,-1.4953 16.28628,4.83144 17.62242,13.09254 1.57459,9.73543 -5.74793,18.72873 -15.30225,20.16358 -11.03084,1.65659 -21.17306,-6.66423 -22.70474,-17.51195 -1.74041,-12.32588 7.5804,-23.61869 19.72166,-25.24591 13.62066,-1.8255 26.06528,8.49649 27.78708,21.93138 1.91152,14.91527 -9.41251,28.51257 -24.14109,30.32823"
       id="path4613-62"
       style="animation-direction: reverse;" />
    <path
       class="spirale"
       transform="matrix(0.37897097,0,0,1.1300723,280.39776,112.26458)"
       d="m 351.34366,211.78902 c 0.0997,1.4292 -1.87735,0.83953 -2.37544,0.16572 -1.34979,-1.82596 0.24442,-4.20237 2.04399,-4.9166 3.21899,-1.27759 6.5726,1.16102 7.45776,4.2537 1.299,4.53863 -2.07957,8.9841 -6.46341,9.99892 -5.84296,1.35261 -11.41144,-2.99743 -12.54009,-8.67311 -1.42029,-7.14226 3.91466,-13.84662 10.88283,-15.08126 8.43939,-1.4953 16.28628,4.83144 17.62242,13.09254 1.57459,9.73543 -5.74793,18.72873 -15.30225,20.16358 -11.03084,1.65659 -21.17306,-6.66423 -22.70474,-17.51195 -1.74041,-12.32588 7.5804,-23.61869 19.72166,-25.24591 13.62066,-1.8255 26.06528,8.49649 27.78708,21.93138 1.91152,14.91527 -9.41251,28.51257 -24.14109,30.32823"
       id="path4613-62-9" />
    <path
       class="spirale"
       transform="matrix(-0.11543135,1.0737331,-0.37261506,-0.29983855,529.79492,-28.370333)"
       d="m 351.34366,211.78902 c 0.0997,1.4292 -1.87735,0.83953 -2.37544,0.16572 -1.34979,-1.82596 0.24442,-4.20237 2.04399,-4.9166 3.21899,-1.27759 6.5726,1.16102 7.45776,4.2537 1.299,4.53863 -2.07957,8.9841 -6.46341,9.99892 -5.84296,1.35261 -11.41144,-2.99743 -12.54009,-8.67311 -1.42029,-7.14226 3.91466,-13.84662 10.88283,-15.08126 8.43939,-1.4953 16.28628,4.83144 17.62242,13.09254 1.57459,9.73543 -5.74793,18.72873 -15.30225,20.16358 -11.03084,1.65659 -21.17306,-6.66423 -22.70474,-17.51195 -1.74041,-12.32588 7.5804,-23.61869 19.72166,-25.24591 13.62066,-1.8255 26.06528,8.49649 27.78708,21.93138 1.91152,14.91527 -9.41251,28.51257 -24.14109,30.32823"
       id="path4613-6-1"
       style="" />
    <path
       class="spirale"
       transform="matrix(0.37897097,0,0,1.1300723,278.28213,189.31241)"
       d="m 351.34366,211.78902 c 0.0997,1.4292 -1.87735,0.83953 -2.37544,0.16572 -1.34979,-1.82596 0.24442,-4.20237 2.04399,-4.9166 3.21899,-1.27759 6.5726,1.16102 7.45776,4.2537 1.299,4.53863 -2.07957,8.9841 -6.46341,9.99892 -5.84296,1.35261 -11.41144,-2.99743 -12.54009,-8.67311 -1.42029,-7.14226 3.91466,-13.84662 10.88283,-15.08126 8.43939,-1.4953 16.28628,4.83144 17.62242,13.09254 1.57459,9.73543 -5.74793,18.72873 -15.30225,20.16358 -11.03084,1.65659 -21.17306,-6.66423 -22.70474,-17.51195 -1.74041,-12.32588 7.5804,-23.61869 19.72166,-25.24591 13.62066,-1.8255 26.06528,8.49649 27.78708,21.93138 1.91152,14.91527 -9.41251,28.51257 -24.14109,30.32823"
       id="path4613-62-9-2"
       style="animation-direction: reverse;" />
    <path
       class="spirale"
       transform="matrix(-0.11543135,1.0737331,-0.37261506,-0.29983855,516.83924,180.02461)"
       d="m 351.34366,211.78902 c 0.0997,1.4292 -1.87735,0.83953 -2.37544,0.16572 -1.34979,-1.82596 0.24442,-4.20237 2.04399,-4.9166 3.21899,-1.27759 6.5726,1.16102 7.45776,4.2537 1.299,4.53863 -2.07957,8.9841 -6.46341,9.99892 -5.84296,1.35261 -11.41144,-2.99743 -12.54009,-8.67311 -1.42029,-7.14226 3.91466,-13.84662 10.88283,-15.08126 8.43939,-1.4953 16.28628,4.83144 17.62242,13.09254 1.57459,9.73543 -5.74793,18.72873 -15.30225,20.16358 -11.03084,1.65659 -21.17306,-6.66423 -22.70474,-17.51195 -1.74041,-12.32588 7.5804,-23.61869 19.72166,-25.24591 13.62066,-1.8255 26.06528,8.49649 27.78708,21.93138 1.91152,14.91527 -9.41251,28.51257 -24.14109,30.32823"
       id="path4613-6-1-7"
       style="" /> -->
  <!--  <path
       id="suduction"
       d="m 127.1414,233.08616 c 3.26685,72.21637 105.62825,114.45613 105.62825,114.45613 l 5.44474,-0.90838"
       style="fill:none;stroke:#ffffff;;stroke-width:5.97288513;stroke-linecap:butt;stroke-linejoin:miter;stroke-miterlimit:4;stroke-dasharray:none;stroke-opacity:1" />-->  
  </g>
  <!--  <g
     style="display:inline"
     id="noyau_interne">
    <g
       style="fill:#ffffff;fill-opacity:0.8;stroke:#ffffff;stroke-width:0;stroke-miterlimit:4;stroke-dasharray:none;stroke-opacity:1"
       id="g4575">
      <path
         id="path6068-2-7-8-1"
         d="m 380.10236,489.7024 a 78.52317,116.49629 0 0 1 -68.95985,-57.5812 78.52317,116.49629 0 0 1 -0.15863,-117.39895 78.52317,116.49629 0 0 1 68.80368,-57.99092" />
      <path
         id="path6068-2-7-8-1-4"
         d="m -380.12106,489.05841 a 21.493216,116.55938 0 0 1 -18.87556,-57.61238 21.493216,116.55938 0 0 1 -0.0434,-117.46252 21.493216,116.55938 0 0 1 18.83282,-58.02233"
         transform="scale(-1,1)" />
    </g>
  </g> -->
  <g
     style="display:inline"
     id="noyau_interne">
    <path
       id="path6068-2-7-8-1"
       transform="scale(0.9375)"
       d="M 405.10742 273.84766 A 83.758048 124.26271 0 0 0 331.7168 335.70312 A 83.758048 124.26271 0 0 0 331.88477 460.92969 A 83.758048 124.26271 0 0 0 405.44336 522.34961 L 405.44141 521.29492 A 22.926097 123.66563 0 0 0 423.5957 460.53711 A 22.926097 123.66563 0 0 0 423.64258 335.91406 A 22.926097 123.66563 0 0 0 405.10938 274.60547 L 405.10742 273.84766 z "
       style="display:inline;opacity:1;fill:url(#radialGradient6019);fill-opacity:1;stroke:#82ffff;stroke-width:0;stroke-opacity:1" />
  </g>
 
  <!--  <g
     style="display:inline;fill: none; stroke:#ffffff;stroke-width:1px;stroke-opacity:0.5;"
     id="vertical">
    <path
       id="path4578"
       d="m 383.95722,255.96118 c 1.0162,-230.634722 1.0162,-230.634722 1.0162,-230.634722 v 0" />
         <path
       id="path4578-3"
       d="m 385.49867,696.77912 c 1.01768,-209.41933 1.01768,-209.41933 1.01768,-209.41933 v 0" />
  </g> -->
 <!--   <g
     id="point_chaud">
    <path
       style="fill:#ffffff;fill-opacity:0.2;stroke:#ffffff;stroke-width:1;"
       id="contour_point_chaud"
       d="m 197.38867,104.65234 c -0.25392,0.002 -0.30118,0.0338 -0.42383,0.0606 0.2226,-0.005 0.50935,0.0106 0.96875,0.24023 0.007,0.003 0.0539,0.0875 0.0723,0.10743 h -4.12695 c 0,0.15625 -0.12029,0.59144 0.0117,1.47265 0.0988,0.65968 0.64509,1.4326 1.29688,2.0293 0.0273,0.22549 1.3e-4,0.40566 0.12695,0.68359 0.23081,0.50581 0.72263,0.99316 1.18555,1.22461 0.10484,0.0524 0.16622,0.0224 0.26562,0.0606 0.11702,0.28383 0.20064,0.57563 0.45118,0.82617 0.10238,0.10239 0.23584,0.12177 0.35156,0.19922 0.18389,0.29626 0.29336,0.37345 0.45508,0.51367 0.0757,0.35608 0.16386,0.70207 0.42773,1.04883 -0.004,0.0599 -0.0136,0.0854 -0.0156,0.15234 -0.006,0.19318 -0.0164,0.41458 0.0703,0.80274 0.0867,0.38816 0.32289,1.20639 1.30859,1.69922 0.10484,0.0524 0.16622,0.0224 0.26563,0.0605 0.11702,0.28383 0.20063,0.57564 0.45117,0.82618 0.10595,0.10594 0.2432,0.12773 0.36328,0.20703 0.36053,0.59922 0.71683,0.89277 0.99024,1.08593 0.14939,0.61688 0.58389,1.46878 1.24414,1.79883 0.21176,0.10589 0.45419,0.0689 0.6875,0.13672 -0.0104,0.22355 -0.0217,0.44937 -0.0254,0.66016 -0.003,0.14748 -0.006,0.27616 0.01,0.48828 0.008,0.10606 0.006,0.2153 0.082,0.50391 0.0381,0.1443 0.0731,0.33733 0.30664,0.69726 0.11678,0.17997 0.29278,0.41527 0.6211,0.64649 0.16416,0.1156 0.60265,0.30439 0.60351,0.30468 8.7e-4,3e-4 0.75105,0.125 0.75196,0.125 0.13297,0 0.18392,-0.0488 0.29687,-0.0625 -0.003,-0.003 0.0392,0.0431 0.0352,0.0391 -0.12843,-0.12844 0.10805,0.51986 1.27148,1.10156 0.61064,0.30533 0.74473,0.24244 0.91406,0.26172 0.16934,0.0193 0.29674,0.0239 0.42383,0.0273 0.25419,0.007 0.497,0.001 0.73633,-0.006 0.47866,-0.0139 1.0776,-0.0371 0.96289,-0.0371 0.15121,0 0.61315,-0.005 1.03516,-0.008 0.5556,0.53008 1.3454,0.73646 1.8457,0.74805 -0.0185,0.45905 0.0276,1.10137 0.73633,1.83984 -0.0241,0.3134 -0.0506,0.63457 -0.0586,0.97266 -0.01,0.41345 -0.28801,0.58411 0.31055,1.78125 0.36963,0.73925 0.76463,0.95631 1.07813,1.18164 v 0.42187 3.31445 0.66407 c 0,-0.23883 0.007,-0.19035 -0.0234,0.0859 -0.0301,0.27629 -0.0903,0.90123 0.27148,1.625 0.18025,0.3605 0.31834,0.62745 0.44532,0.85547 0.12698,0.22803 0.11794,0.3425 0.56445,0.80274 0.11163,0.11506 0.25808,0.26931 0.59961,0.45312 0.0226,0.0122 0.0936,-6.9e-4 0.11914,0.0117 -0.009,0.13731 -0.0218,0.26312 -0.0254,0.42188 -0.003,0.13853 -0.007,0.28062 0.0176,0.51367 0.0238,0.22912 -0.22269,0.56592 0.68359,1.49219 v 2.04687 h 1.4082 c 0.3734,0.34697 0.80716,0.40845 1.22071,0.4961 0.17983,0.20717 0.20722,0.35946 0.65625,0.58398 4.4e-4,2.2e-4 0.30553,0.12748 0.39062,0.15234 0.0851,0.0249 0.14329,0.0374 0.18945,0.0469 0.0923,0.019 0.14089,0.026 0.18164,0.0312 0.0815,0.0104 0.1219,0.013 0.15821,0.0156 0.0726,0.005 0.11914,0.006 0.17187,0.008 0.10547,0.004 0.21907,0.006 0.35157,0.008 0.26499,0.004 0.5968,0.006 0.92968,0.006 0.33289,0 0.6647,-0.002 0.92969,-0.006 0.1325,-0.002 0.2461,-0.004 0.35156,-0.008 0.0527,-0.002 0.0993,-0.003 0.17188,-0.008 0.0363,-0.003 0.0767,-0.005 0.1582,-0.0156 0.0408,-0.005 0.0893,-0.0123 0.18164,-0.0312 0.0462,-0.01 0.10435,-0.022 0.18946,-0.0469 0.0851,-0.0249 0.39018,-0.15212 0.39062,-0.15234 h 0.002 c 0.31992,-0.15996 0.29242,-0.25238 0.4668,-0.41602 h 0.47266 6.6289 1.98828 c -0.0522,0 0.71157,0.3312 2.06836,-0.12109 1.0604,-0.35346 1.47071,-0.85007 1.70313,-1.24805 l 0.11133,-0.0273 c 0.62982,-0.15725 0.38784,-0.13246 0.43164,-0.15234 0.0438,-0.0199 0.0757,-0.0337 0.11133,-0.0508 0.0712,-0.0342 0.15126,-0.074 0.25,-0.12304 0.0777,-0.0386 0.20739,-0.1055 0.30468,-0.1543 0.0759,0.36644 0.24552,0.78068 0.6543,1.18945 0.24823,0.24823 0.55505,0.37096 0.85156,0.48438 0.12778,0.29109 0.10781,0.47498 0.47461,0.8418 0.10085,0.10085 0.23187,0.12062 0.3457,0.19726 0.27915,0.45645 0.55118,0.71276 0.72461,0.84375 -0.028,-0.01 0.063,0.40802 0.62696,1.25391 0.10309,0.15463 0.12755,0.12154 0.22265,0.22851 -0.0706,0.21284 -0.19533,0.77921 0.16602,1.86328 0.12723,0.3817 0.3146,0.59474 0.49219,0.81641 -0.0721,0.23837 -0.17887,0.78963 0.16992,1.83594 0.33682,1.01046 0.46048,0.83308 0.59375,0.98633 0.13326,0.15324 0.26089,0.2864 0.40234,0.42968 0.2829,0.28656 0.61052,0.60062 0.93555,0.90821 0.32503,0.30758 0.64617,0.60643 0.8789,0.82812 0.0259,0.0247 0.035,0.034 0.0586,0.0566 -0.004,0.003 -0.0401,-0.0992 0.006,0.14649 0.0747,0.39967 0.17492,1.18399 0.83398,2.00781 1.1904,1.48797 2.32995,1.67177 2.31836,1.66211 0.50287,0.41907 1.06908,1.08276 1.83203,1.8457 0.81916,0.81915 1.47415,1.34183 1.77149,1.73828 1.49617,1.99489 2.645,4.72796 4.66601,7.32422 l -0.34179,-0.99023 c 0.0361,0.006 0.41563,0.0603 0.5625,0.082 -0.0932,0.19167 -0.3503,0.75615 0.19336,1.84375 h 0.002 c 0.58169,1.16339 1.22997,1.39989 1.10156,1.27148 -0.0649,-0.0649 0.44842,0.33357 0.64258,0.55664 0.0852,0.47983 0.25539,1.00344 0.68359,1.43164 0.12318,0.12318 0.28046,0.15274 0.42188,0.24024 0.0876,0.14174 0.11679,0.30038 0.24023,0.42383 0.12301,0.12301 0.28067,0.1528 0.42188,0.24023 0.0874,0.14121 0.11722,0.29887 0.24023,0.42188 0.11523,0.11523 0.34209,0.078 0.5,0.17382 0.17666,0.32021 0.32781,0.47176 0.43946,0.58008 0.46024,0.44656 0.5747,0.43942 0.80273,0.56641 0.22803,0.12699 0.49497,0.26506 0.85547,0.44531 h 0.002 c 1.08313,0.54154 1.7296,0.37891 2.1543,0.26758 0.2271,0.31344 0.43446,0.69379 1.16015,1.05664 0.2632,0.1316 0.51385,0.22922 0.8125,0.32227 l 0.17188,0.17187 0.33984,0.16992 c 0.59761,0.2988 0.81441,0.2553 1.01563,0.27149 0.1916,0.0154 0.33132,0.0147 0.46679,0.0117 0.0975,0.0864 0.21321,0.11532 0.32032,0.18164 0.0874,0.1412 0.11722,0.29886 0.24023,0.42187 0.19858,0.19857 0.44562,0.27698 0.68164,0.38672 0.0325,0.31081 -0.004,0.57472 0.20508,0.99219 0.18024,0.36049 0.31833,0.62939 0.44531,0.85742 0.12698,0.22802 0.11793,0.34054 0.56446,0.80078 0.0723,0.0746 0.24385,0.18989 0.38867,0.29492 0.11221,0.22176 0.17923,0.45657 0.36719,0.64453 0.3464,0.34639 0.7611,0.37336 1.16992,0.47657 0.13415,0.14388 0.28339,0.30353 0.45508,0.49414 0.2155,0.23925 0.43264,0.48227 0.6582,0.71289 0.11278,0.11531 0.22133,0.22539 0.39062,0.36718 0.0847,0.0709 0.1786,0.15124 0.36328,0.26368 0.0497,0.0302 0.27588,0.0551 0.3418,0.0976 0.0124,0.3065 -0.0549,0.5308 0.1582,0.95703 0.17893,0.35787 0.28591,0.34441 0.46485,0.52344 -0.1037,0.46282 -0.10649,0.85275 -0.0762,1.05469 -0.001,0.009 0.002,0.0407 0,0.0508 -0.0522,0.34777 -0.0348,1.27416 0.60351,2.07617 -2.3e-4,0.004 -0.002,0.004 -0.002,0.008 -0.0251,0.42692 -0.11242,1.26222 0.75,2.15624 -0.002,0.26732 -0.007,0.80079 -0.01,1.4629 -3.1e-4,0.0655 2.6e-4,0.11501 0,0.17968 -0.11761,0.12895 -0.3156,0.15478 -0.38476,0.29102 -0.30601,0.60276 -0.26967,0.92645 -0.27539,1.11523 -0.0114,0.37757 0.01,0.44254 0.01,0.64063 0,-0.44198 0.0301,-0.37435 -0.0273,-0.0254 -0.0575,0.34895 -0.14659,1.48633 0.71289,2.3457 0.42796,0.42799 0.95197,0.59629 1.43164,0.68164 0.22341,0.1946 0.62161,0.7095 0.55664,0.64453 -0.1054,-0.10539 0.25328,0.879 0.75977,2.39844 l 1.75,-0.72461 c -0.82571,0.41287 -1.70772,0.85482 -1.70899,0.85547 0,0 0,0.002 0,0.002 6.8e-4,0.001 0.002,0.004 0.004,0.008 0.002,0.005 0.004,0.009 0.008,0.0176 0.0113,0.0225 0.0299,0.0599 0.0742,0.14844 0.31687,0.63374 0.83982,1.28951 1.59375,1.66016 0.28293,0.13909 0.46415,0.0566 0.73438,0.10156 0.0445,0.0545 0.0488,0.12306 0.0996,0.17383 0.37979,0.37979 0.84905,0.43011 1.28321,0.52148 0.18,0.20652 0.20612,0.35696 0.65234,0.58008 0.28189,0.14095 0.43632,0.0852 0.66992,0.13867 0.0229,0.0253 0.0225,0.0596 0.0469,0.084 0.75745,0.75745 1.98278,0.85216 2.58984,0.71484 0.60706,-0.13732 0.94045,-0.34427 1.23828,-0.51953 0.45706,-0.26896 0.69125,-0.43375 0.89258,-0.56445 l 2.57031,0.38281 c 0.22053,-1.48237 0.56227,-2.4682 -0.46679,-3.95508 -0.51454,-0.74344 -1.69145,-1.24273 -2.44532,-1.20898 -0.75386,0.0337 -1.18109,0.26206 -1.5332,0.44336 -0.26668,0.13731 -0.33088,0.20035 -0.5293,0.32617 -0.34672,-0.12055 -0.71183,-0.38853 -0.95898,-0.38672 -0.1349,9.9e-4 -0.14477,0.026 -0.24805,0.0371 -0.10221,-0.0877 -0.10477,-0.12881 -0.24609,-0.2168 -0.078,-0.11707 -0.0977,-0.25198 -0.20117,-0.35547 -0.48573,-0.48573 -1.11115,-0.6452 -1.65821,-0.71094 -0.19368,-0.93005 -0.45937,-2.06875 -1.65625,-3.26562 -0.075,-0.075 -0.0607,-0.0652 -0.11523,-0.12305 0.0426,-0.15031 0.16208,-0.57204 0.16211,-0.57226 3e-5,-2.6e-4 -0.0449,-0.83765 -0.0449,-0.83789 -6e-5,-2.5e-4 -0.31235,-0.72828 -0.3125,-0.72852 -1.3e-4,-2e-4 -0.25393,-0.29754 -0.33985,-0.39844 0.004,-0.71961 0.0117,-1.4354 0.0117,-1.65039 v -0.66211 c 0,0.44198 -0.0301,0.37435 0.0274,0.0254 0.0529,-0.32123 0.0567,-1.30338 -0.60157,-2.1289 1.7e-4,-0.003 -1.6e-4,-0.003 0,-0.006 0.0151,-0.256 -0.0152,-0.67711 -0.16797,-1.15039 0.14009,-0.36446 0.19727,-0.71858 0.19727,-1.04883 0,-0.60849 -0.1072,-1.29071 -0.80469,-1.98828 -0.10239,-0.10238 -0.23584,-0.12177 -0.35156,-0.19922 -0.11605,-0.18696 -0.1739,-0.20367 -0.28711,-0.32422 v -0.36133 l -0.24805,-0.49609 c -0.13429,-0.2686 -0.31952,-0.8445 -0.80859,-1.57813 0.0189,0.0284 -0.0911,-0.20051 -0.38867,-0.57812 -0.25052,-0.31786 -0.8981,-0.81817 -1.76953,-0.99414 -0.10898,-0.11944 -0.21492,-0.23749 -0.32617,-0.35352 -0.0953,-0.0994 -0.36982,-0.26197 -0.44532,-0.35742 -0.0908,-0.46867 -0.26428,-0.97327 -0.67773,-1.38672 -0.1823,-0.1823 -0.47075,-0.35468 -0.73633,-0.52929 -0.0878,-0.48497 -0.15976,-1.03086 -0.58984,-1.46094 l -0.66211,-0.66211 -0.0234,-0.0234 h -0.0176 c -0.11357,-0.10814 -0.25481,-0.13767 -0.38281,-0.2168 -0.0873,-0.14125 -0.11736,-0.29878 -0.24024,-0.42187 -0.1229,-0.12292 -0.28078,-0.15284 -0.42187,-0.24024 -0.0876,-0.14174 -0.11679,-0.30038 -0.24023,-0.42382 -0.96329,-0.96336 -1.29625,-0.68279 -1.5293,-0.70704 -0.23305,-0.0242 -0.37319,-0.0207 -0.51172,-0.0176 -0.23088,0.005 -0.42515,0.0207 -0.61523,0.0351 -2.5e-4,-3e-4 -0.002,3e-4 -0.002,0 -0.069,-0.0834 -0.12042,-0.15186 -0.24414,-0.26953 -0.0404,-0.0385 -0.0593,-0.0709 -0.24219,-0.20508 -0.0457,-0.0335 -0.10353,-0.0743 -0.21093,-0.13671 -0.0537,-0.0312 -0.21853,-0.11123 -0.21875,-0.11133 -2.2e-4,-1e-4 -0.43929,-0.1484 -0.43946,-0.14844 -4e-5,-1e-5 -0.17117,-0.002 -0.28711,-0.002 -0.23819,-0.29438 -0.35524,-0.56825 -0.94921,-0.86524 -0.71541,-0.3577 -1.24507,-0.39882 -1.66407,-0.35937 -0.126,-0.15653 -0.24836,-0.39681 -0.3789,-0.52735 -0.27303,-0.27303 -0.74688,-0.26967 -1.1836,-0.41211 -0.0601,-0.0803 -0.0696,-0.17697 -0.14257,-0.25 -0.12319,-0.12317 -0.28046,-0.15273 -0.42188,-0.24023 -0.0848,-0.13716 -0.11417,-0.28994 -0.23242,-0.41016 -0.0963,-0.45598 -0.27199,-0.94192 -0.66992,-1.33984 -0.3243,-0.32432 -0.70668,-0.33603 -1.09571,-0.44531 -0.0788,-0.0713 -0.0897,-0.0761 -0.23047,-0.2168 -0.1432,-0.1432 -0.14934,-0.15533 -0.2207,-0.23437 -0.10954,-0.38788 -0.12025,-0.76867 -0.44336,-1.0918 -0.0665,-0.0665 -0.196,-0.12318 -0.27148,-0.18946 l -0.19922,-0.25585 c -1.50951,-1.93918 -2.65212,-4.64294 -4.61328,-7.25782 -0.82766,-1.10354 -1.70037,-1.73356 -2.20703,-2.24023 -0.56289,-0.56288 -1.20896,-1.35152 -2.14649,-2.13281 -1.23571,-1.02976 -1.85317,-1.232 -1.6582,-0.98829 0.22254,0.27818 0.17098,0.36709 0.11328,0.0586 -0.0577,-0.30849 -0.10249,-0.96378 -0.59766,-1.78906 -0.22536,-0.3756 -0.26401,-0.36557 -0.32617,-0.4336 -0.0622,-0.068 -0.11303,-0.11869 -0.16601,-0.17187 -0.10597,-0.10637 -0.21962,-0.21602 -0.34961,-0.33985 -0.25999,-0.24765 -0.57751,-0.54537 -0.88867,-0.83984 -0.24924,-0.23586 -0.46457,-0.44727 -0.65821,-0.63867 0.0214,-0.0297 0.0723,0.20966 0.0723,-0.34766 0,0.23883 -0.007,0.18839 0.0234,-0.0879 0.0301,-0.27628 0.0903,-0.89927 -0.27149,-1.62305 -0.20202,-0.40403 -0.30296,-0.35946 -0.49805,-0.54101 0.0402,0.0544 0.082,0.24148 0.082,-0.40039 0,0.23883 -0.007,0.19034 0.0234,-0.0859 0.0301,-0.27628 0.0923,-0.90123 -0.26953,-1.625 -0.31086,-0.62174 -0.64759,-0.83974 -0.84961,-0.99219 0.0265,0.005 -0.0616,-0.40588 -0.62305,-1.24804 -0.21351,-0.32026 -0.30411,-0.33709 -0.46289,-0.47266 -0.0993,-0.41863 -0.13376,-0.85251 -0.49218,-1.21094 -0.17488,-0.17488 -0.39326,-0.23676 -0.59961,-0.34179 0.0924,-0.13581 0.14621,-0.2252 0.24218,-0.36524 0.37584,-0.54837 0.76096,-1.10294 1.07618,-1.62305 0.15761,-0.26005 0.29713,-0.4871 0.44726,-0.85937 0.0751,-0.18614 0.17544,-0.38815 0.20899,-0.87891 0.0168,-0.24538 0.0223,-0.58902 -0.15625,-1.05273 -0.17859,-0.46371 -0.64013,-1.02026 -1.16602,-1.2832 -2.3e-4,-1.2e-4 -0.97418,-0.24804 -0.97461,-0.24805 -4.2e-4,-1e-5 -0.31361,0.0106 -0.40429,0.0234 -0.18137,0.0256 -0.25824,0.05 -0.32227,0.0684 -0.12807,0.0368 -0.17577,0.0575 -0.21875,0.0742 -0.086,0.0334 -0.12544,0.0504 -0.16992,0.0703 -0.089,0.0399 -0.1725,0.0802 -0.27344,0.1289 -0.20188,0.0973 -0.46326,0.22695 -0.77539,0.38282 -0.62425,0.31172 -1.4412,0.72574 -2.25977,1.14062 -0.81856,0.41488 -1.63738,0.83018 -2.25586,1.14258 -0.30923,0.1562 -0.56938,0.28622 -0.74804,0.375 -0.0893,0.0444 -0.16064,0.08 -0.19727,0.0977 -0.004,0.002 -6.5e-4,4.2e-4 -0.004,0.002 -0.26908,0.0429 -0.54004,-0.0778 -0.77735,0.0332 -0.74017,0.34617 -1.12029,0.8447 -1.3457,1.15625 -0.11593,-0.004 0.15894,-0.0547 -0.26563,-0.0547 h -1.98828 -6.6289 -0.66211 c 0.23882,0 0.18839,0.007 -0.0879,-0.0234 -0.27629,-0.0301 -0.89928,-0.0923 -1.62305,0.26953 -0.33379,0.1669 -0.31189,0.26415 -0.48828,0.43359 -0.15393,9.4e-4 -0.28694,0.004 -0.45313,0.004 -0.16619,0 -0.29919,-0.003 -0.45312,-0.004 -0.12259,-0.11775 -0.14492,-0.17908 -0.33985,-0.30078 -0.078,-0.11707 -0.0977,-0.25198 -0.20117,-0.35547 -0.0382,-0.0382 -0.0819,-0.028 -0.12109,-0.0625 -0.0502,-0.24684 0.0347,-0.37789 -0.10352,-0.6543 -0.0719,-0.14385 -0.26715,-0.23153 -0.38476,-0.37304 0.001,-0.0395 0.005,-0.0685 0.006,-0.10938 0.003,-0.14161 0.004,-0.28901 -0.0117,-0.49023 -0.0162,-0.20122 0.0273,-0.41803 -0.27149,-1.01563 -0.22311,-0.44621 -0.37356,-0.47234 -0.58007,-0.65234 -0.0914,-0.43416 -0.14168,-0.9034 -0.52149,-1.2832 -0.15866,-0.15866 -0.43017,-0.30851 -0.64062,-0.46094 v -3.18555 -0.66211 c 0,0.23883 -0.007,0.19035 0.0234,-0.0859 0.0301,-0.27628 0.0923,-0.90122 -0.26953,-1.625 -0.38496,-0.76991 -0.8109,-1.00948 -1.12304,-1.23046 0.0111,-0.19249 0.0205,-0.36811 0.0391,-0.60743 0.0287,-0.36936 0.0607,-0.75223 0.0703,-1.14648 0.005,-0.19713 0.008,-0.39027 -0.0215,-0.66602 -0.027,-0.254 0.0869,-0.6428 -0.61914,-1.43359 0.0283,-0.44339 0.11584,-1.26501 -0.77344,-2.1543 -0.37861,-0.37861 -0.84594,-0.42768 -1.2793,-0.51953 -0.17985,-0.20711 -0.20748,-0.35764 -0.65625,-0.58203 -0.28103,-0.14051 -0.43492,-0.0851 -0.66797,-0.13867 -0.0235,-0.026 -0.0238,-0.0609 -0.0488,-0.0859 -1e-4,-1e-4 -0.47638,-0.36708 -0.47656,-0.36719 -1.7e-4,-1e-4 -0.29467,-0.14443 -0.29492,-0.14453 -4.9e-4,-2e-4 -0.24311,-0.0874 -0.31445,-0.10547 -0.14269,-0.036 -0.20712,-0.0415 -0.25977,-0.0488 -0.10531,-0.0146 -0.14612,-0.0169 -0.18555,-0.0195 -0.0788,-0.005 -0.12535,-0.006 -0.17578,-0.008 -0.10086,-0.003 -0.20424,-0.003 -0.32812,-0.004 -0.24777,-0.001 -0.56037,-0.002 -0.87891,0 -0.63707,0.003 -1.35849,0.01 -1.39453,0.01 -0.36995,0 -0.65056,0.0224 -0.98437,0.0352 -0.006,-0.006 -0.004,-0.004 -0.01,-0.01 -0.14352,-0.14352 -0.14934,-0.15725 -0.2207,-0.23633 -0.10967,-0.38741 -0.12074,-0.76722 -0.44336,-1.08984 -0.1429,-0.1429 -0.41051,-0.22747 -0.62696,-0.34375 0.005,-0.16695 0.15113,-0.21536 -0.25976,-1.03711 -0.24744,-0.49489 -0.42974,-0.99198 -1.24219,-1.52539 -0.3527,-0.23157 -0.80353,-0.29219 -1.22265,-0.32226 -0.30543,-0.34625 -0.62108,-0.7515 -0.80274,-0.87891 -0.0954,-0.39371 -0.13933,-0.78693 -0.46094,-1.13477 -0.0317,-0.205 2.6e-4,-0.357 -0.11132,-0.60156 -0.22968,-0.50334 -0.71875,-0.98595 -1.17969,-1.21875 -0.003,-0.0258 0.002,-0.033 -0.002,-0.0606 -0.0411,-0.31072 -0.0572,-0.83263 -0.7207,-1.49609 -0.10349,-0.10349 -0.2384,-0.12314 -0.35547,-0.20117 -0.18217,-0.29176 -0.29097,-0.36876 -0.45117,-0.50781 -0.0872,-0.41162 -0.15018,-0.84207 -0.49414,-1.21485 -0.0316,-0.20575 8e-4,-0.35975 -0.11133,-0.60547 -0.2308,-0.5058 -0.72263,-0.9912 -1.18554,-1.22265 -0.10411,-0.0521 -0.16493,-0.0226 -0.26368,-0.0606 -0.11702,-0.28429 -0.20218,-0.57718 -0.45312,-0.82813 -0.19025,-0.19025 -0.40921,-0.14941 -0.64258,-0.26171 1.5e-4,-0.0523 0.004,-0.0109 0.004,-0.0684 h -0.17383 c -0.36687,-0.1462 -0.75491,-0.41002 -1.00391,-0.40821 z m 4.48438,5.62891 c -0.006,0.29185 -0.0751,0.43745 -0.0469,0.33008 0.0109,-0.0416 0.0261,-0.23413 0.0469,-0.33008 z m -3.96875,0.51172 c 0.001,-4e-5 0.003,0.002 0.004,0.002 -0.0113,0.0416 -0.0251,0.22304 -0.0449,0.31446 0.005,-0.27338 0.0509,-0.39211 0.041,-0.31641 z m 7.2832,4.79101 c -0.006,0.29199 -0.0751,0.43747 -0.0469,0.33008 0.0109,-0.0416 0.0261,-0.23413 0.0469,-0.33008 z m 4.63867,5.30469 c -0.006,0.29189 -0.0751,0.43745 -0.0469,0.33008 0.0109,-0.0415 0.0261,-0.23419 0.0469,-0.33008 z m 5.65039,0.38477 c 0.0115,-6e-4 0.0405,0.0139 0.0527,0.0137 -0.0125,0.003 -0.0316,0.003 -0.043,0.006 -0.003,-0.007 -0.007,-0.013 -0.01,-0.0195 z m -0.98047,4.83203 c -0.001,0.0503 -0.0115,0.17981 -0.0156,0.25391 -0.0349,-0.15042 0.003,-0.20501 0.0156,-0.25391 z m 7.26368,11.35742 c -0.006,0.29085 -0.075,0.43534 -0.0469,0.32813 0.0108,-0.0413 0.0262,-0.23317 0.0469,-0.32813 z m 16.98437,1.12109 1.30859,0.0488 c -0.48444,-0.16133 -1.08651,-0.0185 -1.66211,0.0723 -0.0124,-0.002 -0.23654,0.0262 0.35352,-0.1211 z m 8.86914,5.50586 c -0.006,0.29189 -0.0751,0.43746 -0.0469,0.33008 0.0109,-0.0415 0.0261,-0.23419 0.0469,-0.33008 z m -25.28906,0.38282 c 0.10737,-0.0282 -0.0382,0.041 -0.33008,0.0469 0.096,-0.0208 0.28853,-0.036 0.33008,-0.0469 z M 260.25,169.23438 c 1.04861,0.15528 3.89507,0.57259 3.89453,0.57617 -0.003,0.017 -0.007,0.0338 -0.01,0.0508 -0.012,0.0679 -0.0249,0.13539 -0.0605,0.24219 -0.0712,0.21359 -0.21462,0.89316 -1.29688,1.2539 -0.18996,0.0633 -0.32408,-0.0231 -0.51562,-0.0176 -0.003,0.0121 0.005,-0.0316 0,-0.0156 -7.2e-4,0.002 -0.003,0.0132 -0.004,0.0156 -0.35242,0.01 -0.74394,0.0548 -0.94922,-0.0332 -0.31763,-0.13613 -0.4255,-0.25949 -0.45312,-0.28711 -0.4595,-0.45953 -0.63532,-1.19078 -0.63281,-1.5332 0.002,-0.21435 0.014,-0.20278 0.0273,-0.25195 z m 4.59961,0.70898 c -0.006,0.29197 -0.075,0.43746 -0.0469,0.33008 0.0109,-0.0416 0.0261,-0.23414 0.0469,-0.33008 z m 10.48828,7.06836 c 0,0 0.16592,1.1475 0.33203,2.29492 -0.0648,0.0556 -0.18355,0.061 -0.23633,0.11914 -0.28024,0.30894 -0.3779,0.54575 -0.46875,0.77344 -0.15129,-0.003 -0.37919,-0.16382 -0.59961,-0.22266 -0.0297,-0.13441 -0.17053,-0.32039 -0.16992,-0.40429 0.002,-0.28842 0.0386,-0.31614 0.0156,-0.22852 -0.009,0.0333 -0.0476,0.19717 -0.0781,0.27539 -0.006,2.3e-4 0.0226,0.003 -0.043,-0.004 -0.0462,-0.005 -0.15161,0.018 -0.26953,0.0176 -0.10146,-0.33791 -0.19871,-0.79253 -0.0449,-1.2539 0.36076,-1.08229 1.04226,-1.22568 1.25586,-1.29688 0.1068,-0.0356 0.17425,-0.0486 0.24219,-0.0606 0.017,-0.003 0.0336,-0.005 0.0508,-0.008 0.004,-6.4e-4 0.009,-0.001 0.0137,-0.002 z m -1.20703,2.61133 c -0.027,0.0693 -0.0411,0.13892 -0.0684,0.24218 -0.0902,-0.038 -0.14836,-0.0365 -0.23633,-0.0879 -0.0121,-0.0317 0.005,-0.0987 -0.006,-0.13476 0.1267,-0.009 0.25584,-0.0175 0.31055,-0.0195 z m 1.64062,0.38281 c 0.0607,0.41929 0.0977,0.67345 0.13282,0.91602 -0.0501,0.008 0.004,0.006 -0.082,0.0137 -0.15355,0.0131 -0.51004,-0.21916 -0.8086,-0.30078 0.003,-0.005 0.001,-0.005 0.004,-0.01 0.0957,-0.1813 0.49011,-0.38911 0.7539,-0.61914 z m -1.26171,0.32031 c 0.087,0.003 0.21654,0.0389 0.2832,0.0332 0.0546,-0.005 0.0373,-0.0117 0.084,-0.0176 -0.0282,0.089 -0.0406,0.14673 -0.0527,0.22265 -0.0966,-0.0354 -0.15808,-0.0437 -0.25391,-0.0937 -0.026,-0.0544 -0.0393,-0.0902 -0.0605,-0.14453 z m 1.39648,0.60352 c 0.0202,0.1399 0.0702,0.49184 0.0762,0.5332 l -0.46094,-0.19141 -0.63671,-0.26367 c 0.004,-0.0151 0.0128,-0.0345 0.0176,-0.0508 0.19704,0.0274 0.42264,0.0775 0.55274,0.0664 0.29283,-0.025 0.34857,-0.0607 0.45117,-0.0937 z m -1.13867,0.01 c 0.003,5.7e-4 0.005,0.001 0.008,0.002 -2.1e-4,0.004 -0.002,0.0102 -0.002,0.0137 -0.005,-0.005 -0.001,-0.0109 -0.006,-0.0156 z m 3.9043,3.97071 c 0.10735,-0.0282 -0.0383,0.041 -0.33008,0.0469 0.0959,-0.0208 0.28853,-0.036 0.33008,-0.0469 z m 1.43945,2.10351 c -0.0109,0.0416 -0.0261,0.23413 -0.0469,0.33008 0.006,-0.29199 0.0751,-0.43747 0.0469,-0.33008 z m 6.61328,11.43555 c -0.006,0.29188 -0.075,0.43745 -0.0469,0.33008 0.0109,-0.0415 0.0261,-0.23419 0.0469,-0.33008 z m 2.26562,7.71484 c 0.003,0.007 0.007,0.013 0.01,0.0195 -0.0111,5.8e-4 -0.039,-0.0139 -0.0508,-0.0137 0.0119,-0.003 0.0301,-0.003 0.041,-0.006 z" />
    <path
       class="point_chaud"
       id="path4902-2"
       d="m 197.38867,104.65234 c -0.25392,0.002 -0.30118,0.0338 -0.42383,0.0606 0.2226,-0.005 0.50935,0.0106 0.96875,0.24023 0.007,0.003 0.0539,0.0875 0.0723,0.10743 h -4.12695 c 0,0.15625 -0.12029,0.59144 0.0117,1.47265 0.0988,0.65968 0.64509,1.4326 1.29688,2.0293 0.0273,0.22549 1.3e-4,0.40566 0.12695,0.68359 0.23081,0.50581 0.72263,0.99316 1.18555,1.22461 0.10484,0.0524 0.16622,0.0224 0.26562,0.0606 0.11702,0.28383 0.20064,0.57563 0.45118,0.82617 0.10238,0.10239 0.23584,0.12177 0.35156,0.19922 0.18389,0.29626 0.29336,0.37345 0.45508,0.51367 0.0757,0.35608 0.16386,0.70207 0.42773,1.04883 -0.004,0.0599 -0.0136,0.0854 -0.0156,0.15234 -0.006,0.19318 -0.0164,0.41458 0.0703,0.80274 0.0867,0.38816 0.32289,1.20639 1.30859,1.69922 0.10484,0.0524 0.16622,0.0224 0.26563,0.0605 0.11702,0.28383 0.20063,0.57564 0.45117,0.82618 0.10595,0.10594 0.2432,0.12773 0.36328,0.20703 0.36053,0.59922 0.71683,0.89277 0.99024,1.08593 0.14939,0.61688 0.58389,1.46878 1.24414,1.79883 0.21176,0.10589 0.45419,0.0689 0.6875,0.13672 -0.0104,0.22355 -0.0217,0.44937 -0.0254,0.66016 -0.003,0.14748 -0.006,0.27616 0.01,0.48828 0.008,0.10606 0.006,0.2153 0.082,0.50391 0.0381,0.1443 0.0731,0.33733 0.30664,0.69726 0.11678,0.17997 0.29278,0.41527 0.6211,0.64649 0.16416,0.1156 0.60265,0.30439 0.60351,0.30468 8.7e-4,3e-4 0.75105,0.125 0.75196,0.125 0.13297,0 0.18392,-0.0488 0.29687,-0.0625 -0.003,-0.003 0.0392,0.0431 0.0352,0.0391 -0.12843,-0.12844 0.10805,0.51986 1.27148,1.10156 0.61064,0.30533 0.74473,0.24244 0.91406,0.26172 0.16934,0.0193 0.29674,0.0239 0.42383,0.0273 0.25419,0.007 0.497,0.001 0.73633,-0.006 0.47866,-0.0139 1.0776,-0.0371 0.96289,-0.0371 0.15121,0 0.61315,-0.005 1.03516,-0.008 0.5556,0.53008 1.3454,0.73646 1.8457,0.74805 -0.0185,0.45905 0.0276,1.10137 0.73633,1.83984 -0.0241,0.3134 -0.0506,0.63457 -0.0586,0.97266 -0.01,0.41345 -0.28801,0.58411 0.31055,1.78125 0.36963,0.73925 0.76463,0.95631 1.07813,1.18164 v 0.42187 3.31445 0.66407 c 0,-0.23883 0.007,-0.19035 -0.0234,0.0859 -0.0301,0.27629 -0.0903,0.90123 0.27148,1.625 0.18025,0.3605 0.31834,0.62745 0.44532,0.85547 0.12698,0.22803 0.11794,0.3425 0.56445,0.80274 0.11163,0.11506 0.25808,0.26931 0.59961,0.45312 0.0226,0.0122 0.0936,-6.9e-4 0.11914,0.0117 -0.009,0.13731 -0.0218,0.26312 -0.0254,0.42188 -0.003,0.13853 -0.007,0.28062 0.0176,0.51367 0.0238,0.22912 -0.22269,0.56592 0.68359,1.49219 v 2.04687 h 1.4082 c 0.3734,0.34697 0.80716,0.40845 1.22071,0.4961 0.17983,0.20717 0.20722,0.35946 0.65625,0.58398 4.4e-4,2.2e-4 0.30553,0.12748 0.39062,0.15234 0.0851,0.0249 0.14329,0.0374 0.18945,0.0469 0.0923,0.019 0.14089,0.026 0.18164,0.0312 0.0815,0.0104 0.1219,0.013 0.15821,0.0156 0.0726,0.005 0.11914,0.006 0.17187,0.008 0.10547,0.004 0.21907,0.006 0.35157,0.008 0.26499,0.004 0.5968,0.006 0.92968,0.006 0.33289,0 0.6647,-0.002 0.92969,-0.006 0.1325,-0.002 0.2461,-0.004 0.35156,-0.008 0.0527,-0.002 0.0993,-0.003 0.17188,-0.008 0.0363,-0.003 0.0767,-0.005 0.1582,-0.0156 0.0408,-0.005 0.0893,-0.0123 0.18164,-0.0312 0.0462,-0.01 0.10435,-0.022 0.18946,-0.0469 0.0851,-0.0249 0.39018,-0.15212 0.39062,-0.15234 h 0.002 c 0.31992,-0.15996 0.29242,-0.25238 0.4668,-0.41602 h 0.47266 6.6289 1.98828 c -0.0522,0 0.71157,0.3312 2.06836,-0.12109 1.0604,-0.35346 1.47071,-0.85007 1.70313,-1.24805 l 0.11133,-0.0273 c 0.62982,-0.15725 0.38784,-0.13246 0.43164,-0.15234 0.0438,-0.0199 0.0757,-0.0337 0.11133,-0.0508 0.0712,-0.0342 0.15126,-0.074 0.25,-0.12304 0.0777,-0.0386 0.20739,-0.1055 0.30468,-0.1543 0.0759,0.36644 0.24552,0.78068 0.6543,1.18945 0.24823,0.24823 0.55505,0.37096 0.85156,0.48438 0.12778,0.29109 0.10781,0.47498 0.47461,0.8418 0.10085,0.10085 0.23187,0.12062 0.3457,0.19726 0.27915,0.45645 0.55118,0.71276 0.72461,0.84375 -0.028,-0.01 0.063,0.40802 0.62696,1.25391 0.10309,0.15463 0.12755,0.12154 0.22265,0.22851 -0.0706,0.21284 -0.19533,0.77921 0.16602,1.86328 0.12723,0.3817 0.3146,0.59474 0.49219,0.81641 -0.0721,0.23837 -0.17887,0.78963 0.16992,1.83594 0.33682,1.01046 0.46048,0.83308 0.59375,0.98633 0.13326,0.15324 0.26089,0.2864 0.40234,0.42968 0.2829,0.28656 0.61052,0.60062 0.93555,0.90821 0.32503,0.30758 0.64617,0.60643 0.8789,0.82812 0.0259,0.0247 0.035,0.034 0.0586,0.0566 -0.004,0.003 -0.0401,-0.0992 0.006,0.14649 0.0747,0.39967 0.17492,1.18399 0.83398,2.00781 1.1904,1.48797 2.32995,1.67177 2.31836,1.66211 0.50287,0.41907 1.06908,1.08276 1.83203,1.8457 0.81916,0.81915 1.47415,1.34183 1.77149,1.73828 1.49617,1.99489 2.645,4.72796 4.66601,7.32422 l -0.34179,-0.99023 c 0.0361,0.006 0.41563,0.0603 0.5625,0.082 -0.0932,0.19167 -0.3503,0.75615 0.19336,1.84375 h 0.002 c 0.58169,1.16339 1.22997,1.39989 1.10156,1.27148 -0.0649,-0.0649 0.44842,0.33357 0.64258,0.55664 0.0852,0.47983 0.25539,1.00344 0.68359,1.43164 0.12318,0.12318 0.28046,0.15274 0.42188,0.24024 0.0876,0.14174 0.11679,0.30038 0.24023,0.42383 0.12301,0.12301 0.28067,0.1528 0.42188,0.24023 0.0874,0.14121 0.11722,0.29887 0.24023,0.42188 0.11523,0.11523 0.34209,0.078 0.5,0.17382 0.17666,0.32021 0.32781,0.47176 0.43946,0.58008 0.46024,0.44656 0.5747,0.43942 0.80273,0.56641 0.22803,0.12699 0.49497,0.26506 0.85547,0.44531 h 0.002 c 1.08313,0.54154 1.7296,0.37891 2.1543,0.26758 0.2271,0.31344 0.43446,0.69379 1.16015,1.05664 0.2632,0.1316 0.51385,0.22922 0.8125,0.32227 l 0.17188,0.17187 0.33984,0.16992 c 0.59761,0.2988 0.81441,0.2553 1.01563,0.27149 0.1916,0.0154 0.33132,0.0147 0.46679,0.0117 0.0975,0.0864 0.21321,0.11532 0.32032,0.18164 0.0874,0.1412 0.11722,0.29886 0.24023,0.42187 0.19858,0.19857 0.44562,0.27698 0.68164,0.38672 0.0325,0.31081 -0.004,0.57472 0.20508,0.99219 0.18024,0.36049 0.31833,0.62939 0.44531,0.85742 0.12698,0.22802 0.11793,0.34054 0.56446,0.80078 0.0723,0.0746 0.24385,0.18989 0.38867,0.29492 0.11221,0.22176 0.17923,0.45657 0.36719,0.64453 0.3464,0.34639 0.7611,0.37336 1.16992,0.47657 0.13415,0.14388 0.28339,0.30353 0.45508,0.49414 0.2155,0.23925 0.43264,0.48227 0.6582,0.71289 0.11278,0.11531 0.22133,0.22539 0.39062,0.36718 0.0847,0.0709 0.1786,0.15124 0.36328,0.26368 0.0497,0.0302 0.27588,0.0551 0.3418,0.0976 0.0124,0.3065 -0.0549,0.5308 0.1582,0.95703 0.17893,0.35787 0.28591,0.34441 0.46485,0.52344 -0.1037,0.46282 -0.10649,0.85275 -0.0762,1.05469 -0.001,0.009 0.002,0.0407 0,0.0508 -0.0522,0.34777 -0.0348,1.27416 0.60351,2.07617 -2.3e-4,0.004 -0.002,0.004 -0.002,0.008 -0.0251,0.42692 -0.11242,1.26222 0.75,2.15624 -0.002,0.26732 -0.007,0.80079 -0.01,1.4629 -3.1e-4,0.0655 2.6e-4,0.11501 0,0.17968 -0.11761,0.12895 -0.3156,0.15478 -0.38476,0.29102 -0.30601,0.60276 -0.26967,0.92645 -0.27539,1.11523 -0.0114,0.37757 0.01,0.44254 0.01,0.64063 0,-0.44198 0.0301,-0.37435 -0.0273,-0.0254 -0.0575,0.34895 -0.14659,1.48633 0.71289,2.3457 0.42796,0.42799 0.95197,0.59629 1.43164,0.68164 0.22341,0.1946 0.62161,0.7095 0.55664,0.64453 -0.1054,-0.10539 0.25328,0.879 0.75977,2.39844 l 1.75,-0.72461 c -0.82571,0.41287 -1.70772,0.85482 -1.70899,0.85547 0,0 0,0.002 0,0.002 6.8e-4,0.001 0.002,0.004 0.004,0.008 0.002,0.005 0.004,0.009 0.008,0.0176 0.0113,0.0225 0.0299,0.0599 0.0742,0.14844 0.31687,0.63374 0.83982,1.28951 1.59375,1.66016 0.28293,0.13909 0.46415,0.0566 0.73438,0.10156 0.0445,0.0545 0.0488,0.12306 0.0996,0.17383 0.37979,0.37979 0.84905,0.43011 1.28321,0.52148 0.18,0.20652 0.20612,0.35696 0.65234,0.58008 0.28189,0.14095 0.43632,0.0852 0.66992,0.13867 0.0229,0.0253 0.0225,0.0596 0.0469,0.084 0.75745,0.75745 1.98278,0.85216 2.58984,0.71484 0.60706,-0.13732 0.94045,-0.34427 1.23828,-0.51953 0.45706,-0.26896 0.69125,-0.43375 0.89258,-0.56445 l 2.57031,0.38281 c 0.22053,-1.48237 0.56227,-2.4682 -0.46679,-3.95508 -0.51454,-0.74344 -1.69145,-1.24273 -2.44532,-1.20898 -0.75386,0.0337 -1.18109,0.26206 -1.5332,0.44336 -0.26668,0.13731 -0.33088,0.20035 -0.5293,0.32617 -0.34672,-0.12055 -0.71183,-0.38853 -0.95898,-0.38672 -0.1349,9.9e-4 -0.14477,0.026 -0.24805,0.0371 -0.10221,-0.0877 -0.10477,-0.12881 -0.24609,-0.2168 -0.078,-0.11707 -0.0977,-0.25198 -0.20117,-0.35547 -0.48573,-0.48573 -1.11115,-0.6452 -1.65821,-0.71094 -0.19368,-0.93005 -0.45937,-2.06875 -1.65625,-3.26562 -0.075,-0.075 -0.0607,-0.0652 -0.11523,-0.12305 0.0426,-0.15031 0.16208,-0.57204 0.16211,-0.57226 3e-5,-2.6e-4 -0.0449,-0.83765 -0.0449,-0.83789 -6e-5,-2.5e-4 -0.31235,-0.72828 -0.3125,-0.72852 -1.3e-4,-2e-4 -0.25393,-0.29754 -0.33985,-0.39844 0.004,-0.71961 0.0117,-1.4354 0.0117,-1.65039 v -0.66211 c 0,0.44198 -0.0301,0.37435 0.0274,0.0254 0.0529,-0.32123 0.0567,-1.30338 -0.60157,-2.1289 1.7e-4,-0.003 -1.6e-4,-0.003 0,-0.006 0.0151,-0.256 -0.0152,-0.67711 -0.16797,-1.15039 0.14009,-0.36446 0.19727,-0.71858 0.19727,-1.04883 0,-0.60849 -0.1072,-1.29071 -0.80469,-1.98828 -0.10239,-0.10238 -0.23584,-0.12177 -0.35156,-0.19922 -0.11605,-0.18696 -0.1739,-0.20367 -0.28711,-0.32422 v -0.36133 l -0.24805,-0.49609 c -0.13429,-0.2686" />
           </g> -->
</svg>
