<?xml version="1.0" encoding="UTF-8" standalone="no"?>
<svg
   xmlns:dc="http://purl.org/dc/elements/1.1/"
   xmlns:cc="http://creativecommons.org/ns#"
   xmlns:rdf="http://www.w3.org/1999/02/22-rdf-syntax-ns#"
   xmlns:svg="http://www.w3.org/2000/svg"
   xmlns="http://www.w3.org/2000/svg"
   xmlns:xlink="http://www.w3.org/1999/xlink"
   version="1.1"
   id="svg5520"
   viewBox="0 0 744.09448819 1052.3622047"
   height="297mm"
   width="210mm">
  <defs
     id="defs5522">
    <linearGradient
       id="linearGradient5211">
      <stop
         id="stop5207"
         offset="0"
         style="stop-color:#ffffff;stop-opacity:1;" />
      <stop
         id="stop5209"
         offset="1"
         style="stop-color:#ffffff;stop-opacity:0;" />
    </linearGradient>
    <radialGradient
       gradientUnits="userSpaceOnUse"
       gradientTransform="matrix(-2.0562085,0.97675215,-0.59126759,-1.2447212,2052.1377,-536.64243)"
       r="339.13525"
       fy="-129.58661"
       fx="687.95563"
       cy="-129.58661"
       cx="687.95563"
       id="radialGradient5213"
       xlink:href="#linearGradient5211" />
         <linearGradient
       id="linearGradient6017">
      <stop
         id="stop6013"
         offset="0"
         style="stop-color:#ffffff;stop-opacity:1;" />
      <stop
         id="stop6015"
         offset="1"
         style="stop-color:#ffffff;stop-opacity:0;" />
    </linearGradient>
    <radialGradient
       gradientUnits="userSpaceOnUse"
       gradientTransform="matrix(4.163324,-0.41458902,0.27334673,2.7449618,-1136.6071,-558.61496)"
       r="53.373405"
       fy="395.332"
       fx="325.71191"
       cy="395.332"
       cx="325.71191"
       id="radialGradient6019"
       xlink:href="#linearGradient6017" />
  </defs>
  <metadata
     id="metadata5525">
    <rdf:RDF>
      <cc:Work
         rdf:about="">
        <dc:format>image/svg+xml</dc:format>
        <dc:type
           rdf:resource="http://purl.org/dc/dcmitype/StillImage" />
        <dc:title></dc:title>
      </cc:Work>
    </rdf:RDF>
  </metadata>
  <style>
 /* <![CDATA[ */
 .manteau_superieur{
   fill: none;
   stroke: #ffffff;
   stroke-width:2px;
   stroke-opacity:0.5;
 }
 .manteau_superieur{
  stroke-dasharray: 15%;
  animation: dash 8s linear;
  animation-iteration-count: infinite;
}

 .point_chaud {
  fill: none;
  fill-opacity:0.3;
  transform: translateY(-3px);
   stroke: #ffffff;
   stroke-width:2px;
   stroke-opacity:0.8;
    stroke-dasharray: 1%;
  animation: dash 8s linear;
  animation-iteration-count: infinite;
 }

@keyframes dash {
  to{
         stroke-dashoffset: 200;
    }

}
@keyframes spirale {
   0%{
        stroke-dashoffset: 0;
    }
    100%{
         stroke-dashoffset: 50%;
    }

}
 /* ]]> */
  </style>
    <!--<g
     style="display:inline"
     id="globe">
   <path
       id="path6068"
       d="m 375.78125,21.345703 c -187.29463,0 -339.136719,153.203957 -339.136719,342.166017 0,188.96206 151.842089,342.16601 339.136719,342.16601 187.29463,0 339.13477,-153.20395 339.13477,-342.16601 0,-188.96206 -151.84014,-342.166017 -339.13477,-342.166017 z m 0,1.3125 c 186.57963,0 337.82422,152.593827 337.82422,340.853517 0,188.25968 -151.24459,340.85547 -337.82422,340.85547 -186.57963,0 -337.824219,-152.59579 -337.824219,-340.85547 0,-188.25969 151.244589,-340.853517 337.824219,-340.853517 z"
       style="stroke:#ffffff;stroke-width:1;stoke-opacity:0.1;" />
  </g>-->
  <g
     id="layer1">
    <path
       id="globe"
       transform="scale(0.9375)"
       d="M 400.83203 23.46875 A 361.04492 364.27754 0 0 0 39.787109 387.74609 A 361.04492 364.27754 0 0 0 400.83203 752.02344 A 361.04492 364.27754 0 0 0 761.87695 387.74609 A 361.04492 364.27754 0 0 0 400.83203 23.46875 z M 405.9043 26.857422 A 125.05553 361.20934 0 0 1 515.48047 206.66406 A 125.05553 361.20934 0 0 1 515.22852 570.67383 A 125.05553 361.20934 0 0 1 407.82031 748.96875 L 407.82031 749.05273 A 295.06289 361.05225 0 0 1 407.22266 749.02734 A 125.05553 361.20934 0 0 1 405.4043 749.20898 L 405.4043 748.95117 A 295.06289 361.05225 0 0 1 148.69336 570.59375 A 295.06289 361.05225 0 0 1 148.09766 206.74414 A 295.06289 361.05225 0 0 1 405.9043 27.03125 L 405.9043 26.857422 z "
       clip-path="none"
       style="opacity:1;fill:url(#radialGradient5213);fill-opacity:1;stroke:#ffffff;stroke-width:1;stroke-opacity:0.3" />
  </g>
  <!--  <g
     style="display:inline"
     id="globe_continent">
    <path
       id="path6068"
       transform="scale(0.9375)"
       d="M 400.83203 24.535156 A 361.04492 363.21087 0 0 0 39.787109 387.74609 A 361.04492 363.21087 0 0 0 400.83203 750.95703 A 361.04492 363.21087 0 0 0 761.87695 387.74609 A 361.04492 363.21087 0 0 0 400.83203 24.535156 z M 405.08789 33.683594 A 125.06042 355.17972 0 0 1 514.66797 210.49023 A 125.06042 355.17972 0 0 1 514.41602 568.42188 A 125.06042 355.17972 0 0 1 407.00195 743.74219 L 407.00391 745.33789 A 286.16191 355.78519 0 0 1 155.69336 569.48242 A 286.16191 355.78519 0 0 1 155.11523 210.93945 A 286.16191 355.78519 0 0 1 405.08789 33.847656 L 405.08789 33.683594 z "
       clip-path="none"
       style="opacity:0.40900005;fill:url(#radialGradient1832);fill-opacity:1;stroke:#ffffff;stroke-width:1.39868438;stroke-opacity:1" />
    <path
       id="path1797"
       transform="scale(0.9375)"
       d="M 470.52539 40.595703 C 469.74958 40.595177 468.9722 40.624363 468.19727 40.685547 C 462.53496 41.132709 449.86591 41.502747 434.66797 41.787109 A 125.06042 355.17972 0 0 1 463.94531 71.71875 C 467.55407 70.53493 470.72243 68.633358 471.66602 66.777344 C 472.23686 65.654482 472.67586 63.441744 472.64258 61.859375 C 472.57655 58.725053 474.92477 56.43575 482.22852 52.513672 C 487.05416 49.922325 487.49277 47.712756 483.83203 44.416016 C 481.23045 42.073116 475.9561 40.599379 470.52539 40.595703 z M 323.77344 41.054688 C 321.77791 40.992068 319.97083 41.056151 318.83203 41.261719 C 316.55446 41.672855 311.77372 42.438255 308.20898 42.962891 C 304.00905 43.581007 300.4703 44.809119 298.15625 46.453125 C 295.22276 48.53725 292.02979 49.359857 280.26953 51.060547 C 264.75541 53.304111 263.60259 53.691914 260.61133 57.664062 C 258.8137 60.051174 258.76155 60.57937 260.07227 62.988281 C 261.57472 65.749586 265.44928 67.969724 268.64844 67.902344 C 269.6539 67.88116 273.0423 68.934921 276.17969 70.244141 C 276.28996 70.290157 276.36937 70.320687 276.47656 70.365234 A 286.16191 355.78519 0 0 1 340.53906 42.109375 C 335.14125 41.987809 331.21176 41.825565 329.8418 41.607422 C 327.95291 41.306631 325.76896 41.117307 323.77344 41.054688 z M 253.66602 79.3125 C 251.95644 79.370343 250.2123 80.473475 247.78516 82.798828 C 243.69297 86.7194 243.4493 87.691434 246.03516 91.824219 A 286.16191 355.78519 0 0 1 260.90625 80.708984 C 258.86063 80.950621 257.69803 80.806488 256.8457 80.298828 C 255.70549 79.619705 254.69176 79.277794 253.66602 79.3125 z M 598.21289 85.880859 L 591.21875 90.875 C 572.13257 104.50486 563.23612 112.49533 560.7207 118.26367 C 559.74326 120.50511 558.62224 121.37936 556.41211 121.62891 C 549.83231 122.37182 549.05602 122.88851 547.98633 127.22266 C 546.74793 132.24029 547.85754 139.92904 549.92773 140.67383 C 550.74105 140.96644 552.19576 140.46108 553.16211 139.54883 C 555.53861 137.30529 555.8479 137.35637 563.61523 141.27344 C 568.75918 143.86753 570.57227 145.34356 571.09766 147.36719 C 571.47896 148.83596 572.48358 150.80024 573.33008 151.73438 C 575.40072 154.01938 580.85157 154.81913 583.73633 153.25977 C 586.69831 151.65868 593.4202 144.99132 593.39258 143.68164 C 593.38106 143.13544 594.52573 140.94713 595.93555 138.81836 C 598.40892 135.08366 598.4343 134.87859 596.67188 133.01172 C 595.2108 131.46405 594.94492 130.05124 595.34375 125.94531 C 595.61795 123.12224 596.38475 120.12973 597.04688 119.29688 C 598.76883 117.1308 607.90104 111.78908 609.97461 111.73438 C 612.35755 111.67134 612.20929 112.45757 608.84961 117.75 C 605.39987 123.18424 605.27764 125.62017 608.27148 129.26562 C 610.47716 131.95129 610.62766 131.97805 618.81641 131.22656 C 625.50706 130.61257 627.12692 130.73316 627.15039 131.84766 C 627.19295 133.8715 623.77578 134.70379 618.11914 134.04688 L 613.14648 133.4707 L 613.53516 139.22266 L 613.92383 144.97656 L 609.98047 145.14648 C 606.24219 145.30669 605.98362 145.52529 605.06641 149.33789 C 603.57768 155.52609 603.12526 155.8792 596.46289 156.01953 C 592.0295 156.11297 589.481 156.7362 587.01953 158.33008 C 583.8398 160.38903 583.54137 160.41774 581.74023 158.85547 C 579.15114 156.60969 572.39608 155.9718 568.64453 157.61914 C 566.35692 158.62363 565.30674 158.67875 564.42969 157.83789 C 562.40087 155.89276 559.13251 156.70114 556.22461 159.86719 C 554.67891 161.5501 552.58486 162.94351 551.57031 162.96484 C 547.58223 163.0489 543.12443 165.9188 542.10352 169.05859 C 541.41908 171.16361 540.4252 172.20199 539.07031 172.23047 C 537.96236 172.25372 535.34251 174.13255 533.24805 176.40625 C 529.35994 180.62702 521.36727 183.97823 517.43164 183.03711 C 513.65582 182.13423 510.15332 184.89065 510.41406 187.53516 A 125.06042 355.17972 0 0 1 510.58594 188.28906 C 510.75025 188.70689 511.01858 189.11294 511.41211 189.49023 C 511.96891 190.02408 511.90153 190.43289 511.16211 190.80469 A 125.06042 355.17972 0 0 1 513.16602 199.57031 C 516.80234 202.96189 517.65409 204.41064 517.71094 207.10938 C 517.75871 209.37869 517.21841 210.81895 515.9082 211.91992 A 125.06042 355.17972 0 0 1 521.18555 242.1582 C 525.19161 239.13309 526.34663 237.11853 526.28711 234.29297 C 526.2069 230.48657 528.41722 227.45741 532.73047 225.4668 C 534.29446 224.745 536.9184 222.24997 538.56055 219.92188 L 541.54688 215.6875 L 547.81836 215.85352 C 554.48263 216.02913 556.88556 214.93234 556.81836 211.74414 C 556.74849 208.42722 561.19766 209.33476 564.33984 213.2793 C 566.05436 215.43161 569.65939 217.93285 573.64453 219.73438 C 577.22289 221.35202 582.20136 224.66871 584.70703 227.10547 L 589.26172 231.53711 L 587.22852 233.79492 C 586.11037 235.03651 583.88362 236.34305 582.2793 236.69922 C 580.27953 237.14314 579.37482 237.94519 579.40234 239.25 C 579.45013 241.51829 584.65523 243.88908 586.72266 242.58398 C 588.71454 241.32658 594.85336 233.86259 595.52344 231.88281 C 595.83707 230.95617 597.12528 230.02904 598.38672 229.82227 C 599.64816 229.61549 600.80403 228.71367 600.95508 227.81836 C 601.33699 225.55439 593.84472 218.56458 588.05273 215.78125 C 583.407 213.54876 575.71312 206.51742 575.66992 204.46484 C 575.61232 201.73196 581.82136 205.0001 591.3457 212.71484 C 594.14406 214.98152 597.56268 216.96816 598.94141 217.13086 C 600.96228 217.36933 601.62426 218.19837 602.36133 221.4082 C 602.86418 223.5981 603.82295 226.31304 604.49023 227.44141 C 610.75902 238.04169 615.69419 244.07495 618.36914 244.4043 C 621.04366 244.73359 623.488 242.89336 623.43945 240.58789 C 623.42047 239.68773 624.29362 238.37012 625.37891 237.66016 C 627.93571 235.98756 627.84898 235.14818 624.75195 231.62109 C 621.32646 227.71993 621.49742 226.83149 625.5957 227.22266 C 627.7114 227.42459 629.90679 226.91601 631.29102 225.90234 C 632.53003 224.99503 633.79563 224.24663 634.10352 224.24023 C 634.41138 224.23383 634.81422 227.2265 635 230.88867 C 635.38324 238.44346 637.02128 240.87656 644.00195 244.27148 C 647.38296 245.91578 650.23322 246.22205 661.89258 246.19336 C 669.52011 246.17459 676.19889 246.58035 676.73438 247.09375 C 678.22245 248.52044 675.16264 260.25385 672.07812 264.95117 L 669.41406 269.00781 L 653.48047 269.11914 C 644.71685 269.18111 635.06085 268.77612 632.02344 268.21875 C 626.50328 267.20579 616.34799 263.1359 615.29883 261.51562 C 614.12788 259.70729 611.8775 260.8364 611.38672 263.47852 C 611.10461 264.99728 610.18312 267.71773 609.33789 269.52344 C 607.94899 272.49064 607.37352 272.81396 603.36328 272.89844 C 600.50513 272.9586 597.89491 272.29159 596.0293 271.02148 C 590.71143 267.40113 582.21443 264.23254 579.67969 264.92578 C 577.81193 265.4366 576.88268 265.00984 575.50977 263.00781 C 574.53806 261.59085 572.63211 260.03612 571.27539 259.55273 C 569.2503 258.83124 568.79476 257.98636 568.72852 254.83984 C 568.68414 252.73182 569.28937 250.11954 570.07422 249.03516 C 572.02129 246.34496 571.8621 244.19102 569.57031 242.20312 C 567.74936 240.62368 567.24103 240.64801 560.32812 242.66211 C 556.30467 243.83437 548.10852 245.37868 542.11328 246.09375 C 535.07038 246.93377 529.91977 248.10376 527.55859 249.39844 C 525.84663 250.33709 524.43769 250.82535 522.57617 251.00586 A 125.06042 355.17972 0 0 1 532.32227 399.1875 C 540.38199 397.54184 543.72587 398.85733 548.12891 403.41016 C 551.50188 406.89788 552.58084 407.41137 556.64062 407.46289 C 560.49241 407.51174 561.78561 408.0525 564.18164 410.62305 C 566.5928 413.20984 567.09342 414.61724 567.1875 419.08398 C 567.24958 422.0305 566.66426 426.3675 565.88867 428.72266 C 565.1131 431.07782 564.49257 433.59662 564.50781 434.32031 C 564.52307 435.04399 566.89033 438.20137 569.76953 441.33594 C 572.64874 444.47051 575.63228 448.37167 576.40039 450.00586 C 584.77249 467.81838 585.46982 469.69178 585.06445 473.28711 C 584.8308 475.35953 585.29497 478.44968 586.11523 480.29102 C 588.07895 484.69911 587.2507 489.08789 582.70508 498.38477 C 577.47204 509.08772 577.49418 514.71043 582.79883 523.07812 C 588.07515 531.40115 593.863 546.33202 594.02734 552.04297 C 594.25268 559.86968 596.87481 567.84455 600.69531 572.32422 C 605.49685 577.95415 607.24362 581.43084 608.62305 588.10352 C 610.02244 594.87272 612.15822 599.07881 615.27734 601.21289 L 615.27734 601.21484 C 616.77901 602.24226 618.59343 602.55491 620.55273 602.125 C 622.1955 601.76455 626.00703 601.03298 629.02148 600.5 C 632.03594 599.96701 636.65596 598.53718 639.28906 597.32227 C 641.92215 596.10733 644.74283 595.0992 645.55664 595.08203 C 646.37045 595.06496 652.40817 589.69179 658.97461 583.14258 C 669.29281 572.8514 671.47674 570.08325 675.06445 562.74219 C 678.37122 555.976 680.2194 553.49405 684.14453 550.54688 L 689.07227 546.84766 L 688.45898 541.76367 C 688.12179 538.9673 687.50857 535.25615 687.09766 533.51758 C 685.63249 527.31859 691.83733 518.67781 705.01953 508.55664 C 710.43007 504.40248 711.7621 500.64789 711.63477 489.90625 C 711.56191 483.75491 710.708 478.72971 708.29492 470.23438 C 703.5459 453.51512 703.65166 452.44728 711.01758 442.91992 C 714.39023 438.55763 719.06614 432.26011 721.4082 428.92383 C 723.75027 425.58755 728.62367 419.64377 732.23828 415.7168 C 738.47412 408.9421 750.57331 391.8036 753.74023 385.25781 C 755.49238 381.63627 758.26498 368.62547 757.52734 367.48633 C 756.83518 366.41735 751.42211 366.57613 749.33008 367.72656 C 748.41414 368.23024 741.43417 368.94101 733.81836 369.30469 L 719.9707 369.96484 L 718.11914 364.41211 C 715.93164 357.85347 711.41388 351.26977 703.87891 343.6543 C 696.97656 336.67823 693.1075 330.49002 686.67969 316.15039 C 683.87124 309.88509 679.54954 300.67228 677.07617 295.67773 C 672.6002 286.63916 672.52126 285.44488 676.39453 285.36328 C 678.32261 285.32264 689.84554 301.44737 693.375 309.125 C 695.47547 313.69411 698.79124 319.42491 700.74219 321.85938 C 708.3633 331.36931 714.61008 340.99442 715.70703 344.91797 C 719.07348 356.95917 719.98932 358.59306 724.4082 360.4375 C 728.1953 362.0182 729.1475 362.05279 733.55078 360.77148 C 736.25426 359.98484 741.13258 357.68422 744.39062 355.6582 C 747.52737 353.70763 753.27189 350.72243 757.45312 348.84961 A 361.04492 363.21087 0 0 0 748.41797 298.2168 C 745.94339 294.63982 743.23051 288.29156 739.55859 277.68359 C 739.2397 276.76235 740.21302 277.01046 742.63477 278.48438 A 361.04492 363.21087 0 0 0 598.21289 85.880859 z M 223.69336 88.115234 C 222.54431 88.107188 221.06911 88.390698 219.20312 88.935547 C 215.73586 89.947966 214.82834 90.845953 212.68359 95.376953 C 209.83327 101.3986 204.87791 107.25342 202.59375 107.30078 C 201.73932 107.31849 198.6542 106.48386 195.73828 105.44531 C 192.82236 104.40677 188.16656 103.60559 185.39062 103.66406 C 179.01797 103.79829 179.7492 102.27257 186.83789 100.64453 C 189.79739 99.964843 192.64653 98.861811 193.16992 98.193359 C 193.70394 97.511338 194.1671 93.500214 194.29688 89.814453 A 361.04492 363.21087 0 0 0 43.636719 326.45312 C 46.593327 331.76616 46.938859 333.36057 46.621094 336.83594 C 46.39116 339.35065 46.607133 342.09514 47.101562 342.93555 C 48.32244 345.01074 59.71963 352.50989 67.757812 356.52539 C 76.39978 360.84247 83.788465 362.26791 88.921875 360.61133 C 92.495575 359.45807 93.070914 359.5722 96.949219 362.18359 C 105.71635 368.08677 112.52957 371.20085 116.55469 371.14453 C 117.02571 371.13794 117.44782 371.14879 117.8457 371.17383 A 286.16191 355.78519 0 0 1 121.79297 328.08398 C 119.98485 328.1103 118.35708 328.36558 117.57031 328.90625 C 116.96358 329.32319 115.32795 332.04365 113.9375 334.95117 C 112.54704 337.85871 110.2124 341.05904 108.74805 342.0625 C 102.09214 346.62345 88.564493 342.37684 86.357422 335.0332 C 85.744183 332.99278 85.226721 330.64894 85.205078 329.82422 C 85.168545 328.38404 90.881078 307.86316 92.767578 302.6582 C 93.919367 299.48038 105.92426 292.19722 113.13672 290.30078 C 118.03903 289.01177 118.48435 289.05385 120.15234 290.96289 C 121.29864 292.27486 123.32227 293.05638 125.83203 293.1543 C 126.7695 293.19089 127.5085 293.171 128.1582 293.06836 A 286.16191 355.78519 0 0 1 155.92969 210.14258 A 286.16191 355.78519 0 0 1 186.54492 157.23438 C 185.38276 156.66456 184.30178 155.98861 183.08789 155.10156 C 179.00995 152.12165 178.46079 151.27677 178.38867 147.85352 C 178.31902 144.54249 178.915 143.42472 182.47852 140.17969 C 184.77252 138.09067 190.21283 134.61629 194.56836 132.45898 C 201.42584 129.0625 204.27822 127.89933 211.32812 125.66797 A 286.16191 355.78519 0 0 1 233.80273 102.78711 C 232.5926 103.02103 232.44907 102.6119 232.42773 101.59961 C 232.40597 100.56564 231.24718 99.006549 229.85352 98.134766 C 227.88307 96.902206 227.30079 95.700392 227.23828 92.732422 C 227.17155 89.562756 226.22127 88.132937 223.69336 88.115234 z M 743.68359 496.50781 C 742.06114 497.92086 739.59939 499.37712 735.12305 501.79883 L 725.57227 506.9668 L 726.14648 517.15625 L 726.72266 527.3457 L 723.66992 530.13867 C 720.84829 532.72179 720.62852 533.41855 720.75391 539.37109 C 720.84372 543.63522 721.27739 545.90412 722.63477 548.51758 A 361.04492 363.21087 0 0 0 743.68359 496.50781 z M 231.23438 672.88477 C 231.86475 674.06217 232.54976 675.30191 233.28516 676.57422 C 239.12268 686.67375 246.4336 694.50159 249.98047 694.44922 C 251.31895 694.42938 253.09949 694.83588 253.93555 695.35156 C 254.76586 695.8637 257.34616 696.24785 259.68945 696.21289 A 286.16191 355.78519 0 0 1 231.23438 672.88477 z "
       clip-path="none"
       style="display:inline;fill:#ffffff;stroke-width:1" />
  </g>
  <g
     style="display:inline"
     id="layer15">
    <path
       id="path6272"
       d="m 78,81.362204 c 0,0 -0.5,0 -0.5,0 0,2 0.5,8 0.5,10 0,-2 0.5,-8 0.5,-10 0,0 -0.5,0 -0.5,0 z"
       style="fill:#000000;fill-rule:evenodd;stroke:none;stroke-width:1px;stroke-linecap:butt;stroke-linejoin:miter;stroke-opacity:1" />
  </g> -->
  <g
     style="display:inline"
     id="manteau_superieur">
    <g
       transform="translate(-0.74401563,0.72436675)"
       id="g4600">
      <g
         id="g22"
         style="fill:none;stroke-width:9.375;stroke-miterlimit:4;stroke-dasharray:none">
        <path
           id="ms-bords-gauche"
           transform="scale(0.9375)"
           d="M 401.62695,21.996094 C 295.03144,22.697399 196.83119,92.385065 143.58203,204.59961 c -54.094374,113.99573 -53.865249,254.42213 0.60352,368.1543 54.46875,113.73217 155.18759,183.3505 263.73047,181.29882 l -0.18946,-9.99804 C 303.57278,746.02341 206.28979,679.27583 153.20508,568.43359 100.12036,457.59135 106.96389,305.84911 159.6863,194.74458 212.40873,83.640054 302.40915,30.555941 406.56836,32.013672 l 0.14062,-10 c -1.69607,-0.02374 -3.39003,-0.02871 -5.08203,-0.01758 z"
          style="fill:#ffffff;fill-opacity:1;" />
             <path
       id="ms-gauche"
       transform="scale(0.9375)"
       d="M 406.67188 33.035156 A 286.16191 355.78519 0 0 0 155.92969 210.14258 A 286.16191 355.78519 0 0 0 156.50781 568.68555 A 286.16191 355.78519 0 0 0 407.81836 744.54102 L 406.67188 33.035156 z M 405.10742 273.84766 L 405.44336 522.34961 A 83.758048 124.26271 0 0 1 331.88477 460.92969 A 83.758048 124.26271 0 0 1 331.7168 335.70312 A 83.758048 124.26271 0 0 1 405.10742 273.84766 z "
       style="opacity:1;fill:#ffffff;fill-opacity:0.2;stroke:#ffffff;stroke-width:0;stroke-opacity:0" />

         <path
           transform="scale(-1,1)"
           d="M -380.06567,702.3841 A 117.23956,338.63376 0 0 1 -483.02665,535.00592 117.23956,338.63376 0 0 1 -483.26349,193.7483 117.23956,338.63376 0 0 1 -380.53568,25.179129"
           id="ms-droite"
          style="stroke:#ffffff;stroke-width:8;opacity:0.5;fill:#ffffff;fill-opacity:0.1;" />
        </g>
    </g>
  </g>
  <g
     style="display:inline"
     id="manteau_inferieur">
    <g
       style="stroke:#ffffff;stroke-width:3;fill:none;"
       id="g4557">
      <path
         id="path6068-2-7"
         d="M 384.73408,668.88676 A 231.39713,303.56079 0 0 1 181.51878,518.84426 231.39713,303.56079 0 0 1 181.05131,212.93138 231.39713,303.56079 0 0 1 383.80642,61.821244" />
          <path
         id="path6068-2-7-6"
         d="m -382.34194,668.03045 a 85.318268,303.7045 0 0 1 -74.92737,-150.11353 85.318268,303.7045 0 0 1 -0.17236,-306.0577 85.318268,303.7045 0 0 1 74.75769,-151.181673"
         transform="scale(-1,1)" />
    </g>

    <path class="manteau_superieur"
       d="M 383.76684,633.43633 A 201.40942,272.34375 0 0 1 204.23944,499.75919 201.40942,272.34375 0 0 1 204.25959,222.63176 201.40942,272.34375 0 0 1 383.80643,89.00238"
       id="path867" />
    <path class="manteau_superieur"
       d="M 385.22906,600.84513 A 174.86235,239.46284 0 0 1 229.36454,483.30726 174.86235,239.46284 0 0 1 229.38204,239.63828 174.86235,239.46284 0 0 1 385.26344,122.14239"
       id="path867-3"/>
    <path class="manteau_superieur"
       transform="scale(-1,1)"
       d="m -385.9554,600.77682 a 52.546043,239.46286 0 0 1 -46.83721,-117.53788 52.546043,239.46286 0 0 1 0.005,-243.669 52.546043,239.46286 0 0 1 46.84228,-117.4959"
       id="path867-3-6" />
    <path class="manteau_superieur"
       transform="scale(-1,1)"
       d="m -386.31172,634.58 a 64.493225,272.34375 0 0 1 -57.48639,-133.67713 64.493225,272.34375 0 0 1 0.006,-277.12743 64.493225,272.34375 0 0 1 57.49262,-133.629383"
       id="path867-7" />
   </g>
  <g
     style="display:inline"
     id="noyau_externe">
    <g
      style="stroke:#ffffff;stroke-width:3;fill:none;"  id="g4571">
      <path
          id="ne_gauche"
         d="M 379.36459,556.17776 A 138.27931,193.44312 0 0 1 257.92629,460.56367 138.27931,193.44312 0 0 1 257.64694,265.62169 138.27931,193.44312 0 0 1 378.81023,169.32726" />
      <path
         id="ne_droite"
         d="m -379.44233,556.65829 a 47.851948,193.5363 0 0 1 -42.02407,-95.66014 47.851948,193.5363 0 0 1 -0.0967,-195.03589 47.851948,193.5363 0 0 1 41.92891,-96.34082"
         transform="scale(-1,1)" />
    </g>
    <path
       class="manteau_superieur"
       d="m 385.88376,528.88132 a 117.60542,163.79836 0 0 1 -104.82824,-80.39874 117.60542,163.79836 0 0 1 0.0118,-166.67545 117.60542,163.79836 0 0 1 104.83959,-80.37002"
       id="path867-3-5"
      />
    <path
       class="manteau_superieur"
       transform="scale(-1,1)"
       d="m -385.95395,528.98332 a 28.575491,163.90041 0 0 1 -25.47092,-80.44883 28.575491,163.90041 0 0 1 0.003,-166.77929 28.575491,163.90041 0 0 1 25.47368,-80.4201"
       id="path867-3-5-3"
      />
  <!--    <path
       class="spirale"
       transform="matrix(1.119213,0,0,1.0626166,-45.024881,-15.04642)"
       d="m 351.34366,211.78902 c 0.0997,1.4292 -1.87735,0.83953 -2.37544,0.16572 -1.34979,-1.82596 0.24442,-4.20237 2.04399,-4.9166 3.21899,-1.27759 6.5726,1.16102 7.45776,4.2537 1.299,4.53863 -2.07957,8.9841 -6.46341,9.99892 -5.84296,1.35261 -11.41144,-2.99743 -12.54009,-8.67311 -1.42029,-7.14226 3.91466,-13.84662 10.88283,-15.08126 8.43939,-1.4953 16.28628,4.83144 17.62242,13.09254 1.57459,9.73543 -5.74793,18.72873 -15.30225,20.16358 -11.03084,1.65659 -21.17306,-6.66423 -22.70474,-17.51195 -1.74041,-12.32588 7.5804,-23.61869 19.72166,-25.24591 13.62066,-1.8255 26.06528,8.49649 27.78708,21.93138 1.91152,14.91527 -9.41251,28.51257 -24.14109,30.32823"
       id="path4613" />
    <path
       class="spirale"
       transform="matrix(-0.31580835,1.0737331,-1.0194366,-0.29983855,635.52861,-64.716984)"
       d="m 351.34366,211.78902 c 0.0997,1.4292 -1.87735,0.83953 -2.37544,0.16572 -1.34979,-1.82596 0.24442,-4.20237 2.04399,-4.9166 3.21899,-1.27759 6.5726,1.16102 7.45776,4.2537 1.299,4.53863 -2.07957,8.9841 -6.46341,9.99892 -5.84296,1.35261 -11.41144,-2.99743 -12.54009,-8.67311 -1.42029,-7.14226 3.91466,-13.84662 10.88283,-15.08126 8.43939,-1.4953 16.28628,4.83144 17.62242,13.09254 1.57459,9.73543 -5.74793,18.72873 -15.30225,20.16358 -11.03084,1.65659 -21.17306,-6.66423 -22.70474,-17.51195 -1.74041,-12.32588 7.5804,-23.61869 19.72166,-25.24591 13.62066,-1.8255 26.06528,8.49649 27.78708,21.93138 1.91152,14.91527 -9.41251,28.51257 -24.14109,30.32823"
       id="path4613-6"
       style="  animation-direction: reverse;" />
    <path
       class="spirale"
       transform="matrix(1.119213,0,0,1.0626166,-119.1257,92.440713)"
       d="m 351.34366,211.78902 c 0.0997,1.4292 -1.87735,0.83953 -2.37544,0.16572 -1.34979,-1.82596 0.24442,-4.20237 2.04399,-4.9166 3.21899,-1.27759 6.5726,1.16102 7.45776,4.2537 1.299,4.53863 -2.07957,8.9841 -6.46341,9.99892 -5.84296,1.35261 -11.41144,-2.99743 -12.54009,-8.67311 -1.42029,-7.14226 3.91466,-13.84662 10.88283,-15.08126 8.43939,-1.4953 16.28628,4.83144 17.62242,13.09254 1.57459,9.73543 -5.74793,18.72873 -15.30225,20.16358 -11.03084,1.65659 -21.17306,-6.66423 -22.70474,-17.51195 -1.74041,-12.32588 7.5804,-23.61869 19.72166,-25.24591 13.62066,-1.8255 26.06528,8.49649 27.78708,21.93138 1.91152,14.91527 -9.41251,28.51257 -24.14109,30.32823"
       id="path4613-5" />
    <path
       class="spirale"
       transform="matrix(-0.59162248,0.97657763,-0.91401942,-0.50147424,675.78184,156.61474)"
       d="m 351.34366,211.78902 c 0.0997,1.4292 -1.87735,0.83953 -2.37544,0.16572 -1.34979,-1.82596 0.24442,-4.20237 2.04399,-4.9166 3.21899,-1.27759 6.5726,1.16102 7.45776,4.2537 1.299,4.53863 -2.07957,8.9841 -6.46341,9.99892 -5.84296,1.35261 -11.41144,-2.99743 -12.54009,-8.67311 -1.42029,-7.14226 3.91466,-13.84662 10.88283,-15.08126 8.43939,-1.4953 16.28628,4.83144 17.62242,13.09254 1.57459,9.73543 -5.74793,18.72873 -15.30225,20.16358 -11.03084,1.65659 -21.17306,-6.66423 -22.70474,-17.51195 -1.74041,-12.32588 7.5804,-23.61869 19.72166,-25.24591 13.62066,-1.8255 26.06528,8.49649 27.78708,21.93138 1.91152,14.91527 -9.41251,28.51257 -24.14109,30.32823"
       id="path4613-6-7"
       style="animation-direction: reverse;" />
    <path
       class="spirale"
       transform="matrix(-0.59162248,0.97657763,-0.91401942,-0.50147424,697.03029,225.51074)"
       d="m 351.34366,211.78902 c 0.0997,1.4292 -1.87735,0.83953 -2.37544,0.16572 -1.34979,-1.82596 0.24442,-4.20237 2.04399,-4.9166 3.21899,-1.27759 6.5726,1.16102 7.45776,4.2537 1.299,4.53863 -2.07957,8.9841 -6.46341,9.99892 -5.84296,1.35261 -11.41144,-2.99743 -12.54009,-8.67311 -1.42029,-7.14226 3.91466,-13.84662 10.88283,-15.08126 8.43939,-1.4953 16.28628,4.83144 17.62242,13.09254 1.57459,9.73543 -5.74793,18.72873 -15.30225,20.16358 -11.03084,1.65659 -21.17306,-6.66423 -22.70474,-17.51195 -1.74041,-12.32588 7.5804,-23.61869 19.72166,-25.24591 13.62066,-1.8255 26.06528,8.49649 27.78708,21.93138 1.91152,14.91527 -9.41251,28.51257 -24.14109,30.32823"
       id="path4613-6-7-3"
       style="animation-direction: reverse;" />
    <path
       class="spirale"
       transform="matrix(1.119213,0,0,1.0626166,-45.869868,289.26755)"
       d="m 351.34366,211.78902 c 0.0997,1.4292 -1.87735,0.83953 -2.37544,0.16572 -1.34979,-1.82596 0.24442,-4.20237 2.04399,-4.9166 3.21899,-1.27759 6.5726,1.16102 7.45776,4.2537 1.299,4.53863 -2.07957,8.9841 -6.46341,9.99892 -5.84296,1.35261 -11.41144,-2.99743 -12.54009,-8.67311 -1.42029,-7.14226 3.91466,-13.84662 10.88283,-15.08126 8.43939,-1.4953 16.28628,4.83144 17.62242,13.09254 1.57459,9.73543 -5.74793,18.72873 -15.30225,20.16358 -11.03084,1.65659 -21.17306,-6.66423 -22.70474,-17.51195 -1.74041,-12.32588 7.5804,-23.61869 19.72166,-25.24591 13.62066,-1.8255 26.06528,8.49649 27.78708,21.93138 1.91152,14.91527 -9.41251,28.51257 -24.14109,30.32823"
       id="path4613-5-5" />
    <path
       class="spirale"
       transform="matrix(0.2403769,0,0,1.080118,312.28403,-4.8553103)"
       d="m 351.34366,211.78902 c 0.0997,1.4292 -1.87735,0.83953 -2.37544,0.16572 -1.34979,-1.82596 0.24442,-4.20237 2.04399,-4.9166 3.21899,-1.27759 6.5726,1.16102 7.45776,4.2537 1.299,4.53863 -2.07957,8.9841 -6.46341,9.99892 -5.84296,1.35261 -11.41144,-2.99743 -12.54009,-8.67311 -1.42029,-7.14226 3.91466,-13.84662 10.88283,-15.08126 8.43939,-1.4953 16.28628,4.83144 17.62242,13.09254 1.57459,9.73543 -5.74793,18.72873 -15.30225,20.16358 -11.03084,1.65659 -21.17306,-6.66423 -22.70474,-17.51195 -1.74041,-12.32588 7.5804,-23.61869 19.72166,-25.24591 13.62066,-1.8255 26.06528,8.49649 27.78708,21.93138 1.91152,14.91527 -9.41251,28.51257 -24.14109,30.32823"
       id="path4613-62"
       style="animation-direction: reverse;" />
    <path
       class="spirale"
       transform="matrix(0.37897097,0,0,1.1300723,280.39776,112.26458)"
       d="m 351.34366,211.78902 c 0.0997,1.4292 -1.87735,0.83953 -2.37544,0.16572 -1.34979,-1.82596 0.24442,-4.20237 2.04399,-4.9166 3.21899,-1.27759 6.5726,1.16102 7.45776,4.2537 1.299,4.53863 -2.07957,8.9841 -6.46341,9.99892 -5.84296,1.35261 -11.41144,-2.99743 -12.54009,-8.67311 -1.42029,-7.14226 3.91466,-13.84662 10.88283,-15.08126 8.43939,-1.4953 16.28628,4.83144 17.62242,13.09254 1.57459,9.73543 -5.74793,18.72873 -15.30225,20.16358 -11.03084,1.65659 -21.17306,-6.66423 -22.70474,-17.51195 -1.74041,-12.32588 7.5804,-23.61869 19.72166,-25.24591 13.62066,-1.8255 26.06528,8.49649 27.78708,21.93138 1.91152,14.91527 -9.41251,28.51257 -24.14109,30.32823"
       id="path4613-62-9" />
    <path
       class="spirale"
       transform="matrix(-0.11543135,1.0737331,-0.37261506,-0.29983855,529.79492,-28.370333)"
       d="m 351.34366,211.78902 c 0.0997,1.4292 -1.87735,0.83953 -2.37544,0.16572 -1.34979,-1.82596 0.24442,-4.20237 2.04399,-4.9166 3.21899,-1.27759 6.5726,1.16102 7.45776,4.2537 1.299,4.53863 -2.07957,8.9841 -6.46341,9.99892 -5.84296,1.35261 -11.41144,-2.99743 -12.54009,-8.67311 -1.42029,-7.14226 3.91466,-13.84662 10.88283,-15.08126 8.43939,-1.4953 16.28628,4.83144 17.62242,13.09254 1.57459,9.73543 -5.74793,18.72873 -15.30225,20.16358 -11.03084,1.65659 -21.17306,-6.66423 -22.70474,-17.51195 -1.74041,-12.32588 7.5804,-23.61869 19.72166,-25.24591 13.62066,-1.8255 26.06528,8.49649 27.78708,21.93138 1.91152,14.91527 -9.41251,28.51257 -24.14109,30.32823"
       id="path4613-6-1"
       style="" />
    <path
       class="spirale"
       transform="matrix(0.37897097,0,0,1.1300723,278.28213,189.31241)"
       d="m 351.34366,211.78902 c 0.0997,1.4292 -1.87735,0.83953 -2.37544,0.16572 -1.34979,-1.82596 0.24442,-4.20237 2.04399,-4.9166 3.21899,-1.27759 6.5726,1.16102 7.45776,4.2537 1.299,4.53863 -2.07957,8.9841 -6.46341,9.99892 -5.84296,1.35261 -11.41144,-2.99743 -12.54009,-8.67311 -1.42029,-7.14226 3.91466,-13.84662 10.88283,-15.08126 8.43939,-1.4953 16.28628,4.83144 17.62242,13.09254 1.57459,9.73543 -5.74793,18.72873 -15.30225,20.16358 -11.03084,1.65659 -21.17306,-6.66423 -22.70474,-17.51195 -1.74041,-12.32588 7.5804,-23.61869 19.72166,-25.24591 13.62066,-1.8255 26.06528,8.49649 27.78708,21.93138 1.91152,14.91527 -9.41251,28.51257 -24.14109,30.32823"
       id="path4613-62-9-2"
       style="animation-direction: reverse;" />
    <path
       class="spirale"
       transform="matrix(-0.11543135,1.0737331,-0.37261506,-0.29983855,516.83924,180.02461)"
       d="m 351.34366,211.78902 c 0.0997,1.4292 -1.87735,0.83953 -2.37544,0.16572 -1.34979,-1.82596 0.24442,-4.20237 2.04399,-4.9166 3.21899,-1.27759 6.5726,1.16102 7.45776,4.2537 1.299,4.53863 -2.07957,8.9841 -6.46341,9.99892 -5.84296,1.35261 -11.41144,-2.99743 -12.54009,-8.67311 -1.42029,-7.14226 3.91466,-13.84662 10.88283,-15.08126 8.43939,-1.4953 16.28628,4.83144 17.62242,13.09254 1.57459,9.73543 -5.74793,18.72873 -15.30225,20.16358 -11.03084,1.65659 -21.17306,-6.66423 -22.70474,-17.51195 -1.74041,-12.32588 7.5804,-23.61869 19.72166,-25.24591 13.62066,-1.8255 26.06528,8.49649 27.78708,21.93138 1.91152,14.91527 -9.41251,28.51257 -24.14109,30.32823"
       id="path4613-6-1-7"
       style="" /> -->
  <!--  <path
       id="suduction"
       d="m 127.1414,233.08616 c 3.26685,72.21637 105.62825,114.45613 105.62825,114.45613 l 5.44474,-0.90838"
       style="fill:none;stroke:#ffffff;;stroke-width:5.97288513;stroke-linecap:butt;stroke-linejoin:miter;stroke-miterlimit:4;stroke-dasharray:none;stroke-opacity:1" />-->  
  </g>
  <!--  <g
     style="display:inline"
     id="noyau_interne">
    <g
       style="fill:#ffffff;fill-opacity:0.8;stroke:#ffffff;stroke-width:0;stroke-miterlimit:4;stroke-dasharray:none;stroke-opacity:1"
       id="g4575">
      <path
         id="path6068-2-7-8-1"
         d="m 380.10236,489.7024 a 78.52317,116.49629 0 0 1 -68.95985,-57.5812 78.52317,116.49629 0 0 1 -0.15863,-117.39895 78.52317,116.49629 0 0 1 68.80368,-57.99092" />
      <path
         id="path6068-2-7-8-1-4"
         d="m -380.12106,489.05841 a 21.493216,116.55938 0 0 1 -18.87556,-57.61238 21.493216,116.55938 0 0 1 -0.0434,-117.46252 21.493216,116.55938 0 0 1 18.83282,-58.02233"
         transform="scale(-1,1)" />
    </g>
  </g> -->
  <g
     style="display:inline"
     id="noyau_interne">
    <path
       id="path6068-2-7-8-1"
       transform="scale(0.9375)"
       d="M 405.10742 273.84766 A 83.758048 124.26271 0 0 0 331.7168 335.70312 A 83.758048 124.26271 0 0 0 331.88477 460.92969 A 83.758048 124.26271 0 0 0 405.44336 522.34961 L 405.44141 521.29492 A 22.926097 123.66563 0 0 0 423.5957 460.53711 A 22.926097 123.66563 0 0 0 423.64258 335.91406 A 22.926097 123.66563 0 0 0 405.10938 274.60547 L 405.10742 273.84766 z "
       style="display:inline;opacity:1;fill:url(#radialGradient6019);fill-opacity:1;stroke:#82ffff;stroke-width:0;stroke-opacity:1" />
  </g>
 
  <!--  <g
     style="display:inline;fill: none; stroke:#ffffff;stroke-width:1px;stroke-opacity:0.5;"
     id="vertical">
    <path
       id="path4578"
       d="m 383.95722,255.96118 c 1.0162,-230.634722 1.0162,-230.634722 1.0162,-230.634722 v 0" />
         <path
       id="path4578-3"
       d="m 385.49867,696.77912 c 1.01768,-209.41933 1.01768,-209.41933 1.01768,-209.41933 v 0" />
  </g> -->
 <!--   <g
     id="point_chaud">
    <path
       style="fill:#ffffff;fill-opacity:0.2;stroke:#ffffff;stroke-width:1;"
       id="contour_point_chaud"
       d="m 197.38867,104.65234 c -0.25392,0.002 -0.30118,0.0338 -0.42383,0.0606 0.2226,-0.005 0.50935,0.0106 0.96875,0.24023 0.007,0.003 0.0539,0.0875 0.0723,0.10743 h -4.12695 c 0,0.15625 -0.12029,0.59144 0.0117,1.47265 0.0988,0.65968 0.64509,1.4326 1.29688,2.0293 0.0273,0.22549 1.3e-4,0.40566 0.12695,0.68359 0.23081,0.50581 0.72263,0.99316 1.18555,1.22461 0.10484,0.0524 0.16622,0.0224 0.26562,0.0606 0.11702,0.28383 0.20064,0.57563 0.45118,0.82617 0.10238,0.10239 0.23584,0.12177 0.35156,0.19922 0.18389,0.29626 0.29336,0.37345 0.45508,0.51367 0.0757,0.35608 0.16386,0.70207 0.42773,1.04883 -0.004,0.0599 -0.0136,0.0854 -0.0156,0.15234 -0.006,0.19318 -0.0164,0.41458 0.0703,0.80274 0.0867,0.38816 0.32289,1.20639 1.30859,1.69922 0.10484,0.0524 0.16622,0.0224 0.26563,0.0605 0.11702,0.28383 0.20063,0.57564 0.45117,0.82618 0.10595,0.10594 0.2432,0.12773 0.36328,0.20703 0.36053,0.59922 0.71683,0.89277 0.99024,1.08593 0.14939,0.61688 0.58389,1.46878 1.24414,1.79883 0.21176,0.10589 0.45419,0.0689 0.6875,0.13672 -0.0104,0.22355 -0.0217,0.44937 -0.0254,0.66016 -0.003,0.14748 -0.006,0.27616 0.01,0.48828 0.008,0.10606 0.006,0.2153 0.082,0.50391 0.0381,0.1443 0.0731,0.33733 0.30664,0.69726 0.11678,0.17997 0.29278,0.41527 0.6211,0.64649 0.16416,0.1156 0.60265,0.30439 0.60351,0.30468 8.7e-4,3e-4 0.75105,0.125 0.75196,0.125 0.13297,0 0.18392,-0.0488 0.29687,-0.0625 -0.003,-0.003 0.0392,0.0431 0.0352,0.0391 -0.12843,-0.12844 0.10805,0.51986 1.27148,1.10156 0.61064,0.30533 0.74473,0.24244 0.91406,0.26172 0.16934,0.0193 0.29674,0.0239 0.42383,0.0273 0.25419,0.007 0.497,0.001 0.73633,-0.006 0.47866,-0.0139 1.0776,-0.0371 0.96289,-0.0371 0.15121,0 0.61315,-0.005 1.03516,-0.008 0.5556,0.53008 1.3454,0.73646 1.8457,0.74805 -0.0185,0.45905 0.0276,1.10137 0.73633,1.83984 -0.0241,0.3134 -0.0506,0.63457 -0.0586,0.97266 -0.01,0.41345 -0.28801,0.58411 0.31055,1.78125 0.36963,0.73925 0.76463,0.95631 1.07813,1.18164 v 0.42187 3.31445 0.66407 c 0,-0.23883 0.007,-0.19035 -0.0234,0.0859 -0.0301,0.27629 -0.0903,0.90123 0.27148,1.625 0.18025,0.3605 0.31834,0.62745 0.44532,0.85547 0.12698,0.22803 0.11794,0.3425 0.56445,0.80274 0.11163,0.11506 0.25808,0.26931 0.59961,0.45312 0.0226,0.0122 0.0936,-6.9e-4 0.11914,0.0117 -0.009,0.13731 -0.0218,0.26312 -0.0254,0.42188 -0.003,0.13853 -0.007,0.28062 0.0176,0.51367 0.0238,0.22912 -0.22269,0.56592 0.68359,1.49219 v 2.04687 h 1.4082 c 0.3734,0.34697 0.80716,0.40845 1.22071,0.4961 0.17983,0.20717 0.20722,0.35946 0.65625,0.58398 4.4e-4,2.2e-4 0.30553,0.12748 0.39062,0.15234 0.0851,0.0249 0.14329,0.0374 0.18945,0.0469 0.0923,0.019 0.14089,0.026 0.18164,0.0312 0.0815,0.0104 0.1219,0.013 0.15821,0.0156 0.0726,0.005 0.11914,0.006 0.17187,0.008 0.10547,0.004 0.21907,0.006 0.35157,0.008 0.26499,0.004 0.5968,0.006 0.92968,0.006 0.33289,0 0.6647,-0.002 0.92969,-0.006 0.1325,-0.002 0.2461,-0.004 0.35156,-0.008 0.0527,-0.002 0.0993,-0.003 0.17188,-0.008 0.0363,-0.003 0.0767,-0.005 0.1582,-0.0156 0.0408,-0.005 0.0893,-0.0123 0.18164,-0.0312 0.0462,-0.01 0.10435,-0.022 0.18946,-0.0469 0.0851,-0.0249 0.39018,-0.15212 0.39062,-0.15234 h 0.002 c 0.31992,-0.15996 0.29242,-0.25238 0.4668,-0.41602 h 0.47266 6.6289 1.98828 c -0.0522,0 0.71157,0.3312 2.06836,-0.12109 1.0604,-0.35346 1.47071,-0.85007 1.70313,-1.24805 l 0.11133,-0.0273 c 0.62982,-0.15725 0.38784,-0.13246 0.43164,-0.15234 0.0438,-0.0199 0.0757,-0.0337 0.11133,-0.0508 0.0712,-0.0342 0.15126,-0.074 0.25,-0.12304 0.0777,-0.0386 0.20739,-0.1055 0.30468,-0.1543 0.0759,0.36644 0.24552,0.78068 0.6543,1.18945 0.24823,0.24823 0.55505,0.37096 0.85156,0.48438 0.12778,0.29109 0.10781,0.47498 0.47461,0.8418 0.10085,0.10085 0.23187,0.12062 0.3457,0.19726 0.27915,0.45645 0.55118,0.71276 0.72461,0.84375 -0.028,-0.01 0.063,0.40802 0.62696,1.25391 0.10309,0.15463 0.12755,0.12154 0.22265,0.22851 -0.0706,0.21284 -0.19533,0.77921 0.16602,1.86328 0.12723,0.3817 0.3146,0.59474 0.49219,0.81641 -0.0721,0.23837 -0.17887,0.78963 0.16992,1.83594 0.33682,1.01046 0.46048,0.83308 0.59375,0.98633 0.13326,0.15324 0.26089,0.2864 0.40234,0.42968 0.2829,0.28656 0.61052,0.60062 0.93555,0.90821 0.32503,0.30758 0.64617,0.60643 0.8789,0.82812 0.0259,0.0247 0.035,0.034 0.0586,0.0566 -0.004,0.003 -0.0401,-0.0992 0.006,0.14649 0.0747,0.39967 0.17492,1.18399 0.83398,2.00781 1.1904,1.48797 2.32995,1.67177 2.31836,1.66211 0.50287,0.41907 1.06908,1.08276 1.83203,1.8457 0.81916,0.81915 1.47415,1.34183 1.77149,1.73828 1.49617,1.99489 2.645,4.72796 4.66601,7.32422 l -0.34179,-0.99023 c 0.0361,0.006 0.41563,0.0603 0.5625,0.082 -0.0932,0.19167 -0.3503,0.75615 0.19336,1.84375 h 0.002 c 0.58169,1.16339 1.22997,1.39989 1.10156,1.27148 -0.0649,-0.0649 0.44842,0.33357 0.64258,0.55664 0.0852,0.47983 0.25539,1.00344 0.68359,1.43164 0.12318,0.12318 0.28046,0.15274 0.42188,0.24024 0.0876,0.14174 0.11679,0.30038 0.24023,0.42383 0.12301,0.12301 0.28067,0.1528 0.42188,0.24023 0.0874,0.14121 0.11722,0.29887 0.24023,0.42188 0.11523,0.11523 0.34209,0.078 0.5,0.17382 0.17666,0.32021 0.32781,0.47176 0.43946,0.58008 0.46024,0.44656 0.5747,0.43942 0.80273,0.56641 0.22803,0.12699 0.49497,0.26506 0.85547,0.44531 h 0.002 c 1.08313,0.54154 1.7296,0.37891 2.1543,0.26758 0.2271,0.31344 0.43446,0.69379 1.16015,1.05664 0.2632,0.1316 0.51385,0.22922 0.8125,0.32227 l 0.17188,0.17187 0.33984,0.16992 c 0.59761,0.2988 0.81441,0.2553 1.01563,0.27149 0.1916,0.0154 0.33132,0.0147 0.46679,0.0117 0.0975,0.0864 0.21321,0.11532 0.32032,0.18164 0.0874,0.1412 0.11722,0.29886 0.24023,0.42187 0.19858,0.19857 0.44562,0.27698 0.68164,0.38672 0.0325,0.31081 -0.004,0.57472 0.20508,0.99219 0.18024,0.36049 0.31833,0.62939 0.44531,0.85742 0.12698,0.22802 0.11793,0.34054 0.56446,0.80078 0.0723,0.0746 0.24385,0.18989 0.38867,0.29492 0.11221,0.22176 0.17923,0.45657 0.36719,0.64453 0.3464,0.34639 0.7611,0.37336 1.16992,0.47657 0.13415,0.14388 0.28339,0.30353 0.45508,0.49414 0.2155,0.23925 0.43264,0.48227 0.6582,0.71289 0.11278,0.11531 0.22133,0.22539 0.39062,0.36718 0.0847,0.0709 0.1786,0.15124 0.36328,0.26368 0.0497,0.0302 0.27588,0.0551 0.3418,0.0976 0.0124,0.3065 -0.0549,0.5308 0.1582,0.95703 0.17893,0.35787 0.28591,0.34441 0.46485,0.52344 -0.1037,0.46282 -0.10649,0.85275 -0.0762,1.05469 -0.001,0.009 0.002,0.0407 0,0.0508 -0.0522,0.34777 -0.0348,1.27416 0.60351,2.07617 -2.3e-4,0.004 -0.002,0.004 -0.002,0.008 -0.0251,0.42692 -0.11242,1.26222 0.75,2.15624 -0.002,0.26732 -0.007,0.80079 -0.01,1.4629 -3.1e-4,0.0655 2.6e-4,0.11501 0,0.17968 -0.11761,0.12895 -0.3156,0.15478 -0.38476,0.29102 -0.30601,0.60276 -0.26967,0.92645 -0.27539,1.11523 -0.0114,0.37757 0.01,0.44254 0.01,0.64063 0,-0.44198 0.0301,-0.37435 -0.0273,-0.0254 -0.0575,0.34895 -0.14659,1.48633 0.71289,2.3457 0.42796,0.42799 0.95197,0.59629 1.43164,0.68164 0.22341,0.1946 0.62161,0.7095 0.55664,0.64453 -0.1054,-0.10539 0.25328,0.879 0.75977,2.39844 l 1.75,-0.72461 c -0.82571,0.41287 -1.70772,0.85482 -1.70899,0.85547 0,0 0,0.002 0,0.002 6.8e-4,0.001 0.002,0.004 0.004,0.008 0.002,0.005 0.004,0.009 0.008,0.0176 0.0113,0.0225 0.0299,0.0599 0.0742,0.14844 0.31687,0.63374 0.83982,1.28951 1.59375,1.66016 0.28293,0.13909 0.46415,0.0566 0.73438,0.10156 0.0445,0.0545 0.0488,0.12306 0.0996,0.17383 0.37979,0.37979 0.84905,0.43011 1.28321,0.52148 0.18,0.20652 0.20612,0.35696 0.65234,0.58008 0.28189,0.14095 0.43632,0.0852 0.66992,0.13867 0.0229,0.0253 0.0225,0.0596 0.0469,0.084 0.75745,0.75745 1.98278,0.85216 2.58984,0.71484 0.60706,-0.13732 0.94045,-0.34427 1.23828,-0.51953 0.45706,-0.26896 0.69125,-0.43375 0.89258,-0.56445 l 2.57031,0.38281 c 0.22053,-1.48237 0.56227,-2.4682 -0.46679,-3.95508 -0.51454,-0.74344 -1.69145,-1.24273 -2.44532,-1.20898 -0.75386,0.0337 -1.18109,0.26206 -1.5332,0.44336 -0.26668,0.13731 -0.33088,0.20035 -0.5293,0.32617 -0.34672,-0.12055 -0.71183,-0.38853 -0.95898,-0.38672 -0.1349,9.9e-4 -0.14477,0.026 -0.24805,0.0371 -0.10221,-0.0877 -0.10477,-0.12881 -0.24609,-0.2168 -0.078,-0.11707 -0.0977,-0.25198 -0.20117,-0.35547 -0.48573,-0.48573 -1.11115,-0.6452 -1.65821,-0.71094 -0.19368,-0.93005 -0.45937,-2.06875 -1.65625,-3.26562 -0.075,-0.075 -0.0607,-0.0652 -0.11523,-0.12305 0.0426,-0.15031 0.16208,-0.57204 0.16211,-0.57226 3e-5,-2.6e-4 -0.0449,-0.83765 -0.0449,-0.83789 -6e-5,-2.5e-4 -0.31235,-0.72828 -0.3125,-0.72852 -1.3e-4,-2e-4 -0.25393,-0.29754 -0.33985,-0.39844 0.004,-0.71961 0.0117,-1.4354 0.0117,-1.65039 v -0.66211 c 0,0.44198 -0.0301,0.37435 0.0274,0.0254 0.0529,-0.32123 0.0567,-1.30338 -0.60157,-2.1289 1.7e-4,-0.003 -1.6e-4,-0.003 0,-0.006 0.0151,-0.256 -0.0152,-0.67711 -0.16797,-1.15039 0.14009,-0.36446 0.19727,-0.71858 0.19727,-1.04883 0,-0.60849 -0.1072,-1.29071 -0.80469,-1.98828 -0.10239,-0.10238 -0.23584,-0.12177 -0.35156,-0.19922 -0.11605,-0.18696 -0.1739,-0.20367 -0.28711,-0.32422 v -0.36133 l -0.24805,-0.49609 c -0.13429,-0.2686 -0.31952,-0.8445 -0.80859,-1.57813 0.0189,0.0284 -0.0911,-0.20051 -0.38867,-0.57812 -0.25052,-0.31786 -0.8981,-0.81817 -1.76953,-0.99414 -0.10898,-0.11944 -0.21492,-0.23749 -0.32617,-0.35352 -0.0953,-0.0994 -0.36982,-0.26197 -0.44532,-0.35742 -0.0908,-0.46867 -0.26428,-0.97327 -0.67773,-1.38672 -0.1823,-0.1823 -0.47075,-0.35468 -0.73633,-0.52929 -0.0878,-0.48497 -0.15976,-1.03086 -0.58984,-1.46094 l -0.66211,-0.66211 -0.0234,-0.0234 h -0.0176 c -0.11357,-0.10814 -0.25481,-0.13767 -0.38281,-0.2168 -0.0873,-0.14125 -0.11736,-0.29878 -0.24024,-0.42187 -0.1229,-0.12292 -0.28078,-0.15284 -0.42187,-0.24024 -0.0876,-0.14174 -0.11679,-0.30038 -0.24023,-0.42382 -0.96329,-0.96336 -1.29625,-0.68279 -1.5293,-0.70704 -0.23305,-0.0242 -0.37319,-0.0207 -0.51172,-0.0176 -0.23088,0.005 -0.42515,0.0207 -0.61523,0.0351 -2.5e-4,-3e-4 -0.002,3e-4 -0.002,0 -0.069,-0.0834 -0.12042,-0.15186 -0.24414,-0.26953 -0.0404,-0.0385 -0.0593,-0.0709 -0.24219,-0.20508 -0.0457,-0.0335 -0.10353,-0.0743 -0.21093,-0.13671 -0.0537,-0.0312 -0.21853,-0.11123 -0.21875,-0.11133 -2.2e-4,-1e-4 -0.43929,-0.1484 -0.43946,-0.14844 -4e-5,-1e-5 -0.17117,-0.002 -0.28711,-0.002 -0.23819,-0.29438 -0.35524,-0.56825 -0.94921,-0.86524 -0.71541,-0.3577 -1.24507,-0.39882 -1.66407,-0.35937 -0.126,-0.15653 -0.24836,-0.39681 -0.3789,-0.52735 -0.27303,-0.27303 -0.74688,-0.26967 -1.1836,-0.41211 -0.0601,-0.0803 -0.0696,-0.17697 -0.14257,-0.25 -0.12319,-0.12317 -0.28046,-0.15273 -0.42188,-0.24023 -0.0848,-0.13716 -0.11417,-0.28994 -0.23242,-0.41016 -0.0963,-0.45598 -0.27199,-0.94192 -0.66992,-1.33984 -0.3243,-0.32432 -0.70668,-0.33603 -1.09571,-0.44531 -0.0788,-0.0713 -0.0897,-0.0761 -0.23047,-0.2168 -0.1432,-0.1432 -0.14934,-0.15533 -0.2207,-0.23437 -0.10954,-0.38788 -0.12025,-0.76867 -0.44336,-1.0918 -0.0665,-0.0665 -0.196,-0.12318 -0.27148,-0.18946 l -0.19922,-0.25585 c -1.50951,-1.93918 -2.65212,-4.64294 -4.61328,-7.25782 -0.82766,-1.10354 -1.70037,-1.73356 -2.20703,-2.24023 -0.56289,-0.56288 -1.20896,-1.35152 -2.14649,-2.13281 -1.23571,-1.02976 -1.85317,-1.232 -1.6582,-0.98829 0.22254,0.27818 0.17098,0.36709 0.11328,0.0586 -0.0577,-0.30849 -0.10249,-0.96378 -0.59766,-1.78906 -0.22536,-0.3756 -0.26401,-0.36557 -0.32617,-0.4336 -0.0622,-0.068 -0.11303,-0.11869 -0.16601,-0.17187 -0.10597,-0.10637 -0.21962,-0.21602 -0.34961,-0.33985 -0.25999,-0.24765 -0.57751,-0.54537 -0.88867,-0.83984 -0.24924,-0.23586 -0.46457,-0.44727 -0.65821,-0.63867 0.0214,-0.0297 0.0723,0.20966 0.0723,-0.34766 0,0.23883 -0.007,0.18839 0.0234,-0.0879 0.0301,-0.27628 0.0903,-0.89927 -0.27149,-1.62305 -0.20202,-0.40403 -0.30296,-0.35946 -0.49805,-0.54101 0.0402,0.0544 0.082,0.24148 0.082,-0.40039 0,0.23883 -0.007,0.19034 0.0234,-0.0859 0.0301,-0.27628 0.0923,-0.90123 -0.26953,-1.625 -0.31086,-0.62174 -0.64759,-0.83974 -0.84961,-0.99219 0.0265,0.005 -0.0616,-0.40588 -0.62305,-1.24804 -0.21351,-0.32026 -0.30411,-0.33709 -0.46289,-0.47266 -0.0993,-0.41863 -0.13376,-0.85251 -0.49218,-1.21094 -0.17488,-0.17488 -0.39326,-0.23676 -0.59961,-0.34179 0.0924,-0.13581 0.14621,-0.2252 0.24218,-0.36524 0.37584,-0.54837 0.76096,-1.10294 1.07618,-1.62305 0.15761,-0.26005 0.29713,-0.4871 0.44726,-0.85937 0.0751,-0.18614 0.17544,-0.38815 0.20899,-0.87891 0.0168,-0.24538 0.0223,-0.58902 -0.15625,-1.05273 -0.17859,-0.46371 -0.64013,-1.02026 -1.16602,-1.2832 -2.3e-4,-1.2e-4 -0.97418,-0.24804 -0.97461,-0.24805 -4.2e-4,-1e-5 -0.31361,0.0106 -0.40429,0.0234 -0.18137,0.0256 -0.25824,0.05 -0.32227,0.0684 -0.12807,0.0368 -0.17577,0.0575 -0.21875,0.0742 -0.086,0.0334 -0.12544,0.0504 -0.16992,0.0703 -0.089,0.0399 -0.1725,0.0802 -0.27344,0.1289 -0.20188,0.0973 -0.46326,0.22695 -0.77539,0.38282 -0.62425,0.31172 -1.4412,0.72574 -2.25977,1.14062 -0.81856,0.41488 -1.63738,0.83018 -2.25586,1.14258 -0.30923,0.1562 -0.56938,0.28622 -0.74804,0.375 -0.0893,0.0444 -0.16064,0.08 -0.19727,0.0977 -0.004,0.002 -6.5e-4,4.2e-4 -0.004,0.002 -0.26908,0.0429 -0.54004,-0.0778 -0.77735,0.0332 -0.74017,0.34617 -1.12029,0.8447 -1.3457,1.15625 -0.11593,-0.004 0.15894,-0.0547 -0.26563,-0.0547 h -1.98828 -6.6289 -0.66211 c 0.23882,0 0.18839,0.007 -0.0879,-0.0234 -0.27629,-0.0301 -0.89928,-0.0923 -1.62305,0.26953 -0.33379,0.1669 -0.31189,0.26415 -0.48828,0.43359 -0.15393,9.4e-4 -0.28694,0.004 -0.45313,0.004 -0.16619,0 -0.29919,-0.003 -0.45312,-0.004 -0.12259,-0.11775 -0.14492,-0.17908 -0.33985,-0.30078 -0.078,-0.11707 -0.0977,-0.25198 -0.20117,-0.35547 -0.0382,-0.0382 -0.0819,-0.028 -0.12109,-0.0625 -0.0502,-0.24684 0.0347,-0.37789 -0.10352,-0.6543 -0.0719,-0.14385 -0.26715,-0.23153 -0.38476,-0.37304 0.001,-0.0395 0.005,-0.0685 0.006,-0.10938 0.003,-0.14161 0.004,-0.28901 -0.0117,-0.49023 -0.0162,-0.20122 0.0273,-0.41803 -0.27149,-1.01563 -0.22311,-0.44621 -0.37356,-0.47234 -0.58007,-0.65234 -0.0914,-0.43416 -0.14168,-0.9034 -0.52149,-1.2832 -0.15866,-0.15866 -0.43017,-0.30851 -0.64062,-0.46094 v -3.18555 -0.66211 c 0,0.23883 -0.007,0.19035 0.0234,-0.0859 0.0301,-0.27628 0.0923,-0.90122 -0.26953,-1.625 -0.38496,-0.76991 -0.8109,-1.00948 -1.12304,-1.23046 0.0111,-0.19249 0.0205,-0.36811 0.0391,-0.60743 0.0287,-0.36936 0.0607,-0.75223 0.0703,-1.14648 0.005,-0.19713 0.008,-0.39027 -0.0215,-0.66602 -0.027,-0.254 0.0869,-0.6428 -0.61914,-1.43359 0.0283,-0.44339 0.11584,-1.26501 -0.77344,-2.1543 -0.37861,-0.37861 -0.84594,-0.42768 -1.2793,-0.51953 -0.17985,-0.20711 -0.20748,-0.35764 -0.65625,-0.58203 -0.28103,-0.14051 -0.43492,-0.0851 -0.66797,-0.13867 -0.0235,-0.026 -0.0238,-0.0609 -0.0488,-0.0859 -1e-4,-1e-4 -0.47638,-0.36708 -0.47656,-0.36719 -1.7e-4,-1e-4 -0.29467,-0.14443 -0.29492,-0.14453 -4.9e-4,-2e-4 -0.24311,-0.0874 -0.31445,-0.10547 -0.14269,-0.036 -0.20712,-0.0415 -0.25977,-0.0488 -0.10531,-0.0146 -0.14612,-0.0169 -0.18555,-0.0195 -0.0788,-0.005 -0.12535,-0.006 -0.17578,-0.008 -0.10086,-0.003 -0.20424,-0.003 -0.32812,-0.004 -0.24777,-0.001 -0.56037,-0.002 -0.87891,0 -0.63707,0.003 -1.35849,0.01 -1.39453,0.01 -0.36995,0 -0.65056,0.0224 -0.98437,0.0352 -0.006,-0.006 -0.004,-0.004 -0.01,-0.01 -0.14352,-0.14352 -0.14934,-0.15725 -0.2207,-0.23633 -0.10967,-0.38741 -0.12074,-0.76722 -0.44336,-1.08984 -0.1429,-0.1429 -0.41051,-0.22747 -0.62696,-0.34375 0.005,-0.16695 0.15113,-0.21536 -0.25976,-1.03711 -0.24744,-0.49489 -0.42974,-0.99198 -1.24219,-1.52539 -0.3527,-0.23157 -0.80353,-0.29219 -1.22265,-0.32226 -0.30543,-0.34625 -0.62108,-0.7515 -0.80274,-0.87891 -0.0954,-0.39371 -0.13933,-0.78693 -0.46094,-1.13477 -0.0317,-0.205 2.6e-4,-0.357 -0.11132,-0.60156 -0.22968,-0.50334 -0.71875,-0.98595 -1.17969,-1.21875 -0.003,-0.0258 0.002,-0.033 -0.002,-0.0606 -0.0411,-0.31072 -0.0572,-0.83263 -0.7207,-1.49609 -0.10349,-0.10349 -0.2384,-0.12314 -0.35547,-0.20117 -0.18217,-0.29176 -0.29097,-0.36876 -0.45117,-0.50781 -0.0872,-0.41162 -0.15018,-0.84207 -0.49414,-1.21485 -0.0316,-0.20575 8e-4,-0.35975 -0.11133,-0.60547 -0.2308,-0.5058 -0.72263,-0.9912 -1.18554,-1.22265 -0.10411,-0.0521 -0.16493,-0.0226 -0.26368,-0.0606 -0.11702,-0.28429 -0.20218,-0.57718 -0.45312,-0.82813 -0.19025,-0.19025 -0.40921,-0.14941 -0.64258,-0.26171 1.5e-4,-0.0523 0.004,-0.0109 0.004,-0.0684 h -0.17383 c -0.36687,-0.1462 -0.75491,-0.41002 -1.00391,-0.40821 z m 4.48438,5.62891 c -0.006,0.29185 -0.0751,0.43745 -0.0469,0.33008 0.0109,-0.0416 0.0261,-0.23413 0.0469,-0.33008 z m -3.96875,0.51172 c 0.001,-4e-5 0.003,0.002 0.004,0.002 -0.0113,0.0416 -0.0251,0.22304 -0.0449,0.31446 0.005,-0.27338 0.0509,-0.39211 0.041,-0.31641 z m 7.2832,4.79101 c -0.006,0.29199 -0.0751,0.43747 -0.0469,0.33008 0.0109,-0.0416 0.0261,-0.23413 0.0469,-0.33008 z m 4.63867,5.30469 c -0.006,0.29189 -0.0751,0.43745 -0.0469,0.33008 0.0109,-0.0415 0.0261,-0.23419 0.0469,-0.33008 z m 5.65039,0.38477 c 0.0115,-6e-4 0.0405,0.0139 0.0527,0.0137 -0.0125,0.003 -0.0316,0.003 -0.043,0.006 -0.003,-0.007 -0.007,-0.013 -0.01,-0.0195 z m -0.98047,4.83203 c -0.001,0.0503 -0.0115,0.17981 -0.0156,0.25391 -0.0349,-0.15042 0.003,-0.20501 0.0156,-0.25391 z m 7.26368,11.35742 c -0.006,0.29085 -0.075,0.43534 -0.0469,0.32813 0.0108,-0.0413 0.0262,-0.23317 0.0469,-0.32813 z m 16.98437,1.12109 1.30859,0.0488 c -0.48444,-0.16133 -1.08651,-0.0185 -1.66211,0.0723 -0.0124,-0.002 -0.23654,0.0262 0.35352,-0.1211 z m 8.86914,5.50586 c -0.006,0.29189 -0.0751,0.43746 -0.0469,0.33008 0.0109,-0.0415 0.0261,-0.23419 0.0469,-0.33008 z m -25.28906,0.38282 c 0.10737,-0.0282 -0.0382,0.041 -0.33008,0.0469 0.096,-0.0208 0.28853,-0.036 0.33008,-0.0469 z M 260.25,169.23438 c 1.04861,0.15528 3.89507,0.57259 3.89453,0.57617 -0.003,0.017 -0.007,0.0338 -0.01,0.0508 -0.012,0.0679 -0.0249,0.13539 -0.0605,0.24219 -0.0712,0.21359 -0.21462,0.89316 -1.29688,1.2539 -0.18996,0.0633 -0.32408,-0.0231 -0.51562,-0.0176 -0.003,0.0121 0.005,-0.0316 0,-0.0156 -7.2e-4,0.002 -0.003,0.0132 -0.004,0.0156 -0.35242,0.01 -0.74394,0.0548 -0.94922,-0.0332 -0.31763,-0.13613 -0.4255,-0.25949 -0.45312,-0.28711 -0.4595,-0.45953 -0.63532,-1.19078 -0.63281,-1.5332 0.002,-0.21435 0.014,-0.20278 0.0273,-0.25195 z m 4.59961,0.70898 c -0.006,0.29197 -0.075,0.43746 -0.0469,0.33008 0.0109,-0.0416 0.0261,-0.23414 0.0469,-0.33008 z m 10.48828,7.06836 c 0,0 0.16592,1.1475 0.33203,2.29492 -0.0648,0.0556 -0.18355,0.061 -0.23633,0.11914 -0.28024,0.30894 -0.3779,0.54575 -0.46875,0.77344 -0.15129,-0.003 -0.37919,-0.16382 -0.59961,-0.22266 -0.0297,-0.13441 -0.17053,-0.32039 -0.16992,-0.40429 0.002,-0.28842 0.0386,-0.31614 0.0156,-0.22852 -0.009,0.0333 -0.0476,0.19717 -0.0781,0.27539 -0.006,2.3e-4 0.0226,0.003 -0.043,-0.004 -0.0462,-0.005 -0.15161,0.018 -0.26953,0.0176 -0.10146,-0.33791 -0.19871,-0.79253 -0.0449,-1.2539 0.36076,-1.08229 1.04226,-1.22568 1.25586,-1.29688 0.1068,-0.0356 0.17425,-0.0486 0.24219,-0.0606 0.017,-0.003 0.0336,-0.005 0.0508,-0.008 0.004,-6.4e-4 0.009,-0.001 0.0137,-0.002 z m -1.20703,2.61133 c -0.027,0.0693 -0.0411,0.13892 -0.0684,0.24218 -0.0902,-0.038 -0.14836,-0.0365 -0.23633,-0.0879 -0.0121,-0.0317 0.005,-0.0987 -0.006,-0.13476 0.1267,-0.009 0.25584,-0.0175 0.31055,-0.0195 z m 1.64062,0.38281 c 0.0607,0.41929 0.0977,0.67345 0.13282,0.91602 -0.0501,0.008 0.004,0.006 -0.082,0.0137 -0.15355,0.0131 -0.51004,-0.21916 -0.8086,-0.30078 0.003,-0.005 0.001,-0.005 0.004,-0.01 0.0957,-0.1813 0.49011,-0.38911 0.7539,-0.61914 z m -1.26171,0.32031 c 0.087,0.003 0.21654,0.0389 0.2832,0.0332 0.0546,-0.005 0.0373,-0.0117 0.084,-0.0176 -0.0282,0.089 -0.0406,0.14673 -0.0527,0.22265 -0.0966,-0.0354 -0.15808,-0.0437 -0.25391,-0.0937 -0.026,-0.0544 -0.0393,-0.0902 -0.0605,-0.14453 z m 1.39648,0.60352 c 0.0202,0.1399 0.0702,0.49184 0.0762,0.5332 l -0.46094,-0.19141 -0.63671,-0.26367 c 0.004,-0.0151 0.0128,-0.0345 0.0176,-0.0508 0.19704,0.0274 0.42264,0.0775 0.55274,0.0664 0.29283,-0.025 0.34857,-0.0607 0.45117,-0.0937 z m -1.13867,0.01 c 0.003,5.7e-4 0.005,0.001 0.008,0.002 -2.1e-4,0.004 -0.002,0.0102 -0.002,0.0137 -0.005,-0.005 -0.001,-0.0109 -0.006,-0.0156 z m 3.9043,3.97071 c 0.10735,-0.0282 -0.0383,0.041 -0.33008,0.0469 0.0959,-0.0208 0.28853,-0.036 0.33008,-0.0469 z m 1.43945,2.10351 c -0.0109,0.0416 -0.0261,0.23413 -0.0469,0.33008 0.006,-0.29199 0.0751,-0.43747 0.0469,-0.33008 z m 6.61328,11.43555 c -0.006,0.29188 -0.075,0.43745 -0.0469,0.33008 0.0109,-0.0415 0.0261,-0.23419 0.0469,-0.33008 z m 2.26562,7.71484 c 0.003,0.007 0.007,0.013 0.01,0.0195 -0.0111,5.8e-4 -0.039,-0.0139 -0.0508,-0.0137 0.0119,-0.003 0.0301,-0.003 0.041,-0.006 z" />
    <path
       class="point_chaud"
       id="path4902-2"
       d="m 197.38867,104.65234 c -0.25392,0.002 -0.30118,0.0338 -0.42383,0.0606 0.2226,-0.005 0.50935,0.0106 0.96875,0.24023 0.007,0.003 0.0539,0.0875 0.0723,0.10743 h -4.12695 c 0,0.15625 -0.12029,0.59144 0.0117,1.47265 0.0988,0.65968 0.64509,1.4326 1.29688,2.0293 0.0273,0.22549 1.3e-4,0.40566 0.12695,0.68359 0.23081,0.50581 0.72263,0.99316 1.18555,1.22461 0.10484,0.0524 0.16622,0.0224 0.26562,0.0606 0.11702,0.28383 0.20064,0.57563 0.45118,0.82617 0.10238,0.10239 0.23584,0.12177 0.35156,0.19922 0.18389,0.29626 0.29336,0.37345 0.45508,0.51367 0.0757,0.35608 0.16386,0.70207 0.42773,1.04883 -0.004,0.0599 -0.0136,0.0854 -0.0156,0.15234 -0.006,0.19318 -0.0164,0.41458 0.0703,0.80274 0.0867,0.38816 0.32289,1.20639 1.30859,1.69922 0.10484,0.0524 0.16622,0.0224 0.26563,0.0605 0.11702,0.28383 0.20063,0.57564 0.45117,0.82618 0.10595,0.10594 0.2432,0.12773 0.36328,0.20703 0.36053,0.59922 0.71683,0.89277 0.99024,1.08593 0.14939,0.61688 0.58389,1.46878 1.24414,1.79883 0.21176,0.10589 0.45419,0.0689 0.6875,0.13672 -0.0104,0.22355 -0.0217,0.44937 -0.0254,0.66016 -0.003,0.14748 -0.006,0.27616 0.01,0.48828 0.008,0.10606 0.006,0.2153 0.082,0.50391 0.0381,0.1443 0.0731,0.33733 0.30664,0.69726 0.11678,0.17997 0.29278,0.41527 0.6211,0.64649 0.16416,0.1156 0.60265,0.30439 0.60351,0.30468 8.7e-4,3e-4 0.75105,0.125 0.75196,0.125 0.13297,0 0.18392,-0.0488 0.29687,-0.0625 -0.003,-0.003 0.0392,0.0431 0.0352,0.0391 -0.12843,-0.12844 0.10805,0.51986 1.27148,1.10156 0.61064,0.30533 0.74473,0.24244 0.91406,0.26172 0.16934,0.0193 0.29674,0.0239 0.42383,0.0273 0.25419,0.007 0.497,0.001 0.73633,-0.006 0.47866,-0.0139 1.0776,-0.0371 0.96289,-0.0371 0.15121,0 0.61315,-0.005 1.03516,-0.008 0.5556,0.53008 1.3454,0.73646 1.8457,0.74805 -0.0185,0.45905 0.0276,1.10137 0.73633,1.83984 -0.0241,0.3134 -0.0506,0.63457 -0.0586,0.97266 -0.01,0.41345 -0.28801,0.58411 0.31055,1.78125 0.36963,0.73925 0.76463,0.95631 1.07813,1.18164 v 0.42187 3.31445 0.66407 c 0,-0.23883 0.007,-0.19035 -0.0234,0.0859 -0.0301,0.27629 -0.0903,0.90123 0.27148,1.625 0.18025,0.3605 0.31834,0.62745 0.44532,0.85547 0.12698,0.22803 0.11794,0.3425 0.56445,0.80274 0.11163,0.11506 0.25808,0.26931 0.59961,0.45312 0.0226,0.0122 0.0936,-6.9e-4 0.11914,0.0117 -0.009,0.13731 -0.0218,0.26312 -0.0254,0.42188 -0.003,0.13853 -0.007,0.28062 0.0176,0.51367 0.0238,0.22912 -0.22269,0.56592 0.68359,1.49219 v 2.04687 h 1.4082 c 0.3734,0.34697 0.80716,0.40845 1.22071,0.4961 0.17983,0.20717 0.20722,0.35946 0.65625,0.58398 4.4e-4,2.2e-4 0.30553,0.12748 0.39062,0.15234 0.0851,0.0249 0.14329,0.0374 0.18945,0.0469 0.0923,0.019 0.14089,0.026 0.18164,0.0312 0.0815,0.0104 0.1219,0.013 0.15821,0.0156 0.0726,0.005 0.11914,0.006 0.17187,0.008 0.10547,0.004 0.21907,0.006 0.35157,0.008 0.26499,0.004 0.5968,0.006 0.92968,0.006 0.33289,0 0.6647,-0.002 0.92969,-0.006 0.1325,-0.002 0.2461,-0.004 0.35156,-0.008 0.0527,-0.002 0.0993,-0.003 0.17188,-0.008 0.0363,-0.003 0.0767,-0.005 0.1582,-0.0156 0.0408,-0.005 0.0893,-0.0123 0.18164,-0.0312 0.0462,-0.01 0.10435,-0.022 0.18946,-0.0469 0.0851,-0.0249 0.39018,-0.15212 0.39062,-0.15234 h 0.002 c 0.31992,-0.15996 0.29242,-0.25238 0.4668,-0.41602 h 0.47266 6.6289 1.98828 c -0.0522,0 0.71157,0.3312 2.06836,-0.12109 1.0604,-0.35346 1.47071,-0.85007 1.70313,-1.24805 l 0.11133,-0.0273 c 0.62982,-0.15725 0.38784,-0.13246 0.43164,-0.15234 0.0438,-0.0199 0.0757,-0.0337 0.11133,-0.0508 0.0712,-0.0342 0.15126,-0.074 0.25,-0.12304 0.0777,-0.0386 0.20739,-0.1055 0.30468,-0.1543 0.0759,0.36644 0.24552,0.78068 0.6543,1.18945 0.24823,0.24823 0.55505,0.37096 0.85156,0.48438 0.12778,0.29109 0.10781,0.47498 0.47461,0.8418 0.10085,0.10085 0.23187,0.12062 0.3457,0.19726 0.27915,0.45645 0.55118,0.71276 0.72461,0.84375 -0.028,-0.01 0.063,0.40802 0.62696,1.25391 0.10309,0.15463 0.12755,0.12154 0.22265,0.22851 -0.0706,0.21284 -0.19533,0.77921 0.16602,1.86328 0.12723,0.3817 0.3146,0.59474 0.49219,0.81641 -0.0721,0.23837 -0.17887,0.78963 0.16992,1.83594 0.33682,1.01046 0.46048,0.83308 0.59375,0.98633 0.13326,0.15324 0.26089,0.2864 0.40234,0.42968 0.2829,0.28656 0.61052,0.60062 0.93555,0.90821 0.32503,0.30758 0.64617,0.60643 0.8789,0.82812 0.0259,0.0247 0.035,0.034 0.0586,0.0566 -0.004,0.003 -0.0401,-0.0992 0.006,0.14649 0.0747,0.39967 0.17492,1.18399 0.83398,2.00781 1.1904,1.48797 2.32995,1.67177 2.31836,1.66211 0.50287,0.41907 1.06908,1.08276 1.83203,1.8457 0.81916,0.81915 1.47415,1.34183 1.77149,1.73828 1.49617,1.99489 2.645,4.72796 4.66601,7.32422 l -0.34179,-0.99023 c 0.0361,0.006 0.41563,0.0603 0.5625,0.082 -0.0932,0.19167 -0.3503,0.75615 0.19336,1.84375 h 0.002 c 0.58169,1.16339 1.22997,1.39989 1.10156,1.27148 -0.0649,-0.0649 0.44842,0.33357 0.64258,0.55664 0.0852,0.47983 0.25539,1.00344 0.68359,1.43164 0.12318,0.12318 0.28046,0.15274 0.42188,0.24024 0.0876,0.14174 0.11679,0.30038 0.24023,0.42383 0.12301,0.12301 0.28067,0.1528 0.42188,0.24023 0.0874,0.14121 0.11722,0.29887 0.24023,0.42188 0.11523,0.11523 0.34209,0.078 0.5,0.17382 0.17666,0.32021 0.32781,0.47176 0.43946,0.58008 0.46024,0.44656 0.5747,0.43942 0.80273,0.56641 0.22803,0.12699 0.49497,0.26506 0.85547,0.44531 h 0.002 c 1.08313,0.54154 1.7296,0.37891 2.1543,0.26758 0.2271,0.31344 0.43446,0.69379 1.16015,1.05664 0.2632,0.1316 0.51385,0.22922 0.8125,0.32227 l 0.17188,0.17187 0.33984,0.16992 c 0.59761,0.2988 0.81441,0.2553 1.01563,0.27149 0.1916,0.0154 0.33132,0.0147 0.46679,0.0117 0.0975,0.0864 0.21321,0.11532 0.32032,0.18164 0.0874,0.1412 0.11722,0.29886 0.24023,0.42187 0.19858,0.19857 0.44562,0.27698 0.68164,0.38672 0.0325,0.31081 -0.004,0.57472 0.20508,0.99219 0.18024,0.36049 0.31833,0.62939 0.44531,0.85742 0.12698,0.22802 0.11793,0.34054 0.56446,0.80078 0.0723,0.0746 0.24385,0.18989 0.38867,0.29492 0.11221,0.22176 0.17923,0.45657 0.36719,0.64453 0.3464,0.34639 0.7611,0.37336 1.16992,0.47657 0.13415,0.14388 0.28339,0.30353 0.45508,0.49414 0.2155,0.23925 0.43264,0.48227 0.6582,0.71289 0.11278,0.11531 0.22133,0.22539 0.39062,0.36718 0.0847,0.0709 0.1786,0.15124 0.36328,0.26368 0.0497,0.0302 0.27588,0.0551 0.3418,0.0976 0.0124,0.3065 -0.0549,0.5308 0.1582,0.95703 0.17893,0.35787 0.28591,0.34441 0.46485,0.52344 -0.1037,0.46282 -0.10649,0.85275 -0.0762,1.05469 -0.001,0.009 0.002,0.0407 0,0.0508 -0.0522,0.34777 -0.0348,1.27416 0.60351,2.07617 -2.3e-4,0.004 -0.002,0.004 -0.002,0.008 -0.0251,0.42692 -0.11242,1.26222 0.75,2.15624 -0.002,0.26732 -0.007,0.80079 -0.01,1.4629 -3.1e-4,0.0655 2.6e-4,0.11501 0,0.17968 -0.11761,0.12895 -0.3156,0.15478 -0.38476,0.29102 -0.30601,0.60276 -0.26967,0.92645 -0.27539,1.11523 -0.0114,0.37757 0.01,0.44254 0.01,0.64063 0,-0.44198 0.0301,-0.37435 -0.0273,-0.0254 -0.0575,0.34895 -0.14659,1.48633 0.71289,2.3457 0.42796,0.42799 0.95197,0.59629 1.43164,0.68164 0.22341,0.1946 0.62161,0.7095 0.55664,0.64453 -0.1054,-0.10539 0.25328,0.879 0.75977,2.39844 l 1.75,-0.72461 c -0.82571,0.41287 -1.70772,0.85482 -1.70899,0.85547 0,0 0,0.002 0,0.002 6.8e-4,0.001 0.002,0.004 0.004,0.008 0.002,0.005 0.004,0.009 0.008,0.0176 0.0113,0.0225 0.0299,0.0599 0.0742,0.14844 0.31687,0.63374 0.83982,1.28951 1.59375,1.66016 0.28293,0.13909 0.46415,0.0566 0.73438,0.10156 0.0445,0.0545 0.0488,0.12306 0.0996,0.17383 0.37979,0.37979 0.84905,0.43011 1.28321,0.52148 0.18,0.20652 0.20612,0.35696 0.65234,0.58008 0.28189,0.14095 0.43632,0.0852 0.66992,0.13867 0.0229,0.0253 0.0225,0.0596 0.0469,0.084 0.75745,0.75745 1.98278,0.85216 2.58984,0.71484 0.60706,-0.13732 0.94045,-0.34427 1.23828,-0.51953 0.45706,-0.26896 0.69125,-0.43375 0.89258,-0.56445 l 2.57031,0.38281 c 0.22053,-1.48237 0.56227,-2.4682 -0.46679,-3.95508 -0.51454,-0.74344 -1.69145,-1.24273 -2.44532,-1.20898 -0.75386,0.0337 -1.18109,0.26206 -1.5332,0.44336 -0.26668,0.13731 -0.33088,0.20035 -0.5293,0.32617 -0.34672,-0.12055 -0.71183,-0.38853 -0.95898,-0.38672 -0.1349,9.9e-4 -0.14477,0.026 -0.24805,0.0371 -0.10221,-0.0877 -0.10477,-0.12881 -0.24609,-0.2168 -0.078,-0.11707 -0.0977,-0.25198 -0.20117,-0.35547 -0.48573,-0.48573 -1.11115,-0.6452 -1.65821,-0.71094 -0.19368,-0.93005 -0.45937,-2.06875 -1.65625,-3.26562 -0.075,-0.075 -0.0607,-0.0652 -0.11523,-0.12305 0.0426,-0.15031 0.16208,-0.57204 0.16211,-0.57226 3e-5,-2.6e-4 -0.0449,-0.83765 -0.0449,-0.83789 -6e-5,-2.5e-4 -0.31235,-0.72828 -0.3125,-0.72852 -1.3e-4,-2e-4 -0.25393,-0.29754 -0.33985,-0.39844 0.004,-0.71961 0.0117,-1.4354 0.0117,-1.65039 v -0.66211 c 0,0.44198 -0.0301,0.37435 0.0274,0.0254 0.0529,-0.32123 0.0567,-1.30338 -0.60157,-2.1289 1.7e-4,-0.003 -1.6e-4,-0.003 0,-0.006 0.0151,-0.256 -0.0152,-0.67711 -0.16797,-1.15039 0.14009,-0.36446 0.19727,-0.71858 0.19727,-1.04883 0,-0.60849 -0.1072,-1.29071 -0.80469,-1.98828 -0.10239,-0.10238 -0.23584,-0.12177 -0.35156,-0.19922 -0.11605,-0.18696 -0.1739,-0.20367 -0.28711,-0.32422 v -0.36133 l -0.24805,-0.49609 c -0.13429,-0.2686" />
           </g> -->
</svg>
