<?xml version="1.0" encoding="UTF-8" standalone="no"?>
<svg
   xmlns:dc="http://purl.org/dc/elements/1.1/"
   xmlns:cc="http://creativecommons.org/ns#"
   xmlns:rdf="http://www.w3.org/1999/02/22-rdf-syntax-ns#"
   xmlns:svg="http://www.w3.org/2000/svg"
   xmlns="http://www.w3.org/2000/svg"
   xmlns:xlink="http://www.w3.org/1999/xlink"
   version="1.1"
   id="svg5520"
   viewBox="0 0 744.09448819 1052.3622047"
   height="297mm"
   width="210mm">
  <defs
     id="defs5522">
    <linearGradient
       id="linearGradient6017">
      <stop
         id="stop6013"
         offset="0"
         style="stop-color:#000000;stop-opacity:1;" />
      <stop
         id="stop6015"
         offset="1"
         style="stop-color:#000000;stop-opacity:0;" />
    </linearGradient>
    <radialGradient
       gradientUnits="userSpaceOnUse"
       gradientTransform="matrix(4.163324,-0.41458902,0.27334673,2.7449618,-1136.6071,-558.61496)"
       r="53.373405"
       fy="395.332"
       fx="325.71191"
       cy="395.332"
       cx="325.71191"
       id="radialGradient6019"
       xlink:href="#linearGradient6017" />
  </defs>
  <metadata
     id="metadata5525">
    <rdf:RDF>
      <cc:Work
         rdf:about="">
        <dc:format>image/svg+xml</dc:format>
        <dc:type
           rdf:resource="http://purl.org/dc/dcmitype/StillImage" />
        <dc:title></dc:title>
      </cc:Work>
    </rdf:RDF>
  </metadata>
  <g
     style="display:inline"
     id="layer1" />
  <g
     style="display:inline"
     id="layer11" />
  <g
     style="display:inline"
     id="layer12" />
  <g
     style="display:inline"
     id="layer13" />
  <g
     style="display:inline"
     id="layer14">
    <path
       id="path6068-2-7-8-1"
       transform="scale(0.9375)"
       d="M 405.10742 273.84766 A 83.758048 124.26271 0 0 0 331.7168 335.70312 A 83.758048 124.26271 0 0 0 331.88477 460.92969 A 83.758048 124.26271 0 0 0 405.44336 522.34961 L 405.44141 521.29492 A 22.926097 123.66563 0 0 0 423.5957 460.53711 A 22.926097 123.66563 0 0 0 423.64258 335.91406 A 22.926097 123.66563 0 0 0 405.10938 274.60547 L 405.10742 273.84766 z "
       style="display:inline;opacity:1;fill:url(#radialGradient6019);fill-opacity:1;stroke:#82ffff;stroke-width:0.39346537;stroke-opacity:1" />
  </g>
  <g
     style="display:inline"
     id="layer15">
    <path
       id="path6272"
       d="m 78,81.362204 c 0,0 -0.5,0 -0.5,0 0,2 0.5,8 0.5,10 0,-2 0.5,-8 0.5,-10 0,0 -0.5,0 -0.5,0 z"
       style="fill:#000000;fill-rule:evenodd;stroke:none;stroke-width:1px;stroke-linecap:butt;stroke-linejoin:miter;stroke-opacity:1" />
  </g>
</svg>
