<?xml version="1.0" encoding="UTF-8" standalone="no"?>
<svg
   xmlns:dc="http://purl.org/dc/elements/1.1/"
   xmlns:cc="http://creativecommons.org/ns#"
   xmlns:rdf="http://www.w3.org/1999/02/22-rdf-syntax-ns#"
   xmlns:svg="http://www.w3.org/2000/svg"
   xmlns="http://www.w3.org/2000/svg"
   xmlns:xlink="http://www.w3.org/1999/xlink"
   version="1.1"
   id="svg2"
   viewBox="0 0 2409.4488 2409.4488"
   height="680mm"
   width="680mm">
   <style>
   /*<![CDATA[*/
   path.dash{
     "display:inline;
	 opacity:1;
	 fill:none;
	 fill-opacity:0;
	 stroke:#ffffff;
	 stroke-width:6;
	 stroke-miterlimit:4;
	 stroke-dasharray:20, 50;
	 stroke-dashoffset:0;
	 stroke-opacity:1 ;

   }
   path.dash:nth-child(4),
   path.dash:nth-child(5),
path.dash:nth-child(3)   {
   animation: dash 5s linear infinite;
   }
   path.dash:nth-child(1) {
   animation: dash 10s ease alternate infinite;
   }
    path.dash:nth-child(2),
path.dash:nth-child(7)	{
   animation: dash 8s ease alternate infinite;
   }
    path.dash:nth-child(6) {
   animation: dash 6s ease alternate infinite;
   }
  
  
   @keyframes dash {
  to {
    stroke-dashoffset: 1000;
  }
   /*]]>*/
   </style>
  <defs
     id="defs4">
    <linearGradient
       id="linearGradient5014">
      <stop
         id="stop5010"
         offset="0"
         style="stop-color:#ffffff;stop-opacity:1;" />
      <stop
         id="stop5012"
         offset="1"
         style="stop-color:#ffffff;stop-opacity:0;" />
    </linearGradient>
    <linearGradient
       id="linearGradient5006">
      <stop
         id="stop5002"
         offset="0"
         style="stop-color:#ffffff;stop-opacity:1;" />
      <stop
         id="stop5004"
         offset="1"
         style="stop-color:#ffffff;stop-opacity:0;" />
    </linearGradient>
    <linearGradient
       gradientUnits="userSpaceOnUse"
       y2="1834.6876"
       x2="1119.249"
       y1="1046.7687"
       x1="2375.8789"
       id="linearGradient5008"
       xlink:href="#linearGradient5006" />
    <radialGradient
       gradientUnits="userSpaceOnUse"
       gradientTransform="matrix(-3.5369409,0.0392202,-0.09822585,-8.8595682,5424.5586,11867.879)"
       r="168.65271"
       fy="1209.8817"
       fx="1234.4778"
       cy="1209.8817"
       cx="1234.4778"
       id="radialGradient5016"
       xlink:href="#linearGradient5014" />
  </defs>
  <metadata
     id="metadata7">
    <rdf:RDF>
      <cc:Work
         rdf:about="">
        <dc:format>image/svg+xml</dc:format>
        <dc:type
           rdf:resource="http://purl.org/dc/dcmitype/StillImage" />
        <dc:title></dc:title>
      </cc:Work>
    </rdf:RDF>
  </metadata>
  <g
     style="display:inline"
     id="layer1"
     transform="translate(4.0405704,1361.1272)">
    <path
       transform="matrix(0.93749995,0,0,0.93749995,-4.0405704,-1361.1272)"
       id="path4136-1-3-6-82-9-9-2"
       d="M 1235.6738 5.21875 C 1179.0715 5.21875 1122.5021 9.9361313 1066.6523 19.128906 C 1069.2153 19.105955 1071.7786 19.070312 1074.3418 19.070312 C 1213.0092 19.070312 1350.981 58.699375 1476.4746 121.79688 C 1601.9682 184.89437 1710.422 262.66808 1808.4746 381.48242 C 1906.5273 500.29676 1988.829 642.24835 2042.0254 796.73047 C 2095.2217 951.21259 2117.2617 1116.3403 2117.2617 1284.3691 C 2117.2617 1452.398 2097.0305 1611.5537 2044.9746 1763.8379 C 1992.9187 1916.1221 1901.2226 2061.5802 1803.1699 2180.3945 C 1705.1173 2299.2089 1586.7407 2400.3388 1463.5332 2463.877 C 1383.3193 2505.2433 1301.7801 2531.4857 1216.377 2544.7715 C 1223.1607 2544.9012 1229.9518 2544.9883 1236.7539 2544.9883 C 1388.0431 2544.9883 1525.8689 2517.0663 1660.291 2453.4395 C 1794.7132 2389.8126 1923.8642 2288.5388 2030.8418 2169.5586 C 2137.8194 2050.5784 2237.8621 1904.9186 2294.6562 1752.4219 C 2351.4504 1599.9251 2373.5234 1440.5485 2373.5234 1272.2852 C 2373.5234 1104.0218 2349.4759 938.66062 2291.4375 783.96289 C 2233.3991 629.26516 2143.6065 487.11689 2036.6289 368.13672 C 1929.6513 249.15655 1811.3245 171.27346 1674.4082 108.08789 C 1537.4919 44.902326 1386.963 5.21875 1235.6738 5.21875 z "
       style="display:inline;opacity:0.98000004;fill:url(#linearGradient5008);fill-opacity:1;stroke:none;stroke-width:11.595;stroke-miterlimit:4;stroke-dasharray:none;stroke-dashoffset:0;stroke-opacity:1" />
  </g>

  <g
     style="display:inline"
     id="layer6">
    <path
       class="dash"
	   d="m 1829.0444,1235.4588 c 0,141.0445 -16.3647,274.641 -58.4699,402.4693 -42.1051,127.8283 -116.273,249.9256 -195.5825,349.6591 -79.3094,99.7335 -175.057,184.6235 -274.7129,237.9579 -99.6559,53.3343 -201.8357,76.7408 -313.9962,76.7408 -112.1605,0 -221.04112,-26.8944 -323.03803,-80.2496 -101.9969,-53.3551 -201.74875,-135.7651 -281.0582,-235.4986 -79.30945,-99.7335 -144.69656,-209.1368 -185.64204,-336.3166 -40.94549,-127.1798 -50.51179,-269.3843 -50.51179,-410.4288 0,-141.0445 20.30826,-279.71465 60.67902,-408.23091 C 247.08263,703.04514 305.73,583.6959 385.03945,483.9624 464.3489,384.22891 557.14336,306.98834 659.24066,254.28686 c 102.09731,-52.70149 214.08111,-80.92874 326.24161,-80.92874 112.16053,0 223.75803,33.26483 325.26303,86.22926 101.5049,52.96443 189.2273,118.24871 268.5367,217.9822 79.3095,99.73349 145.8791,218.88781 188.9067,348.56106 43.0276,129.67325 60.8557,268.28366 60.8557,409.32816 z"
      id="path4136-1-3-6-82-9"
       transform="matrix(1.0828936,0,0,1.0619743,-71.359289,-102.32528)" />
    <path
       transform="matrix(0.99996163,0,0,1.0142044,0.03785423,-32.73476)"
       d="m 1829.0444,1235.4588 c 0,141.0445 -16.3647,274.641 -58.4699,402.4693 -42.1051,127.8283 -116.273,249.9256 -195.5825,349.6591 -79.3094,99.7335 -175.057,184.6235 -274.7129,237.9579 -99.6559,53.3343 -201.8357,76.7408 -313.9962,76.7408 -112.1605,0 -221.04112,-26.8944 -323.03803,-80.2496 -101.9969,-53.3551 -201.74875,-135.7651 -281.0582,-235.4986 -79.30945,-99.7335 -144.69656,-209.1368 -185.64204,-336.3166 -40.94549,-127.1798 -50.51179,-269.3843 -50.51179,-410.4288 0,-141.0445 20.30826,-279.71465 60.67902,-408.23091 C 247.08263,703.04514 305.73,583.6959 385.03945,483.9624 464.3489,384.22891 557.14336,306.98834 659.24066,254.28686 c 102.09731,-52.70149 214.08111,-80.92874 326.24161,-80.92874 112.16053,0 223.75803,33.26483 325.26303,86.22926 101.5049,52.96443 189.2273,118.24871 268.5367,217.9822 79.3095,99.73349 145.8791,218.88781 188.9067,348.56106 43.0276,129.67325 60.8557,268.28366 60.8557,409.32816 z"
       class="dash"
	   id="path4136-1-3-6-82" />
    <ellipse
       style="display:inline;opacity:0.98000004;fill:none;fill-opacity:0;stroke:#ffffff;stroke-width:4.68749975;stroke-miterlimit:4;stroke-dasharray:none;stroke-opacity:1"
       id="path4136-1-3-6"
       ry="1020.3741"
       rx="762.78503"
       cy="1214.2645"
       cx="984.58453" />
    <path
       transform="matrix(0.84095749,0,0,0.89557804,162.39659,113.32197)"
       d="m 1829.0444,1235.4588 c 0,141.0445 -16.3647,274.641 -58.4699,402.4693 -42.1051,127.8283 -116.273,249.9256 -195.5825,349.6591 -79.3094,99.7335 -175.057,184.6235 -274.7129,237.9579 -99.6559,53.3343 -201.8357,76.7408 -313.9962,76.7408 -112.1605,0 -221.04112,-26.8944 -323.03803,-80.2496 -101.9969,-53.3551 -201.74875,-135.7651 -281.0582,-235.4986 -79.30945,-99.7335 -144.69656,-209.1368 -185.64204,-336.3166 -40.94549,-127.1798 -50.51179,-269.3843 -50.51179,-410.4288 0,-141.0445 20.30826,-279.71465 60.67902,-408.23091 C 247.08263,703.04514 305.73,583.6959 385.03945,483.9624 464.3489,384.22891 557.14336,306.98834 659.24066,254.28686 c 102.09731,-52.70149 214.08111,-80.92874 326.24161,-80.92874 112.16053,0 223.75803,33.26483 325.26303,86.22926 101.5049,52.96443 189.2273,118.24871 268.5367,217.9822 79.3095,99.73349 145.8791,218.88781 188.9067,348.56106 43.0276,129.67325 60.8557,268.28366 60.8557,409.32816 z"
       class="dash"
	   id="path4136-1-3-6-82-2" />
    <path
       transform="matrix(0.75807299,0,0,0.82653533,234.37829,198.78454)"
       d="m 1829.0444,1235.4588 c 0,141.0445 -16.3647,274.641 -58.4699,402.4693 -42.1051,127.8283 -116.273,249.9256 -195.5825,349.6591 -79.3094,99.7335 -175.057,184.6235 -274.7129,237.9579 -99.6559,53.3343 -201.8357,76.7408 -313.9962,76.7408 -112.1605,0 -221.04112,-26.8944 -323.03803,-80.2496 -101.9969,-53.3551 -201.74875,-135.7651 -281.0582,-235.4986 -79.30945,-99.7335 -144.69656,-209.1368 -185.64204,-336.3166 -40.94549,-127.1798 -50.51179,-269.3843 -50.51179,-410.4288 0,-141.0445 20.30826,-279.71465 60.67902,-408.23091 C 247.08263,703.04514 305.73,583.6959 385.03945,483.9624 464.3489,384.22891 557.14336,306.98834 659.24066,254.28686 c 102.09731,-52.70149 214.08111,-80.92874 326.24161,-80.92874 112.16053,0 223.75803,33.26483 325.26303,86.22926 101.5049,52.96443 189.2273,118.24871 268.5367,217.9822 79.3095,99.73349 145.8791,218.88781 188.9067,348.56106 43.0276,129.67325 60.8557,268.28366 60.8557,409.32816 z"
      class="dash"
	  id="path4136-1-3-6-82-2-9" />
    <path
       transform="matrix(0.66401503,0,0,0.74153328,317.79401,309.68399)"
       d="m 1829.0444,1235.4588 c 0,141.0445 -16.3647,274.641 -58.4699,402.4693 -42.1051,127.8283 -116.273,249.9256 -195.5825,349.6591 -79.3094,99.7335 -175.057,184.6235 -274.7129,237.9579 -99.6559,53.3343 -201.8357,76.7408 -313.9962,76.7408 -112.1605,0 -221.04112,-26.8944 -323.03803,-80.2496 -101.9969,-53.3551 -201.74875,-135.7651 -281.0582,-235.4986 -79.30945,-99.7335 -144.69656,-209.1368 -185.64204,-336.3166 -40.94549,-127.1798 -50.51179,-269.3843 -50.51179,-410.4288 0,-141.0445 20.30826,-279.71465 60.67902,-408.23091 C 247.08263,703.04514 305.73,583.6959 385.03945,483.9624 464.3489,384.22891 557.14336,306.98834 659.24066,254.28686 c 102.09731,-52.70149 214.08111,-80.92874 326.24161,-80.92874 112.16053,0 223.75803,33.26483 325.26303,86.22926 101.5049,52.96443 189.2273,118.24871 268.5367,217.9822 79.3095,99.73349 145.8791,218.88781 188.9067,348.56106 43.0276,129.67325 60.8557,268.28366 60.8557,409.32816 z"
      class="dash" id="path4136-1-3-6-82-2-9-9" />
    <path
       transform="matrix(0.59237219,0,0,0.66536336,392.33214,398.28677)"
       d="m 1829.0444,1235.4588 c 0,141.0445 -16.3647,274.641 -58.4699,402.4693 -42.1051,127.8283 -116.273,249.9256 -195.5825,349.6591 -79.3094,99.7335 -175.057,184.6235 -274.7129,237.9579 -99.6559,53.3343 -201.8357,76.7408 -313.9962,76.7408 -112.1605,0 -221.04112,-26.8944 -323.03803,-80.2496 -101.9969,-53.3551 -201.74875,-135.7651 -281.0582,-235.4986 -79.30945,-99.7335 -144.69656,-209.1368 -185.64204,-336.3166 -40.94549,-127.1798 -50.51179,-269.3843 -50.51179,-410.4288 0,-141.0445 20.30826,-279.71465 60.67902,-408.23091 C 247.08263,703.04514 305.73,583.6959 385.03945,483.9624 464.3489,384.22891 557.14336,306.98834 659.24066,254.28686 c 102.09731,-52.70149 214.08111,-80.92874 326.24161,-80.92874 112.16053,0 223.75803,33.26483 325.26303,86.22926 101.5049,52.96443 189.2273,118.24871 268.5367,217.9822 79.3095,99.73349 145.8791,218.88781 188.9067,348.56106 43.0276,129.67325 60.8557,268.28366 60.8557,409.32816 z"
      class="dash" id="path4136-1-3-6-82-2-9-9-9" />
    <path
       d="m 1829.0444,1235.4588 c 0,141.0445 -16.3647,274.641 -58.4699,402.4693 -42.1051,127.8283 -116.273,249.9256 -195.5825,349.6591 -79.3094,99.7335 -175.057,184.6235 -274.7129,237.9579 -99.6559,53.3343 -201.8357,76.7408 -313.9962,76.7408 -112.1605,0 -221.04112,-26.8944 -323.03803,-80.2496 -101.9969,-53.3551 -201.74875,-135.7651 -281.0582,-235.4986 -79.30945,-99.7335 -144.69656,-209.1368 -185.64204,-336.3166 -40.94549,-127.1798 -50.51179,-269.3843 -50.51179,-410.4288 0,-141.0445 20.30826,-279.71465 60.67902,-408.23091 C 247.08263,703.04514 305.73,583.6959 385.03945,483.9624 464.3489,384.22891 557.14336,306.98834 659.24066,254.28686 c 102.09731,-52.70149 214.08111,-80.92874 326.24161,-80.92874 112.16053,0 223.75803,33.26483 325.26303,86.22926 101.5049,52.96443 189.2273,118.24871 268.5367,217.9822 79.3095,99.73349 145.8791,218.88781 188.9067,348.56106 43.0276,129.67325 60.8557,268.28366 60.8557,409.32816 z"
       style="display:inline;opacity:0.98000004;fill:none;fill-opacity:1;stroke:#ffffff;stroke-width:9.1404562;stroke-miterlimit:4;stroke-dasharray:none;stroke-dashoffset:0;stroke-opacity:1"
       id="path4136-1-3-6-82-9-9-9"
       transform="matrix(1.1590594,0,0,1.1168609,-128.08014,-185.20929)" />
  </g>
  <g
     style="display:inline"
     id="layer5">
    <ellipse
       style="display:inline;opacity:1;fill:#0000ff;fill-opacity:0;stroke:#ffffff;stroke-width:5.20593722;stroke-miterlimit:4;stroke-dasharray:none;stroke-opacity:1"
       id="path4136-1-3-6-9"
       ry="653.82532"
       rx="446.23532"
       cy="1236.3113"
       cx="970.04803" />
    <path
       transform="matrix(0.45130926,0,0,0.54495852,522.16702,560.58476)"
       d="m 1829.0444,1235.4588 c 0,141.0445 -16.3647,274.641 -58.4699,402.4693 -42.1051,127.8283 -116.273,249.9256 -195.5825,349.6591 -79.3094,99.7335 -175.057,184.6235 -274.7129,237.9579 -99.6559,53.3343 -201.8357,76.7408 -313.9962,76.7408 -112.1605,0 -221.04112,-26.8944 -323.03803,-80.2496 -101.9969,-53.3551 -201.74875,-135.7651 -281.0582,-235.4986 -79.30945,-99.7335 -144.69656,-209.1368 -185.64204,-336.3166 -40.94549,-127.1798 -50.51179,-269.3843 -50.51179,-410.4288 0,-141.0445 20.30826,-279.71465 60.67902,-408.23091 C 247.08263,703.04514 305.73,583.6959 385.03945,483.9624 464.3489,384.22891 557.14336,306.98834 659.24066,254.28686 c 102.09731,-52.70149 214.08111,-80.92874 326.24161,-80.92874 112.16053,0 223.75803,33.26483 325.26303,86.22926 101.5049,52.96443 189.2273,118.24871 268.5367,217.9822 79.3095,99.73349 145.8791,218.88781 188.9067,348.56106 43.0276,129.67325 60.8557,268.28366 60.8557,409.32816 z"
      class="dash" id="path4136-1-3-6-82-2-9-9-9-9" />
    <path
       transform="matrix(0.36620758,0,0,0.46705161,608.10229,645.65543)"
       d="m 1829.0444,1235.4588 c 0,141.0445 -16.3647,274.641 -58.4699,402.4693 -42.1051,127.8283 -116.273,249.9256 -195.5825,349.6591 -79.3094,99.7335 -175.057,184.6235 -274.7129,237.9579 -99.6559,53.3343 -201.8357,76.7408 -313.9962,76.7408 -112.1605,0 -221.04112,-26.8944 -323.03803,-80.2496 -101.9969,-53.3551 -201.74875,-135.7651 -281.0582,-235.4986 -79.30945,-99.7335 -144.69656,-209.1368 -185.64204,-336.3166 -40.94549,-127.1798 -50.51179,-269.3843 -50.51179,-410.4288 0,-141.0445 20.30826,-279.71465 60.67902,-408.23091 C 247.08263,703.04514 305.73,583.6959 385.03945,483.9624 464.3489,384.22891 557.14336,306.98834 659.24066,254.28686 c 102.09731,-52.70149 214.08111,-80.92874 326.24161,-80.92874 112.16053,0 223.75803,33.26483 325.26303,86.22926 101.5049,52.96443 189.2273,118.24871 268.5367,217.9822 79.3095,99.73349 145.8791,218.88781 188.9067,348.56106 43.0276,129.67325 60.8557,268.28366 60.8557,409.32816 z"
      class="dash" id="path4136-1-3-6-82-2-9-9-9-9-9" />
    <path
       transform="matrix(0.27894402,0,0,0.36443022,692.3844,780.25856)"
       d="m 1829.0444,1235.4588 c 0,141.0445 -16.3647,274.641 -58.4699,402.4693 -42.1051,127.8283 -116.273,249.9256 -195.5825,349.6591 -79.3094,99.7335 -175.057,184.6235 -274.7129,237.9579 -99.6559,53.3343 -201.8357,76.7408 -313.9962,76.7408 -112.1605,0 -221.04112,-26.8944 -323.03803,-80.2496 -101.9969,-53.3551 -201.74875,-135.7651 -281.0582,-235.4986 -79.30945,-99.7335 -144.69656,-209.1368 -185.64204,-336.3166 -40.94549,-127.1798 -50.51179,-269.3843 -50.51179,-410.4288 0,-141.0445 20.30826,-279.71465 60.67902,-408.23091 C 247.08263,703.04514 305.73,583.6959 385.03945,483.9624 464.3489,384.22891 557.14336,306.98834 659.24066,254.28686 c 102.09731,-52.70149 214.08111,-80.92874 326.24161,-80.92874 112.16053,0 223.75803,33.26483 325.26303,86.22926 101.5049,52.96443 189.2273,118.24871 268.5367,217.9822 79.3095,99.73349 145.8791,218.88781 188.9067,348.56106 43.0276,129.67325 60.8557,268.28366 60.8557,409.32816 z"
       class="dash" id="path4136-1-3-6-82-2-9-9-9-9-9-9" />
  </g>
  <g
     style="display:inline"
     id="layer3">
    <ellipse
       style="display:inline;opacity:0.98999999;fill:url(#radialGradient5016);fill-opacity:1;stroke:#dadada;stroke-width:0.27297583;stroke-opacity:1"
       id="path4136-1-3-6-7-3"
       ry="280.69"
       rx="168.51622"
       cy="1217.6744"
       cx="967.85236" />
  </g>
</svg>
