<svg id="shema_gouvernance" version="1.2" baseProfile="tiny" width="228mm" height="138mm" viewBox="0 0 22800 13800" preserveAspectRatio="xMidYMid" fill-rule="evenodd" stroke-width="28.222" stroke-linejoin="round" xmlns="http://www.w3.org/2000/svg" xmlns:xlink="http://www.w3.org/1999/xlink" xml:space="preserve"><style>#shema_gouvernance a text:hover{fill:#000;stroke:#000;text-decoration:underline;transform:translateY(-50px);font-weight:600}</style><defs class="EmbeddedBulletChars"><path d="M580 1141l583-570L580 0-4 571l584 570z" transform="scale(.00049 -.00049)" id="bullet-char-template(57356)"/><path d="M8 1128h1129V0H8v1128z" transform="scale(.00049 -.00049)" id="bullet-char-template(57354)"/><path d="M174 0l428 739-428 742 1282-742L174 0zm1184 739L309 1346l350-607h699z" transform="scale(.00049 -.00049)" id="bullet-char-template(10146)"/><path d="M2015 739L1276 0H717l543 543H174v393h1086l-543 545h557l741-742z" transform="scale(.00049 -.00049)" id="bullet-char-template(10132)"/><path d="M0-2c-7 16-16 29-25 39l381 530c-94 256-141 385-141 387 0 25 13 38 40 38 9 0 21-2 34-5 21 4 42 12 65 25l27-13 111-251 280 301 64-25 24 25c21-10 41-24 62-43-36-69-87-143-152-222-1-1-60-68-176-200l180-361c0-27-21-55-63-84l16-20c-10-29-28-43-55-43-31 0-102 102-215 305L164-76c-22-34-53-51-92-51-42 0-63 17-64 51C1-67-2-52-2-32c0 9 1 19 2 30z" transform="scale(.00049 -.00049)" id="bullet-char-template(10007)"/><path d="M285-33C182-33 111 30 74 156c-22 72-33 177-33 315 0 78 14 145 41 201 34 71 87 106 158 106 53 0 88-31 106-94l23-176c8-64 28-97 59-98l735 706c11 11 33 17 66 17 42 0 63-15 63-46V965c0-36-10-64-30-84L442 47C390-6 338-33 285-33z" transform="scale(.00049 -.00049)" id="bullet-char-template(10004)"/><path d="M813 0C632 0 489 54 383 161 276 268 223 411 223 592s53 324 160 431c106 107 249 161 430 161 179 0 323-54 432-161 108-107 162-251 162-431s-54-324-162-431C1136 54 992 0 813 0z" transform="scale(.00049 -.00049)" id="bullet-char-template(9679)"/><path d="M346 457c-73 0-137 26-191 78-54 51-81 114-81 188 0 73 27 136 81 188s118 78 191 78 134-26 185-79c51-51 77-114 77-187 0-75-25-137-76-188-50-52-112-78-186-78z" transform="scale(.00049 -.00049)" id="bullet-char-template(8226)"/><path d="M-4 459h1139v147H-4V459z" transform="scale(.00049 -.00049)" id="bullet-char-template(8211)"/></defs><g class="SlideGroup"><g id="id1" class="Slide"><g class="Page"><g id="id3"><path fill="#FFF3F4" d="M969 500c-235 0-469 234-469 469v11862c0 235 234 470 469 470h9662c235 0 470-235 470-470V969c0-235-235-469-470-469H969zm-469 0zm10601 12801z"/><path fill="none" stroke="#8C020A" d="M969 500c-235 0-469 234-469 469v11862c0 235 234 470 469 470h9662c235 0 470-235 470-470V969c0-235-235-469-470-469H969z"/><path fill="none" stroke="#FFD1C1" d="M500 500h0zM11101 13301h0z"/></g><text class="TextShape" id="id4"><tspan class="TextParagraph" font-family="Liberation Serif, serif" font-size="540" font-style="italic" font-weight="700"><tspan class="TextPosition" x="1002" y="1392"><tspan>Décision</tspan></tspan></tspan></text><g id="id5"><path fill="#FFD1C1" d="M1011 1600c-156 0-311 155-311 311v4778c0 156 155 312 311 312h9578c156 0 312-156 312-312V1911c0-156-156-311-312-311H1011zm-311 0zm10201 5401z"/><path fill="none" stroke="#FFD1C1" d="M1011 1600c-156 0-311 155-311 311v4778c0 156 155 312 311 312h9578c156 0 312-156 312-312V1911c0-156-156-311-312-311H1011zM700 1600h0zM10901 7001h0z"/></g><a xlink:href="https://www.poleterresolide.fr/teams/formater-comite-de-mise-en-place/" xlink:title="Composition du CMP" id="id6"><text class="TextShape"><tspan class="TextParagraph" font-family="Helvetica, Arial, sans-serif" font-size="540" font-weight="700"><tspan class="TextPosition" x="1500" y="2322"><tspan>Comité de mise en place (CMP)</tspan></tspan></tspan></text></a><a target="_blank" xlink:href="http://www.ign.fr/" xlink:title="Institut National de l'Information Géographique et Forestière" id="id7"><text class="TextShape"><tspan class="TextParagraph" font-family="Helvetica, Arial, sans-serif" font-size="460" font-weight="400"><tspan class="TextPosition" x="950" y="4204"><tspan>IGN</tspan></tspan></tspan></text></a><text class="TextShape" id="id8"><tspan class="TextParagraph" font-family="Helvetica, Arial, sans-serif" font-size="460" font-style="italic" font-weight="400"><tspan class="TextPosition" x="750" y="3154"><tspan>Partenaires représentés</tspan></tspan></tspan></text><a target="_blank" xlink:href="http://www.cea.fr/" xlink:title="Commissariat à l'Energie Atomique" id="id9"><text class="TextShape"><tspan class="TextParagraph" font-family="Helvetica, Arial, sans-serif" font-size="460" font-weight="400"><tspan class="TextPosition" x="950" y="5104"><tspan>CEA</tspan></tspan></tspan></text></a><a target="_blank" xlink:href="http://www.ird.fr/" xlink:title="Institut de Recherche pour le Développement" id="id10"><text class="TextShape"><tspan class="TextParagraph" font-family="Helvetica, Arial, sans-serif" font-size="460" font-weight="400"><tspan class="TextPosition" x="950" y="6004"><tspan>IRD</tspan></tspan></tspan></text></a><a target="_blank" xlink:href="http://www.brgm.fr/" xlink:title="Bureau de Recherche Géologiques et Minières" id="id11"><text class="TextShape"><tspan class="TextParagraph" font-family="Helvetica, Arial, sans-serif" font-size="460" font-weight="400"><tspan class="TextPosition" x="2550" y="4204"><tspan>BRGM</tspan></tspan></tspan></text></a><a target="_blank" xlink:href="http://www.ipgp.fr" xlink:title="Institut de Physique du Globe" id="id12"><text class="TextShape"><tspan class="TextParagraph" font-family="Helvetica, Arial, sans-serif" font-size="460" font-weight="400"><tspan class="TextPosition" x="2550" y="5104"><tspan>IPGP</tspan></tspan></tspan></text></a><a target="_blank" xlink:href="http://www.shom.fr/" xlink:title="Service Hydrographique et Océanographique de la Marine" id="id13"><text class="TextShape"><tspan class="TextParagraph" font-family="Helvetica, Arial, sans-serif" font-size="460" font-weight="400"><tspan class="TextPosition" x="2550" y="6004"><tspan>SHOM</tspan></tspan></tspan></text></a><a target="_blank" xlink:href="https://cnes.fr/fr" xlink:title="Centre National d'Etudes Spatiales" id="id14"><text class="TextShape"><tspan class="TextParagraph" font-family="Helvetica, Arial, sans-serif" font-size="460" font-weight="400"><tspan class="TextPosition" x="4450" y="4204"><tspan>CNES</tspan></tspan></tspan></text></a><a target="_blank" xlink:href="http://www.insu.cnrs.fr/" xlink:title="Institut National des Sciences de l'Univers" id="id15"><text class="TextShape"><tspan class="TextParagraph" font-family="Helvetica, Arial, sans-serif" font-size="460" font-weight="400"><tspan class="TextPosition" x="4450" y="5104"><tspan>INSU</tspan></tspan></tspan></text></a><a target="_blank" xlink:href="http://www.resif.fr/" xlink:title="Réseau Sismologiques et géologiques français" id="id16"><text class="TextShape"><tspan class="TextParagraph" font-family="Helvetica, Arial, sans-serif" font-size="460" font-weight="400"><tspan class="TextPosition" x="4450" y="6004"><tspan>RESIF</tspan></tspan></tspan></text></a><a target="_blank" xlink:href="http://www.obs-mip.fr/" xlink:title="Observatoire Midi-Pyrénées" id="id17"><text class="TextShape"><tspan class="TextParagraph" font-family="Helvetica, Arial, sans-serif" font-size="460" font-weight="400"><tspan class="TextPosition" x="6550" y="4204"><tspan>Obs. Midi-Pyr.</tspan></tspan></tspan></text></a><a target="_blank" xlink:href="https://www.oca.eu/" xlink:title="Observatoire Côte d'Azur" id="id18"><text class="TextShape"><tspan class="TextParagraph" font-family="Helvetica, Arial, sans-serif" font-size="460" font-weight="400"><tspan class="TextPosition" x="6550" y="5104"><tspan>Obs. Côte d&apos;Azur</tspan></tspan></tspan></text></a><a target="_blank" xlink:href="https://www.obspm.fr/" xlink:title="Observatoire de Paris" id="id19"><text class="TextShape"><tspan class="TextParagraph" font-family="Helvetica, Arial, sans-serif" font-size="460" font-weight="400"><tspan class="TextPosition" x="6550" y="6004"><tspan>Obs. Paris</tspan></tspan></tspan></text></a><g id="id20"><path fill="#FFD1C1" d="M1011 7301c-156 0-311 155-311 311v4778c0 156 155 312 311 312h9577c156 0 312-156 312-312V7612c0-156-156-311-312-311H1011zm-311 0zm10200 5401z"/><path fill="none" stroke="#FFD1C1" d="M1011 7301c-156 0-311 155-311 311v4778c0 156 155 312 311 312h9577c156 0 312-156 312-312V7612c0-156-156-311-312-311H1011zM700 7301h0zM10900 12702h0z"/></g><a xlink:href="https://www.poleterresolide.fr/teams/formater-comite-scientifique/" xlink:title="Composition du Comité Scientifique" id="id21"><text class="TextShape"><tspan class="TextParagraph" font-family="Helvetica, Arial, sans-serif" font-size="540" font-weight="700"><tspan class="TextPosition" x="2377" y="8072"><tspan>Comité scientifique (CS)</tspan></tspan></tspan></text></a><text class="TextShape" id="id22"><tspan class="TextParagraph" font-family="Helvetica, Arial, sans-serif" font-size="460" font-style="italic" font-weight="400"><tspan class="TextPosition" x="750" y="8754"><tspan>Représentants</tspan></tspan></tspan></text><a target="_blank" xlink:href="http://www.legos.obs-mip.fr/" xlink:title="Laboratoire d'Etudes en Géophysique et Océanographie Spatiales" id="id23"><text class="TextShape"><tspan class="TextParagraph" font-family="Helvetica, Arial, sans-serif" font-size="460" font-weight="400"><tspan class="TextPosition" x="950" y="9604"><tspan>LEGOS</tspan></tspan></tspan></text></a><a target="_blank" xlink:href="https://eost.unistra.fr/" xlink:title="Ecole et Observatoire des Sciences de la Terre" id="id24"><text class="TextShape"><tspan class="TextParagraph" font-family="Helvetica, Arial, sans-serif" font-size="460" font-weight="400"><tspan class="TextPosition" x="950" y="10504"><tspan>EOST</tspan></tspan></tspan></text></a><a target="_blank" xlink:href="https://www.cls.fr/" xlink:title="Collecte Localisation Satellites" id="id25"><text class="TextShape"><tspan class="TextParagraph" font-family="Helvetica, Arial, sans-serif" font-size="460" font-weight="400"><tspan class="TextPosition" x="950" y="11404"><tspan>CLS</tspan></tspan></tspan></text></a><a target="_blank" xlink:href="http://recherche.ign.fr/labos/lareg/page.php" xlink:title="Laboratoire de Recherche en Géodésie" id="id26"><text class="TextShape"><tspan class="TextParagraph" font-family="Helvetica, Arial, sans-serif" font-size="460" font-weight="400"><tspan class="TextPosition" x="950" y="12304"><tspan>LAREG</tspan></tspan></tspan></text></a><a target="_blank" xlink:href="https://cnes.fr/fr" xlink:title="Centre National d'Etudes Spatiales" id="id27"><text class="TextShape"><tspan class="TextParagraph" font-family="Helvetica, Arial, sans-serif" font-size="460" font-weight="400"><tspan class="TextPosition" x="2850" y="9604"><tspan>CNES</tspan></tspan></tspan></text></a><a target="_blank" xlink:href="https://isterre.fr/" xlink:title="Institut des Sciences de la Terre" id="id28"><text class="TextShape"><tspan class="TextParagraph" font-family="Helvetica, Arial, sans-serif" font-size="460" font-weight="400"><tspan class="TextPosition" x="2850" y="10504"><tspan>ISTerre</tspan></tspan></tspan></text></a><a target="_blank" xlink:href="http://www.cerege.fr/" xlink:title="Centre Européen de Recherche et d'Enseignement des géosciences de l'Environnement" id="id29"><text class="TextShape"><tspan class="TextParagraph" font-family="Helvetica, Arial, sans-serif" font-size="460" font-weight="400"><tspan class="TextPosition" x="2850" y="11404"><tspan>CEREGE</tspan></tspan></tspan></text></a><a target="_blank" xlink:href="http://www.ipgp.fr/" xlink:title="Institut de Physique du Globe de Paris" id="id30"><text class="TextShape"><tspan class="TextParagraph" font-family="Helvetica, Arial, sans-serif" font-size="460" font-weight="400"><tspan class="TextPosition" x="2850" y="12304"><tspan>IPGP</tspan></tspan></tspan></text></a><a target="_blank" xlink:href="http://www.gm.univ-montp2.fr/" xlink:title="Géosciences Montpellier" id="id31"><text class="TextShape"><tspan class="TextParagraph" font-family="Helvetica, Arial, sans-serif" font-size="460" font-weight="400"><tspan class="TextPosition" x="5050" y="10504"><tspan>GM</tspan></tspan></tspan></text></a><a target="_blank" xlink:href="http://wwwobs.univ-bpclermont.fr/opgc/index.php" xlink:title="Observatoire de Physique du Globe de Clermont-ferrand" id="id32"><text class="TextShape"><tspan class="TextParagraph" font-family="Helvetica, Arial, sans-serif" font-size="460" font-weight="400"><tspan class="TextPosition" x="5050" y="11404"><tspan>OPGC</tspan></tspan></tspan></text></a><a target="_blank" xlink:href="http://int.polytech.univ-smb.fr/index.php?id=listic-accueil" xlink:title="Laboratoire d'Informatique, Systèmes, Traitement de l'Information et de la Connaissance" id="id33"><text class="TextShape"><tspan class="TextParagraph" font-family="Helvetica, Arial, sans-serif" font-size="460" font-weight="400"><tspan class="TextPosition" x="5050" y="12304"><tspan>LISTIC</tspan></tspan></tspan></text></a><a target="_blank" xlink:href="http://geops.geol.u-psud.fr/" xlink:title="Géosciences Paris Sud" id="id34"><text class="TextShape"><tspan class="TextParagraph" font-family="Helvetica, Arial, sans-serif" font-size="460" font-weight="400"><tspan class="TextPosition" x="6750" y="10504"><tspan>GEOPS</tspan></tspan></tspan></text></a><a target="_blank" xlink:href="https://lpg-umr6112.fr/" xlink:title="Laboratoire de Planétologie et Geodynamique" id="id35"><text class="TextShape"><tspan class="TextParagraph" font-family="Helvetica, Arial, sans-serif" font-size="460" font-weight="400"><tspan class="TextPosition" x="6750" y="11404"><tspan>LPG</tspan></tspan></tspan></text></a><a target="_blank" xlink:href="http://lienss.univ-larochelle.fr/" xlink:title="LIttoral ENvironnement et Sociétés" id="id36"><text class="TextShape"><tspan class="TextParagraph" font-family="Helvetica, Arial, sans-serif" font-size="460" font-weight="400"><tspan class="TextPosition" x="6750" y="12304"><tspan>LIENSs</tspan></tspan></tspan></text></a><a target="_blank" xlink:href="https://geoazur.oca.eu/" xlink:title="GeoAzur" id="id37"><text class="TextShape"><tspan class="TextParagraph" font-family="Helvetica, Arial, sans-serif" font-size="460" font-weight="400"><tspan class="TextPosition" x="8650" y="10504"><tspan>GeoAzur</tspan></tspan></tspan></text></a><a target="_blank" xlink:href="http://lgltpe.ens-lyon.fr/" xlink:title="Laboratoire de Géologie de Lyon Terre Planère Environnement" id="id38"><text class="TextShape"><tspan class="TextParagraph" font-family="Helvetica, Arial, sans-serif" font-size="460" font-weight="400"><tspan class="TextPosition" x="8650" y="11404"><tspan>LGLTPE</tspan></tspan></tspan></text></a><a target="_blank" xlink:href="https://www-iuem.univ-brest.fr/lgo/" xlink:title="Laboratoire Géosciences Océan" id="id39"><text class="TextShape"><tspan class="TextParagraph" font-family="Helvetica, Arial, sans-serif" font-size="460" font-weight="400"><tspan class="TextPosition" x="8650" y="12304"><tspan>LGO</tspan></tspan></tspan></text></a><g id="id40"><path fill="#FFF0DD" d="M12070 501c-235 0-469 234-469 469v11862c0 235 234 470 469 470h9662c235 0 470-235 470-470V970c0-235-235-469-470-469h-9662zm-469 0zm10601 12801z"/><path fill="none" stroke="#AC6C1E" d="M12070 501c-235 0-469 234-469 469v11862c0 235 234 470 469 470h9662c235 0 470-235 470-470V970c0-235-235-469-470-469h-9662z"/><path fill="none" stroke="#FC9" d="M11601 501h0zM22202 13302h0z"/></g><g id="id41"><path fill="#FFF0DD" d="M13427 1663h-1574V701h3148v962h-1574z"/><text class="TextShape"><tspan class="TextParagraph" font-family="Liberation Serif, serif" font-size="540" font-style="italic" font-weight="700"><tspan class="TextPosition" x="12103" y="1393"><tspan>Exécutif</tspan></tspan></tspan></text></g><g id="id42"><path fill="#FC9" d="M12112 1601c-156 0-311 155-311 311v4778c0 156 155 312 311 312h9578c156 0 312-156 312-312V1912c0-156-156-311-312-311h-9578zm-311 0zm10201 5401z"/><path fill="none" stroke="#FC9" d="M12112 1601c-156 0-311 155-311 311v4778c0 156 155 312 311 312h9578c156 0 312-156 312-312V1912c0-156-156-311-312-311h-9578zM11801 1601h0zM22002 7002h0z"/></g><a xlink:href="https://www.poleterresolide.fr/teams/formater-equipe-executive/" xlink:title="Composition de l'équipe exécutive" id="id43"><text class="TextShape"><tspan class="TextParagraph" font-family="Helvetica, Arial, sans-serif" font-size="540" font-weight="700"><tspan class="TextPosition" x="14333" y="2323"><tspan>É</tspan><tspan>quipe exécutive</tspan></tspan></tspan></text></a><g id="id44"><path fill="#FC9" d="M12112 7302c-156 0-311 155-311 311v4778c0 156 155 312 311 312h9577c156 0 312-156 312-312V7613c0-156-156-311-312-311h-9577zm-311 0zm10200 5401z"/><path fill="none" stroke="#FC9" d="M12112 7302c-156 0-311 155-311 311v4778c0 156 155 312 311 312h9577c156 0 312-156 312-312V7613c0-156-156-311-312-311h-9577zM11801 7302h0zM22001 12703h0z"/></g><text class="TextShape" id="id45"><tspan class="TextParagraph" font-family="Helvetica, Arial, sans-serif" font-size="540" font-weight="700"><tspan class="TextPosition" x="12390" y="8073"><tspan>É</tspan><tspan>quipes techniques et scientifiques</tspan></tspan></tspan></text><text class="TextShape" id="id46"><tspan class="TextParagraph" font-family="Helvetica, Arial, sans-serif" font-size="460" font-weight="400"><tspan class="TextPosition" x="12550" y="4205"><tspan>Directeur</tspan></tspan></tspan></text><text class="TextShape" id="id47"><tspan class="TextParagraph" font-family="Helvetica, Arial, sans-serif" font-size="460" font-weight="400"><tspan class="TextPosition" x="16050" y="4205"><tspan>Co-directeur</tspan></tspan></tspan></text><text class="TextShape" id="id48"><tspan class="TextParagraph" font-family="Helvetica, Arial, sans-serif" font-size="460" font-weight="400"><tspan class="TextPosition" x="12550" y="5105"><tspan>Adjointe</tspan></tspan></tspan></text><text class="TextShape" id="id49"><tspan class="TextParagraph" font-family="Helvetica, Arial, sans-serif" font-size="460" font-weight="400"><tspan class="TextPosition" x="16050" y="5105"><tspan>Chef de projet technique</tspan></tspan></tspan></text><text class="TextShape" id="id50"><tspan class="TextParagraph" font-family="Helvetica, Arial, sans-serif" font-size="460" font-weight="400"><tspan class="TextPosition" x="12550" y="9605"><tspan>É</tspan><tspan>quipes projets</tspan></tspan></tspan></text><text class="TextShape" id="id51"><tspan class="TextParagraph" font-family="Helvetica, Arial, sans-serif" font-size="460" font-weight="400"><tspan class="TextPosition" x="12550" y="10505"><tspan>É</tspan><tspan>quipes scientifiques</tspan></tspan></tspan></text></g></g></g></svg>