<?xml version="1.0" encoding="UTF-8"?>
<svg xmlns="http://www.w3.org/2000/svg" xmlns:ooo="http://xml.openoffice.org/svg/export" xmlns:xlink="http://www.w3.org/1999/xlink" version="1.2" baseProfile="tiny" width="228mm" height="138mm" viewBox="0 0 22800 13800" preserveAspectRatio="xMidYMid" fill-rule="evenodd" clip-path="url(#presentation_clip_path)" stroke-width="28.222" stroke-linejoin="round" xml:space="preserve" id="coordination"><style type="text/css"><![CDATA[#coordination a:hover path{ 
	fill: #FBF6D9;
   }
]]></style><defs><filter id="f2" x="0" y="0" width="200%" height="300%"><feOffset result="offOut" in="SourceGraphic" dx="50" dy="50"/><feGaussianBlur result="blurOut" in="offOut" stdDeviation="100"/><feBlend in="SourceGraphic" in2="blurOut" mode="normal"/></filter></defs>
 <defs class="ClipPathGroup">
  <clipPath id="presentation_clip_path" clipPathUnits="userSpaceOnUse">
   <rect x="0" y="0" width="22800" height="13800"/>
  </clipPath>
 </defs>
  

 <g>
  <g id="id2" class="Master_Slide">
   <g id="bg-id2" class="Background"/>
   <g id="bo-id2" class="BackgroundObjects"/>
  </g>
 </g>
 <g class="SlideGroup">
  <g>
   <g id="id1" class="Slide" clip-path="url(#presentation_clip_path)">
    <g class="Page">
     <g class="com.sun.star.drawing.CustomShape">
      <g id="id3">
       <path fill="rgb(240,214,172)" stroke="none" d="M 11400,2500 L 500,2500 500,500 22300,500 22300,2500 11400,2500 Z"/>
       <path fill="none" stroke="rgb(240,214,172)" d="M 11400,2500 L 500,2500 500,500 22300,500 22300,2500 11400,2500 Z"/>
       <text class="TextShape" font-family="Helvetica, Arial, sans-serif"><tspan class="TextParagraph" font-family="Liberation Sans, sans-serif" font-size="634px" font-weight="700"><tspan class="TextPosition" x="4587" y="1721"><tspan fill="rgb(0,0,0)" stroke="none">Center of Coordination and Diffusion (CCD)</tspan></tspan></tspan></text>
      </g>
     </g>
     <g class="com.sun.star.drawing.CustomShape">
      <g id="id4">
       <path fill="rgb(244,238,210)" stroke="none" d="M 5900,13300 L 500,13300 500,2800 11300,2800 11300,13300 5900,13300 Z"/>
       <path fill="none" stroke="rgb(244,238,210)" d="M 5900,13300 L 500,13300 500,2800 11300,2800 11300,13300 5900,13300 Z"/>
      </g>
     </g>
     <g class="com.sun.star.drawing.CustomShape">
      <g id="id5">
       <path fill="rgb(251,244,187)" stroke="none" d="M 16884,13276 L 11484,13276 11484,2776 22284,2776 22284,13276 16884,13276 Z"/>
       <path fill="none" stroke="rgb(251,244,187)" d="M 16884,13276 L 11484,13276 11484,2776 22284,2776 22284,13276 16884,13276 Z"/>
      </g>
     </g>
     <g class="com.sun.star.drawing.TextShape">
      <g id="id6">
       <text class="TextShape" font-family="Helvetica, Arial, sans-serif"><tspan class="TextParagraph" font-family="Liberation Sans, sans-serif" font-size="494px" font-weight="700"><tspan class="TextPosition" x="1096" y="3474"><tspan fill="rgb(0,0,0)" stroke="none">Date and Service Center (CDS)</tspan></tspan></tspan></text>
      </g>
     </g>
     <g class="com.sun.star.drawing.TextShape">
      <g id="id7">
       <text class="TextShape" font-family="Helvetica, Arial, sans-serif"><tspan class="TextParagraph" font-family="Liberation Sans, sans-serif" font-size="494px" font-weight="700"><tspan class="TextPosition" x="12452" y="3474"><tspan fill="rgb(0,0,0)" stroke="none">Center of Scientific expertice (CES)</tspan></tspan></tspan></text>
      </g>
     </g>
     <g class="com.sun.star.drawing.CustomShape">
      <g id="id8">
     <path fill="rgb(0,0,0)" stroke="none" d="M 1166,3900 C 933,3900 700,4133 700,4366 L 700,6234 C 700,6467 933,6701 1166,6701 L 3534,6701 C 3767,6701 4001,6467 4001,6234 L 4001,4366 C 4001,4133 3767,3900 3534,3900 L 1166,3900 Z M 700,3900 L 700,3900 Z M 4001,6701 L 4001,6701 Z" filter="url(#f2)"/>
<a xlink:href="http://www.bcmt.fr/" xlink:title="Bureau Central de Magnétisme Terrestre">
<path fill="rgb(255,255,255)" stroke="none" d="M 1166,3900 C 933,3900 700,4133 700,4366 L 700,6234 C 700,6467 933,6701 1166,6701 L 3534,6701 C 3767,6701 4001,6467 4001,6234 L 4001,4366 C 4001,4133 3767,3900 3534,3900 L 1166,3900 Z M 700,3900 L 700,3900 Z M 4001,6701 L 4001,6701 Z"/>
       <path fill="none" stroke="rgb(0,0,0)" d="M 1166,3900 C 933,3900 700,4133 700,4366 L 700,6234 C 700,6467 933,6701 1166,6701 L 3534,6701 C 3767,6701 4001,6467 4001,6234 L 4001,4366 C 4001,4133 3767,3900 3534,3900 L 1166,3900 Z"/>
       <path fill="none" stroke="rgb(0,0,0)" d="M 700,3900 L 700,3900 Z"/>
       <path fill="none" stroke="rgb(0,0,0)" d="M 4001,6701 L 4001,6701 Z"/>
       <text class="TextShape" font-family="Helvetica, Arial, sans-serif"><tspan class="TextParagraph" font-family="Liberation Sans, sans-serif" font-size="635px" font-weight="400"><tspan class="TextPosition" x="1451" y="5521"><tspan fill="rgb(0,0,0)" stroke="none">BCMT</tspan></tspan></tspan></text>
</a>      
</g>
     </g>
     <g class="com.sun.star.drawing.CustomShape">
      <g id="id9">
       <path fill="rgb(0,0,0)" stroke="none" d="M 4767,3901 C 4534,3901 4301,4134 4301,4367 L 4301,6235 C 4301,6468 4534,6702 4767,6702 L 7135,6702 C 7368,6702 7602,6468 7602,6235 L 7602,4367 C 7602,4134 7368,3901 7135,3901 L 4767,3901 Z M 4301,3901 L 4301,3901 Z M 7602,6702 L 7602,6702 Z" filter="url(#f2)"/>
<a xlink:href="http://data.shom.fr/" xlink:title="Service Hydrographique et Océanographique de la Marine">
<path fill="rgb(255,255,255)" stroke="none" d="M 4767,3901 C 4534,3901 4301,4134 4301,4367 L 4301,6235 C 4301,6468 4534,6702 4767,6702 L 7135,6702 C 7368,6702 7602,6468 7602,6235 L 7602,4367 C 7602,4134 7368,3901 7135,3901 L 4767,3901 Z M 4301,3901 L 4301,3901 Z M 7602,6702 L 7602,6702 Z"/>
       <path fill="none" stroke="rgb(0,0,0)" d="M 4767,3901 C 4534,3901 4301,4134 4301,4367 L 4301,6235 C 4301,6468 4534,6702 4767,6702 L 7135,6702 C 7368,6702 7602,6468 7602,6235 L 7602,4367 C 7602,4134 7368,3901 7135,3901 L 4767,3901 Z"/>
       <path fill="none" stroke="rgb(0,0,0)" d="M 4301,3901 L 4301,3901 Z"/>
       <path fill="none" stroke="rgb(0,0,0)" d="M 7602,6702 L 7602,6702 Z"/>
       <text class="TextShape" font-family="Helvetica, Arial, sans-serif"><tspan class="TextParagraph" font-family="Liberation Sans, sans-serif" font-size="635px" font-weight="400"><tspan class="TextPosition" x="4999" y="5522"><tspan fill="rgb(0,0,0)" stroke="none">SHOM</tspan></tspan></tspan></text>
</a>      
</g>
     </g>
     <g class="com.sun.star.drawing.CustomShape">
      <g id="id10">
       <path fill="rgb(0,0,0)" stroke="none" d="M 8267,3901 C 8034,3901 7801,4134 7801,4367 L 7801,6235 C 7801,6468 8034,6702 8267,6702 L 10635,6702 C 10868,6702 11102,6468 11102,6235 L 11102,4367 C 11102,4134 10868,3901 10635,3901 L 8267,3901 Z M 7801,3901 L 7801,3901 Z M 11102,6702 L 11102,6702 Z" filter="url(#f2)"/><path fill="rgb(255,255,255)" stroke="none" d="M 8267,3901 C 8034,3901 7801,4134 7801,4367 L 7801,6235 C 7801,6468 8034,6702 8267,6702 L 10635,6702 C 10868,6702 11102,6468 11102,6235 L 11102,4367 C 11102,4134 10868,3901 10635,3901 L 8267,3901 Z M 7801,3901 L 7801,3901 Z M 11102,6702 L 11102,6702 Z"/>
       <path fill="none" stroke="rgb(0,0,0)" d="M 8267,3901 C 8034,3901 7801,4134 7801,4367 L 7801,6235 C 7801,6468 8034,6702 8267,6702 L 10635,6702 C 10868,6702 11102,6468 11102,6235 L 11102,4367 C 11102,4134 10868,3901 10635,3901 L 8267,3901 Z"/>
       <path fill="none" stroke="rgb(0,0,0)" d="M 7801,3901 L 7801,3901 Z"/>
       <path fill="none" stroke="rgb(0,0,0)" d="M 11102,6702 L 11102,6702 Z"/>
      </g>
     </g>
     <g class="com.sun.star.drawing.CustomShape">
      <g id="id11">
       <path fill="rgb(0,0,0)" stroke="none" d="M 1167,10301 C 934,10301 701,10534 701,10767 L 701,12635 C 701,12868 934,13102 1167,13102 L 3535,13102 C 3768,13102 4002,12868 4002,12635 L 4002,10767 C 4002,10534 3768,10301 3535,10301 L 1167,10301 Z M 701,10301 L 701,10301 Z M 4002,13102 L 4002,13102 Z" filter="url(#f2)"/><path fill="rgb(255,255,255)" stroke="none" d="M 1167,10301 C 934,10301 701,10534 701,10767 L 701,12635 C 701,12868 934,13102 1167,13102 L 3535,13102 C 3768,13102 4002,12868 4002,12635 L 4002,10767 C 4002,10534 3768,10301 3535,10301 L 1167,10301 Z M 701,10301 L 701,10301 Z M 4002,13102 L 4002,13102 Z"/>
       <path fill="none" stroke="rgb(0,0,0)" d="M 1167,10301 C 934,10301 701,10534 701,10767 L 701,12635 C 701,12868 934,13102 1167,13102 L 3535,13102 C 3768,13102 4002,12868 4002,12635 L 4002,10767 C 4002,10534 3768,10301 3535,10301 L 1167,10301 Z"/>
       <path fill="none" stroke="rgb(0,0,0)" d="M 701,10301 L 701,10301 Z"/>
       <path fill="none" stroke="rgb(0,0,0)" d="M 4002,13102 L 4002,13102 Z"/>
      </g>
     </g>
     <g class="com.sun.star.drawing.CustomShape">
      <g id="id12">
       <path fill="rgb(0,0,0)" stroke="none" d="M 4768,10302 C 4535,10302 4302,10535 4302,10768 L 4302,12636 C 4302,12869 4535,13103 4768,13103 L 7136,13103 C 7369,13103 7603,12869 7603,12636 L 7603,10768 C 7603,10535 7369,10302 7136,10302 L 4768,10302 Z M 4302,10302 L 4302,10302 Z M 7603,13103 L 7603,13103 Z" filter="url(#f2)"/><path fill="rgb(255,255,255)" stroke="none" d="M 4768,10302 C 4535,10302 4302,10535 4302,10768 L 4302,12636 C 4302,12869 4535,13103 4768,13103 L 7136,13103 C 7369,13103 7603,12869 7603,12636 L 7603,10768 C 7603,10535 7369,10302 7136,10302 L 4768,10302 Z M 4302,10302 L 4302,10302 Z M 7603,13103 L 7603,13103 Z"/>
       <path fill="none" stroke="rgb(0,0,0)" d="M 4768,10302 C 4535,10302 4302,10535 4302,10768 L 4302,12636 C 4302,12869 4535,13103 4768,13103 L 7136,13103 C 7369,13103 7603,12869 7603,12636 L 7603,10768 C 7603,10535 7369,10302 7136,10302 L 4768,10302 Z"/>
       <path fill="none" stroke="rgb(0,0,0)" d="M 4302,10302 L 4302,10302 Z"/>
       <path fill="none" stroke="rgb(0,0,0)" d="M 7603,13103 L 7603,13103 Z"/>
      </g>
     </g>
     <g class="com.sun.star.drawing.CustomShape">
      <g id="id13">
       <path fill="rgb(0,0,0)" stroke="none" d="M 8268,10302 C 8035,10302 7802,10535 7802,10768 L 7802,12636 C 7802,12869 8035,13103 8268,13103 L 10636,13103 C 10869,13103 11103,12869 11103,12636 L 11103,10768 C 11103,10535 10869,10302 10636,10302 L 8268,10302 Z M 7802,10302 L 7802,10302 Z M 11103,13103 L 11103,13103 Z" filter="url(#f2)"/><path fill="rgb(255,255,255)" stroke="none" d="M 8268,10302 C 8035,10302 7802,10535 7802,10768 L 7802,12636 C 7802,12869 8035,13103 8268,13103 L 10636,13103 C 10869,13103 11103,12869 11103,12636 L 11103,10768 C 11103,10535 10869,10302 10636,10302 L 8268,10302 Z M 7802,10302 L 7802,10302 Z M 11103,13103 L 11103,13103 Z"/>
       <path fill="none" stroke="rgb(0,0,0)" d="M 8268,10302 C 8035,10302 7802,10535 7802,10768 L 7802,12636 C 7802,12869 8035,13103 8268,13103 L 10636,13103 C 10869,13103 11103,12869 11103,12636 L 11103,10768 C 11103,10535 10869,10302 10636,10302 L 8268,10302 Z"/>
       <path fill="none" stroke="rgb(0,0,0)" d="M 7802,10302 L 7802,10302 Z"/>
       <path fill="none" stroke="rgb(0,0,0)" d="M 11103,13103 L 11103,13103 Z"/>
      </g>
     </g>
     <g class="com.sun.star.drawing.CustomShape">
      <g id="id14">
       <path fill="rgb(0,0,0)" stroke="none" d="M 1167,7101 C 934,7101 701,7334 701,7567 L 701,9435 C 701,9668 934,9902 1167,9902 L 3535,9902 C 3768,9902 4002,9668 4002,9435 L 4002,7567 C 4002,7334 3768,7101 3535,7101 L 1167,7101 Z M 701,7101 L 701,7101 Z M 4002,9902 L 4002,9902 Z" filter="url(#f2)"/><path fill="rgb(255,255,255)" stroke="none" d="M 1167,7101 C 934,7101 701,7334 701,7567 L 701,9435 C 701,9668 934,9902 1167,9902 L 3535,9902 C 3768,9902 4002,9668 4002,9435 L 4002,7567 C 4002,7334 3768,7101 3535,7101 L 1167,7101 Z M 701,7101 L 701,7101 Z M 4002,9902 L 4002,9902 Z"/>
       <path fill="none" stroke="rgb(0,0,0)" d="M 1167,7101 C 934,7101 701,7334 701,7567 L 701,9435 C 701,9668 934,9902 1167,9902 L 3535,9902 C 3768,9902 4002,9668 4002,9435 L 4002,7567 C 4002,7334 3768,7101 3535,7101 L 1167,7101 Z"/>
       <path fill="none" stroke="rgb(0,0,0)" d="M 701,7101 L 701,7101 Z"/>
       <path fill="none" stroke="rgb(0,0,0)" d="M 4002,9902 L 4002,9902 Z"/>
      </g>
     </g>
     <g class="com.sun.star.drawing.CustomShape">
      <g id="id15">
       <path fill="rgb(0,0,0)" stroke="none" d="M 4768,7102 C 4535,7102 4302,7335 4302,7568 L 4302,9436 C 4302,9669 4535,9903 4768,9903 L 7136,9903 C 7369,9903 7603,9669 7603,9436 L 7603,7568 C 7603,7335 7369,7102 7136,7102 L 4768,7102 Z M 4302,7102 L 4302,7102 Z M 7603,9903 L 7603,9903 Z" filter="url(#f2)"/><path fill="rgb(255,255,255)" stroke="none" d="M 4768,7102 C 4535,7102 4302,7335 4302,7568 L 4302,9436 C 4302,9669 4535,9903 4768,9903 L 7136,9903 C 7369,9903 7603,9669 7603,9436 L 7603,7568 C 7603,7335 7369,7102 7136,7102 L 4768,7102 Z M 4302,7102 L 4302,7102 Z M 7603,9903 L 7603,9903 Z"/>
       <path fill="none" stroke="rgb(0,0,0)" d="M 4768,7102 C 4535,7102 4302,7335 4302,7568 L 4302,9436 C 4302,9669 4535,9903 4768,9903 L 7136,9903 C 7369,9903 7603,9669 7603,9436 L 7603,7568 C 7603,7335 7369,7102 7136,7102 L 4768,7102 Z"/>
       <path fill="none" stroke="rgb(0,0,0)" d="M 4302,7102 L 4302,7102 Z"/>
       <path fill="none" stroke="rgb(0,0,0)" d="M 7603,9903 L 7603,9903 Z"/>
      </g>
     </g>
     <g class="com.sun.star.drawing.CustomShape">
      <g id="id16">
       <path fill="rgb(0,0,0)" stroke="none" d="M 8268,7102 C 8035,7102 7802,7335 7802,7568 L 7802,9436 C 7802,9669 8035,9903 8268,9903 L 10636,9903 C 10869,9903 11103,9669 11103,9436 L 11103,7568 C 11103,7335 10869,7102 10636,7102 L 8268,7102 Z M 7802,7102 L 7802,7102 Z M 11103,9903 L 11103,9903 Z" filter="url(#f2)"/><path fill="rgb(255,255,255)" stroke="none" d="M 8268,7102 C 8035,7102 7802,7335 7802,7568 L 7802,9436 C 7802,9669 8035,9903 8268,9903 L 10636,9903 C 10869,9903 11103,9669 11103,9436 L 11103,7568 C 11103,7335 10869,7102 10636,7102 L 8268,7102 Z M 7802,7102 L 7802,7102 Z M 11103,9903 L 11103,9903 Z"/>
       <path fill="none" stroke="rgb(0,0,0)" d="M 8268,7102 C 8035,7102 7802,7335 7802,7568 L 7802,9436 C 7802,9669 8035,9903 8268,9903 L 10636,9903 C 10869,9903 11103,9669 11103,9436 L 11103,7568 C 11103,7335 10869,7102 10636,7102 L 8268,7102 Z"/>
       <path fill="none" stroke="rgb(0,0,0)" d="M 7802,7102 L 7802,7102 Z"/>
       <path fill="none" stroke="rgb(0,0,0)" d="M 11103,9903 L 11103,9903 Z"/>
      </g>
     </g>
     <g class="com.sun.star.drawing.CustomShape">
      <g id="id17">
       <path fill="rgb(0,0,0)" stroke="none" d="M 19268,3902 C 19035,3902 18802,4135 18802,4368 L 18802,6236 C 18802,6469 19035,6703 19268,6703 L 21636,6703 C 21869,6703 22103,6469 22103,6236 L 22103,4368 C 22103,4135 21869,3902 21636,3902 L 19268,3902 Z M 18802,3902 L 18802,3902 Z M 22103,6703 L 22103,6703 Z" filter="url(#f2)"/><path fill="rgb(255,255,255)" stroke="none" d="M 19268,3902 C 19035,3902 18802,4135 18802,4368 L 18802,6236 C 18802,6469 19035,6703 19268,6703 L 21636,6703 C 21869,6703 22103,6469 22103,6236 L 22103,4368 C 22103,4135 21869,3902 21636,3902 L 19268,3902 Z M 18802,3902 L 18802,3902 Z M 22103,6703 L 22103,6703 Z"/>
       <path fill="none" stroke="rgb(0,0,0)" d="M 19268,3902 C 19035,3902 18802,4135 18802,4368 L 18802,6236 C 18802,6469 19035,6703 19268,6703 L 21636,6703 C 21869,6703 22103,6469 22103,6236 L 22103,4368 C 22103,4135 21869,3902 21636,3902 L 19268,3902 Z"/>
       <path fill="none" stroke="rgb(0,0,0)" d="M 18802,3902 L 18802,3902 Z"/>
       <path fill="none" stroke="rgb(0,0,0)" d="M 22103,6703 L 22103,6703 Z"/>
      </g>
     </g>
     <g class="com.sun.star.drawing.CustomShape">
      <g id="id18">
       <path fill="rgb(0,0,0)" stroke="none" d="M 12168,10302 C 11935,10302 11702,10535 11702,10768 L 11702,12636 C 11702,12869 11935,13103 12168,13103 L 14536,13103 C 14769,13103 15003,12869 15003,12636 L 15003,10768 C 15003,10535 14769,10302 14536,10302 L 12168,10302 Z M 11702,10302 L 11702,10302 Z M 15003,13103 L 15003,13103 Z" filter="url(#f2)"/><path fill="rgb(255,255,255)" stroke="none" d="M 12168,10302 C 11935,10302 11702,10535 11702,10768 L 11702,12636 C 11702,12869 11935,13103 12168,13103 L 14536,13103 C 14769,13103 15003,12869 15003,12636 L 15003,10768 C 15003,10535 14769,10302 14536,10302 L 12168,10302 Z M 11702,10302 L 11702,10302 Z M 15003,13103 L 15003,13103 Z"/>
       <path fill="none" stroke="rgb(0,0,0)" d="M 12168,10302 C 11935,10302 11702,10535 11702,10768 L 11702,12636 C 11702,12869 11935,13103 12168,13103 L 14536,13103 C 14769,13103 15003,12869 15003,12636 L 15003,10768 C 15003,10535 14769,10302 14536,10302 L 12168,10302 Z"/>
       <path fill="none" stroke="rgb(0,0,0)" d="M 11702,10302 L 11702,10302 Z"/>
       <path fill="none" stroke="rgb(0,0,0)" d="M 15003,13103 L 15003,13103 Z"/>
      </g>
     </g>
     <g class="com.sun.star.drawing.CustomShape">
      <g id="id19">
       <path fill="rgb(0,0,0)" stroke="none" d="M 15769,10303 C 15536,10303 15303,10536 15303,10769 L 15303,12637 C 15303,12870 15536,13104 15769,13104 L 18137,13104 C 18370,13104 18604,12870 18604,12637 L 18604,10769 C 18604,10536 18370,10303 18137,10303 L 15769,10303 Z M 15303,10303 L 15303,10303 Z M 18604,13104 L 18604,13104 Z" filter="url(#f2)"/><path fill="rgb(255,255,255)" stroke="none" d="M 15769,10303 C 15536,10303 15303,10536 15303,10769 L 15303,12637 C 15303,12870 15536,13104 15769,13104 L 18137,13104 C 18370,13104 18604,12870 18604,12637 L 18604,10769 C 18604,10536 18370,10303 18137,10303 L 15769,10303 Z M 15303,10303 L 15303,10303 Z M 18604,13104 L 18604,13104 Z"/>
       <path fill="none" stroke="rgb(0,0,0)" d="M 15769,10303 C 15536,10303 15303,10536 15303,10769 L 15303,12637 C 15303,12870 15536,13104 15769,13104 L 18137,13104 C 18370,13104 18604,12870 18604,12637 L 18604,10769 C 18604,10536 18370,10303 18137,10303 L 15769,10303 Z"/>
       <path fill="none" stroke="rgb(0,0,0)" d="M 15303,10303 L 15303,10303 Z"/>
       <path fill="none" stroke="rgb(0,0,0)" d="M 18604,13104 L 18604,13104 Z"/>
      </g>
     </g>
     <g class="com.sun.star.drawing.CustomShape">
      <g id="id20">
       <path fill="rgb(0,0,0)" stroke="none" d="M 19269,10303 C 19036,10303 18803,10536 18803,10769 L 18803,12637 C 18803,12870 19036,13104 19269,13104 L 21637,13104 C 21870,13104 22104,12870 22104,12637 L 22104,10769 C 22104,10536 21870,10303 21637,10303 L 19269,10303 Z M 18803,10303 L 18803,10303 Z M 22104,13104 L 22104,13104 Z" filter="url(#f2)"/><path fill="rgb(255,255,255)" stroke="none" d="M 19269,10303 C 19036,10303 18803,10536 18803,10769 L 18803,12637 C 18803,12870 19036,13104 19269,13104 L 21637,13104 C 21870,13104 22104,12870 22104,12637 L 22104,10769 C 22104,10536 21870,10303 21637,10303 L 19269,10303 Z M 18803,10303 L 18803,10303 Z M 22104,13104 L 22104,13104 Z"/>
       <path fill="none" stroke="rgb(0,0,0)" d="M 19269,10303 C 19036,10303 18803,10536 18803,10769 L 18803,12637 C 18803,12870 19036,13104 19269,13104 L 21637,13104 C 21870,13104 22104,12870 22104,12637 L 22104,10769 C 22104,10536 21870,10303 21637,10303 L 19269,10303 Z"/>
       <path fill="none" stroke="rgb(0,0,0)" d="M 18803,10303 L 18803,10303 Z"/>
       <path fill="none" stroke="rgb(0,0,0)" d="M 22104,13104 L 22104,13104 Z"/>
      </g>
     </g>
     <g class="com.sun.star.drawing.CustomShape">
      <g id="id21">
       <path fill="rgb(0,0,0)" stroke="none" d="M 19269,7103 C 19036,7103 18803,7336 18803,7569 L 18803,9437 C 18803,9670 19036,9904 19269,9904 L 21637,9904 C 21870,9904 22104,9670 22104,9437 L 22104,7569 C 22104,7336 21870,7103 21637,7103 L 19269,7103 Z M 18803,7103 L 18803,7103 Z M 22104,9904 L 22104,9904 Z" filter="url(#f2)"/><path fill="rgb(255,255,255)" stroke="none" d="M 19269,7103 C 19036,7103 18803,7336 18803,7569 L 18803,9437 C 18803,9670 19036,9904 19269,9904 L 21637,9904 C 21870,9904 22104,9670 22104,9437 L 22104,7569 C 22104,7336 21870,7103 21637,7103 L 19269,7103 Z M 18803,7103 L 18803,7103 Z M 22104,9904 L 22104,9904 Z"/>
       <path fill="none" stroke="rgb(0,0,0)" d="M 19269,7103 C 19036,7103 18803,7336 18803,7569 L 18803,9437 C 18803,9670 19036,9904 19269,9904 L 21637,9904 C 21870,9904 22104,9670 22104,9437 L 22104,7569 C 22104,7336 21870,7103 21637,7103 L 19269,7103 Z"/>
       <path fill="none" stroke="rgb(0,0,0)" d="M 18803,7103 L 18803,7103 Z"/>
       <path fill="none" stroke="rgb(0,0,0)" d="M 22104,9904 L 22104,9904 Z"/>
      </g>
     </g>
     <g class="com.sun.star.drawing.CustomShape">
      <g id="id22">
       <path fill="rgb(0,0,0)" stroke="none" d="M 12167,3901 C 11934,3901 11701,4134 11701,4367 L 11701,6235 C 11701,6468 11934,6702 12167,6702 L 14535,6702 C 14768,6702 15002,6468 15002,6235 L 15002,4367 C 15002,4134 14768,3901 14535,3901 L 12167,3901 Z M 11701,3901 L 11701,3901 Z M 15002,6702 L 15002,6702 Z" filter="url(#f2)"/><path fill="rgb(255,255,255)" stroke="none" d="M 12167,3901 C 11934,3901 11701,4134 11701,4367 L 11701,6235 C 11701,6468 11934,6702 12167,6702 L 14535,6702 C 14768,6702 15002,6468 15002,6235 L 15002,4367 C 15002,4134 14768,3901 14535,3901 L 12167,3901 Z M 11701,3901 L 11701,3901 Z M 15002,6702 L 15002,6702 Z"/>
       <path fill="none" stroke="rgb(0,0,0)" d="M 12167,3901 C 11934,3901 11701,4134 11701,4367 L 11701,6235 C 11701,6468 11934,6702 12167,6702 L 14535,6702 C 14768,6702 15002,6468 15002,6235 L 15002,4367 C 15002,4134 14768,3901 14535,3901 L 12167,3901 Z"/>
       <path fill="none" stroke="rgb(0,0,0)" d="M 11701,3901 L 11701,3901 Z"/>
       <path fill="none" stroke="rgb(0,0,0)" d="M 15002,6702 L 15002,6702 Z"/>
      </g>
     </g>
     <g class="com.sun.star.drawing.CustomShape">
      <g id="id23">
       <path fill="rgb(0,0,0)" stroke="none" d="M 15768,3902 C 15535,3902 15302,4135 15302,4368 L 15302,6236 C 15302,6469 15535,6703 15768,6703 L 18136,6703 C 18369,6703 18603,6469 18603,6236 L 18603,4368 C 18603,4135 18369,3902 18136,3902 L 15768,3902 Z M 15302,3902 L 15302,3902 Z M 18603,6703 L 18603,6703 Z" filter="url(#f2)"/><path fill="rgb(255,255,255)" stroke="none" d="M 15768,3902 C 15535,3902 15302,4135 15302,4368 L 15302,6236 C 15302,6469 15535,6703 15768,6703 L 18136,6703 C 18369,6703 18603,6469 18603,6236 L 18603,4368 C 18603,4135 18369,3902 18136,3902 L 15768,3902 Z M 15302,3902 L 15302,3902 Z M 18603,6703 L 18603,6703 Z"/>
       <path fill="none" stroke="rgb(0,0,0)" d="M 15768,3902 C 15535,3902 15302,4135 15302,4368 L 15302,6236 C 15302,6469 15535,6703 15768,6703 L 18136,6703 C 18369,6703 18603,6469 18603,6236 L 18603,4368 C 18603,4135 18369,3902 18136,3902 L 15768,3902 Z"/>
       <path fill="none" stroke="rgb(0,0,0)" d="M 15302,3902 L 15302,3902 Z"/>
       <path fill="none" stroke="rgb(0,0,0)" d="M 18603,6703 L 18603,6703 Z"/>
      </g>
     </g>
     <g class="com.sun.star.drawing.CustomShape">
      <g id="id24">
       <path fill="rgb(0,0,0)" stroke="none" d="M 12168,7102 C 11935,7102 11702,7335 11702,7568 L 11702,9436 C 11702,9669 11935,9903 12168,9903 L 14536,9903 C 14769,9903 15003,9669 15003,9436 L 15003,7568 C 15003,7335 14769,7102 14536,7102 L 12168,7102 Z M 11702,7102 L 11702,7102 Z M 15003,9903 L 15003,9903 Z" filter="url(#f2)"/><path fill="rgb(255,255,255)" stroke="none" d="M 12168,7102 C 11935,7102 11702,7335 11702,7568 L 11702,9436 C 11702,9669 11935,9903 12168,9903 L 14536,9903 C 14769,9903 15003,9669 15003,9436 L 15003,7568 C 15003,7335 14769,7102 14536,7102 L 12168,7102 Z M 11702,7102 L 11702,7102 Z M 15003,9903 L 15003,9903 Z"/>
       <path fill="none" stroke="rgb(0,0,0)" d="M 12168,7102 C 11935,7102 11702,7335 11702,7568 L 11702,9436 C 11702,9669 11935,9903 12168,9903 L 14536,9903 C 14769,9903 15003,9669 15003,9436 L 15003,7568 C 15003,7335 14769,7102 14536,7102 L 12168,7102 Z"/>
       <path fill="none" stroke="rgb(0,0,0)" d="M 11702,7102 L 11702,7102 Z"/>
       <path fill="none" stroke="rgb(0,0,0)" d="M 15003,9903 L 15003,9903 Z"/>
      </g>
     </g>
     <g class="com.sun.star.drawing.CustomShape">
      <g id="id25">
       <path fill="rgb(0,0,0)" stroke="none" d="M 15769,7103 C 15536,7103 15303,7336 15303,7569 L 15303,9437 C 15303,9670 15536,9904 15769,9904 L 18137,9904 C 18370,9904 18604,9670 18604,9437 L 18604,7569 C 18604,7336 18370,7103 18137,7103 L 15769,7103 Z M 15303,7103 L 15303,7103 Z M 18604,9904 L 18604,9904 Z" filter="url(#f2)"/><path fill="rgb(255,255,255)" stroke="none" d="M 15769,7103 C 15536,7103 15303,7336 15303,7569 L 15303,9437 C 15303,9670 15536,9904 15769,9904 L 18137,9904 C 18370,9904 18604,9670 18604,9437 L 18604,7569 C 18604,7336 18370,7103 18137,7103 L 15769,7103 Z M 15303,7103 L 15303,7103 Z M 18604,9904 L 18604,9904 Z"/>
       <path fill="none" stroke="rgb(0,0,0)" d="M 15769,7103 C 15536,7103 15303,7336 15303,7569 L 15303,9437 C 15303,9670 15536,9904 15769,9904 L 18137,9904 C 18370,9904 18604,9670 18604,9437 L 18604,7569 C 18604,7336 18370,7103 18137,7103 L 15769,7103 Z"/>
       <path fill="none" stroke="rgb(0,0,0)" d="M 15303,7103 L 15303,7103 Z"/>
       <path fill="none" stroke="rgb(0,0,0)" d="M 18604,9904 L 18604,9904 Z"/>
      </g>
     </g>
    </g>
   </g>
  </g>
 </g>
</svg>
